G04 #@! TF.GenerationSoftware,KiCad,Pcbnew,(6.0.9)*
G04 #@! TF.CreationDate,2022-11-09T23:13:12+08:00*
G04 #@! TF.ProjectId,low_battery_voltage_alarm,6c6f775f-6261-4747-9465-72795f766f6c,rev?*
G04 #@! TF.SameCoordinates,Original*
G04 #@! TF.FileFunction,Copper,L1,Top*
G04 #@! TF.FilePolarity,Positive*
%FSLAX46Y46*%
G04 Gerber Fmt 4.6, Leading zero omitted, Abs format (unit mm)*
G04 Created by KiCad (PCBNEW (6.0.9)) date 2022-11-09 23:13:12*
%MOMM*%
%LPD*%
G01*
G04 APERTURE LIST*
G04 Aperture macros list*
%AMRoundRect*
0 Rectangle with rounded corners*
0 $1 Rounding radius*
0 $2 $3 $4 $5 $6 $7 $8 $9 X,Y pos of 4 corners*
0 Add a 4 corners polygon primitive as box body*
4,1,4,$2,$3,$4,$5,$6,$7,$8,$9,$2,$3,0*
0 Add four circle primitives for the rounded corners*
1,1,$1+$1,$2,$3*
1,1,$1+$1,$4,$5*
1,1,$1+$1,$6,$7*
1,1,$1+$1,$8,$9*
0 Add four rect primitives between the rounded corners*
20,1,$1+$1,$2,$3,$4,$5,0*
20,1,$1+$1,$4,$5,$6,$7,0*
20,1,$1+$1,$6,$7,$8,$9,0*
20,1,$1+$1,$8,$9,$2,$3,0*%
G04 Aperture macros list end*
G04 #@! TA.AperFunction,ComponentPad*
%ADD10RoundRect,0.250000X-0.600000X-0.750000X0.600000X-0.750000X0.600000X0.750000X-0.600000X0.750000X0*%
G04 #@! TD*
G04 #@! TA.AperFunction,ComponentPad*
%ADD11O,1.700000X2.000000*%
G04 #@! TD*
G04 #@! TA.AperFunction,SMDPad,CuDef*
%ADD12RoundRect,0.150000X-0.587500X-0.150000X0.587500X-0.150000X0.587500X0.150000X-0.587500X0.150000X0*%
G04 #@! TD*
G04 #@! TA.AperFunction,ComponentPad*
%ADD13R,2.000000X2.000000*%
G04 #@! TD*
G04 #@! TA.AperFunction,ComponentPad*
%ADD14C,2.000000*%
G04 #@! TD*
G04 #@! TA.AperFunction,SMDPad,CuDef*
%ADD15RoundRect,0.250000X-0.475000X0.337500X-0.475000X-0.337500X0.475000X-0.337500X0.475000X0.337500X0*%
G04 #@! TD*
G04 #@! TA.AperFunction,SMDPad,CuDef*
%ADD16RoundRect,0.250000X0.350000X0.450000X-0.350000X0.450000X-0.350000X-0.450000X0.350000X-0.450000X0*%
G04 #@! TD*
G04 #@! TA.AperFunction,SMDPad,CuDef*
%ADD17RoundRect,0.250000X-0.350000X-0.450000X0.350000X-0.450000X0.350000X0.450000X-0.350000X0.450000X0*%
G04 #@! TD*
G04 #@! TA.AperFunction,ComponentPad*
%ADD18R,1.600000X1.600000*%
G04 #@! TD*
G04 #@! TA.AperFunction,ComponentPad*
%ADD19C,1.600000*%
G04 #@! TD*
G04 #@! TA.AperFunction,ComponentPad*
%ADD20O,1.600000X1.600000*%
G04 #@! TD*
G04 #@! TA.AperFunction,ComponentPad*
%ADD21R,1.560000X1.560000*%
G04 #@! TD*
G04 #@! TA.AperFunction,ComponentPad*
%ADD22C,1.560000*%
G04 #@! TD*
G04 #@! TA.AperFunction,SMDPad,CuDef*
%ADD23RoundRect,0.250000X0.450000X-0.350000X0.450000X0.350000X-0.450000X0.350000X-0.450000X-0.350000X0*%
G04 #@! TD*
G04 #@! TA.AperFunction,ComponentPad*
%ADD24RoundRect,0.250000X-0.750000X0.600000X-0.750000X-0.600000X0.750000X-0.600000X0.750000X0.600000X0*%
G04 #@! TD*
G04 #@! TA.AperFunction,ComponentPad*
%ADD25O,2.000000X1.700000*%
G04 #@! TD*
G04 #@! TA.AperFunction,ComponentPad*
%ADD26C,4.400000*%
G04 #@! TD*
G04 #@! TA.AperFunction,ComponentPad*
%ADD27RoundRect,0.250000X-0.550000X-0.550000X0.550000X-0.550000X0.550000X0.550000X-0.550000X0.550000X0*%
G04 #@! TD*
G04 #@! TA.AperFunction,SMDPad,CuDef*
%ADD28R,2.200000X1.500000*%
G04 #@! TD*
G04 #@! TA.AperFunction,ComponentPad*
%ADD29R,1.800000X1.800000*%
G04 #@! TD*
G04 #@! TA.AperFunction,ComponentPad*
%ADD30C,1.800000*%
G04 #@! TD*
G04 #@! TA.AperFunction,Conductor*
%ADD31C,0.250000*%
G04 #@! TD*
G04 APERTURE END LIST*
D10*
X169204000Y-90424000D03*
D11*
X171704000Y-90424000D03*
D12*
X142826500Y-78552000D03*
X142826500Y-80452000D03*
X144701500Y-79502000D03*
D13*
X137668000Y-114300000D03*
D14*
X130068000Y-114300000D03*
D15*
X165100000Y-101070500D03*
X165100000Y-103145500D03*
D16*
X144510000Y-112522000D03*
X142510000Y-112522000D03*
D17*
X140494000Y-106680000D03*
X142494000Y-106680000D03*
D18*
X153924000Y-116521100D03*
D19*
X153924000Y-114021100D03*
D18*
X152664000Y-108956000D03*
D20*
X155204000Y-108956000D03*
X157744000Y-108956000D03*
X160284000Y-108956000D03*
X160284000Y-101336000D03*
X157744000Y-101336000D03*
X155204000Y-101336000D03*
X152664000Y-101336000D03*
D21*
X143296000Y-116124000D03*
D22*
X145796000Y-121124000D03*
X148296000Y-116124000D03*
D23*
X138684000Y-76946000D03*
X138684000Y-74946000D03*
D24*
X128850000Y-95778000D03*
D25*
X128850000Y-98278000D03*
D23*
X135636000Y-76946000D03*
X135636000Y-74946000D03*
D26*
X94488000Y-117856000D03*
X170688000Y-117856000D03*
X94488000Y-77216000D03*
X170688000Y-77216000D03*
D27*
X127486000Y-89662000D03*
D19*
X131086000Y-89662000D03*
D16*
X148828000Y-112522000D03*
X146828000Y-112522000D03*
D28*
X135964000Y-80518000D03*
X138864000Y-80518000D03*
D17*
X140494000Y-104140000D03*
X142494000Y-104140000D03*
D29*
X139187000Y-99060000D03*
D30*
X141727000Y-99060000D03*
D21*
X131826000Y-75438000D03*
D22*
X126826000Y-77938000D03*
X131826000Y-80438000D03*
D12*
X148922500Y-78552000D03*
X148922500Y-80452000D03*
X150797500Y-79502000D03*
D17*
X142764000Y-74930000D03*
X144764000Y-74930000D03*
D31*
X128850000Y-95778000D02*
X163850000Y-95778000D01*
X163850000Y-95778000D02*
X169204000Y-90424000D01*
X143632200Y-78552000D02*
X142826500Y-78552000D01*
X171410200Y-90424000D02*
X171704000Y-90424000D01*
X143632200Y-79847000D02*
X143919600Y-80134400D01*
X127521800Y-93245500D02*
X127521800Y-96680700D01*
X143919600Y-80134400D02*
X143919600Y-80844500D01*
X168413400Y-87427200D02*
X171410200Y-90424000D01*
X150502300Y-87427200D02*
X168413400Y-87427200D01*
X148922500Y-78552000D02*
X143632200Y-78552000D01*
X127521800Y-96680700D02*
X127943800Y-97102700D01*
X128850000Y-98278000D02*
X128850000Y-97102700D01*
X129938300Y-90829000D02*
X127521800Y-93245500D01*
X143632200Y-78552000D02*
X143632200Y-79847000D01*
X129938300Y-82325700D02*
X129938300Y-90829000D01*
X127943800Y-97102700D02*
X128850000Y-97102700D01*
X143919600Y-80844500D02*
X143170700Y-81593400D01*
X131826000Y-80438000D02*
X129938300Y-82325700D01*
X143919600Y-80844500D02*
X150502300Y-87427200D01*
X140853100Y-81593400D02*
X131617500Y-90829000D01*
X143170700Y-81593400D02*
X140853100Y-81593400D01*
X131617500Y-90829000D02*
X129938300Y-90829000D01*
X137668000Y-109506000D02*
X140494000Y-106680000D01*
X137668000Y-114300000D02*
X137668000Y-109506000D01*
X140412300Y-99060000D02*
X140412300Y-98600500D01*
X140412300Y-98600500D02*
X141178500Y-97834300D01*
X150755600Y-97834300D02*
X153934000Y-101012700D01*
X139187000Y-99060000D02*
X140412300Y-99060000D01*
X153934000Y-104020700D02*
X157744000Y-107830700D01*
X153934000Y-101012700D02*
X153934000Y-104020700D01*
X157744000Y-108956000D02*
X157744000Y-107830700D01*
X141178500Y-97834300D02*
X150755600Y-97834300D01*
X148828000Y-112522000D02*
X149127500Y-112821500D01*
X154078700Y-109659300D02*
X154078700Y-108956000D01*
X152798700Y-116521100D02*
X152798700Y-114703700D01*
X153924000Y-116521100D02*
X152798700Y-116521100D01*
X152798700Y-114703700D02*
X150916500Y-112821500D01*
X149127500Y-112821500D02*
X150916500Y-112821500D01*
X155204000Y-108956000D02*
X154078700Y-108956000D01*
X150916500Y-112821500D02*
X154078700Y-109659300D01*
X154000600Y-113944500D02*
X153924000Y-114021100D01*
X164834500Y-101336000D02*
X165100000Y-101070500D01*
X160284000Y-101336000D02*
X164834500Y-101336000D01*
X134459300Y-77938000D02*
X135964000Y-79442700D01*
X135964000Y-80518000D02*
X135964000Y-79442700D01*
X126826000Y-77938000D02*
X134459300Y-77938000D01*
X138864000Y-80518000D02*
X142760500Y-80518000D01*
X142760500Y-80518000D02*
X142826500Y-80452000D01*
X141727000Y-102907000D02*
X140494000Y-104140000D01*
X141727000Y-99060000D02*
X141727000Y-102907000D01*
X144764000Y-74930000D02*
X146747400Y-74930000D01*
X148922500Y-79964500D02*
X148922500Y-80452000D01*
X150019400Y-78202000D02*
X150019400Y-78867600D01*
X148922500Y-80452000D02*
X145651500Y-80452000D01*
X145651500Y-80452000D02*
X144701500Y-79502000D01*
X150019400Y-78867600D02*
X148922500Y-79964500D01*
X146747400Y-74930000D02*
X150019400Y-78202000D01*
X131826000Y-75438000D02*
X135144000Y-75438000D01*
X135144000Y-75438000D02*
X135636000Y-74946000D01*
X142764000Y-74930000D02*
X138700000Y-74930000D01*
X138700000Y-74930000D02*
X138684000Y-74946000D01*
X144510000Y-113804700D02*
X144510000Y-112522000D01*
X143296000Y-116124000D02*
X143296000Y-115018700D01*
X143296000Y-115018700D02*
X144510000Y-113804700D01*
X146828000Y-112522000D02*
X146828000Y-114656000D01*
X146828000Y-114656000D02*
X148296000Y-116124000D01*
X131086000Y-89662000D02*
X137389400Y-83358600D01*
X156474000Y-109342700D02*
X156474000Y-108500400D01*
X142494000Y-106680000D02*
X142494000Y-112506000D01*
X135636000Y-76946000D02*
X136656100Y-77966100D01*
X142494000Y-104140000D02*
X152113600Y-104140000D01*
X158289100Y-110106900D02*
X157238200Y-110106900D01*
X137389400Y-77966100D02*
X137663900Y-77966100D01*
X137663900Y-77966100D02*
X138684000Y-76946000D01*
X159158700Y-108956000D02*
X159158700Y-109237300D01*
X160284000Y-108956000D02*
X159158700Y-108956000D01*
X157238200Y-110106900D02*
X156474000Y-109342700D01*
X159158700Y-109237300D02*
X158289100Y-110106900D01*
X156474000Y-108500400D02*
X152113600Y-104140000D01*
X142494000Y-104140000D02*
X142494000Y-106680000D01*
X137389400Y-83358600D02*
X137389400Y-77966100D01*
X152113600Y-104140000D02*
X152664000Y-103589600D01*
X152664000Y-103589600D02*
X152664000Y-101336000D01*
X142494000Y-112506000D02*
X142510000Y-112522000D01*
X136656100Y-77966100D02*
X137389400Y-77966100D01*
G04 #@! TA.AperFunction,Conductor*
G36*
X165832018Y-71376000D02*
G01*
X165846851Y-71378310D01*
X165846855Y-71378310D01*
X165855724Y-71379691D01*
X165879375Y-71376598D01*
X165899376Y-71375587D01*
X166478601Y-71392442D01*
X166485901Y-71392867D01*
X166857511Y-71425378D01*
X167096773Y-71446311D01*
X167104052Y-71447162D01*
X167291959Y-71474686D01*
X167710779Y-71536034D01*
X167717971Y-71537302D01*
X168093204Y-71614782D01*
X168318500Y-71661302D01*
X168325631Y-71662992D01*
X168917928Y-71821697D01*
X168924950Y-71823799D01*
X169507025Y-72016678D01*
X169513912Y-72019185D01*
X170083773Y-72245576D01*
X170090503Y-72248479D01*
X170646249Y-72507628D01*
X170652799Y-72510918D01*
X171192517Y-72801931D01*
X171198864Y-72805595D01*
X171720769Y-73127511D01*
X171726893Y-73131539D01*
X172229198Y-73483256D01*
X172235059Y-73487620D01*
X172418965Y-73633034D01*
X172716064Y-73867950D01*
X172721678Y-73872661D01*
X173179749Y-74280309D01*
X173185080Y-74285339D01*
X173618661Y-74718920D01*
X173623691Y-74724251D01*
X174031339Y-75182322D01*
X174036050Y-75187936D01*
X174163876Y-75349598D01*
X174403833Y-75653072D01*
X174416373Y-75668932D01*
X174420744Y-75674802D01*
X174610632Y-75945991D01*
X174772461Y-76177107D01*
X174776489Y-76183231D01*
X175098405Y-76705136D01*
X175102069Y-76711483D01*
X175393082Y-77251201D01*
X175396372Y-77257751D01*
X175421948Y-77312598D01*
X175606367Y-77708085D01*
X175655521Y-77813497D01*
X175658424Y-77820227D01*
X175884815Y-78390088D01*
X175887322Y-78396975D01*
X175997408Y-78729195D01*
X176079657Y-78977407D01*
X176080201Y-78979050D01*
X176082302Y-78986068D01*
X176107948Y-79081779D01*
X176241008Y-79578369D01*
X176242698Y-79585500D01*
X176256075Y-79650285D01*
X176366698Y-80186029D01*
X176367966Y-80193221D01*
X176384716Y-80307570D01*
X176456838Y-80799948D01*
X176457689Y-80807227D01*
X176474696Y-81001614D01*
X176498465Y-81273291D01*
X176511133Y-81418091D01*
X176511558Y-81425399D01*
X176527037Y-81957328D01*
X176528192Y-81997031D01*
X176526744Y-82020085D01*
X176525690Y-82026850D01*
X176525690Y-82026856D01*
X176524309Y-82035724D01*
X176525473Y-82044626D01*
X176525473Y-82044628D01*
X176528436Y-82067283D01*
X176529500Y-82083621D01*
X176529500Y-112980633D01*
X176528000Y-113000018D01*
X176525690Y-113014851D01*
X176525690Y-113014855D01*
X176524309Y-113023724D01*
X176527399Y-113047352D01*
X176527402Y-113047374D01*
X176528413Y-113067376D01*
X176512193Y-113624820D01*
X176511559Y-113646592D01*
X176511133Y-113653901D01*
X176495516Y-113832406D01*
X176457689Y-114264773D01*
X176456838Y-114272052D01*
X176453228Y-114296700D01*
X176370410Y-114862099D01*
X176367968Y-114878769D01*
X176366698Y-114885971D01*
X176296429Y-115226285D01*
X176242698Y-115486500D01*
X176241008Y-115493631D01*
X176082303Y-116085928D01*
X176080202Y-116092945D01*
X176063864Y-116142252D01*
X175887322Y-116675025D01*
X175884815Y-116681912D01*
X175658424Y-117251773D01*
X175655521Y-117258503D01*
X175396372Y-117814249D01*
X175393082Y-117820799D01*
X175102069Y-118360517D01*
X175098405Y-118366864D01*
X174776489Y-118888769D01*
X174772461Y-118894893D01*
X174420750Y-119397189D01*
X174416380Y-119403059D01*
X174385546Y-119442055D01*
X174036050Y-119884064D01*
X174031339Y-119889678D01*
X173623691Y-120347749D01*
X173618661Y-120353080D01*
X173185080Y-120786661D01*
X173179749Y-120791691D01*
X172721678Y-121199339D01*
X172716064Y-121204050D01*
X172600483Y-121295440D01*
X172235059Y-121584380D01*
X172229198Y-121588744D01*
X171886520Y-121828689D01*
X171726893Y-121940461D01*
X171720769Y-121944489D01*
X171198864Y-122266405D01*
X171192517Y-122270069D01*
X170652799Y-122561082D01*
X170646249Y-122564372D01*
X170090503Y-122823521D01*
X170083773Y-122826424D01*
X169513912Y-123052815D01*
X169507025Y-123055322D01*
X168924950Y-123248201D01*
X168917928Y-123250303D01*
X168325631Y-123409008D01*
X168318500Y-123410698D01*
X168093204Y-123457218D01*
X167717971Y-123534698D01*
X167710779Y-123535966D01*
X167291959Y-123597314D01*
X167104052Y-123624838D01*
X167096773Y-123625689D01*
X166857511Y-123646622D01*
X166485901Y-123679133D01*
X166478601Y-123679558D01*
X165906966Y-123696192D01*
X165883915Y-123694744D01*
X165877150Y-123693690D01*
X165877144Y-123693690D01*
X165868276Y-123692309D01*
X165859374Y-123693473D01*
X165859372Y-123693473D01*
X165844623Y-123695402D01*
X165836714Y-123696436D01*
X165820379Y-123697500D01*
X99363367Y-123697500D01*
X99343982Y-123696000D01*
X99329149Y-123693690D01*
X99329145Y-123693690D01*
X99320276Y-123692309D01*
X99296625Y-123695402D01*
X99276624Y-123696413D01*
X98697399Y-123679558D01*
X98690099Y-123679133D01*
X98318489Y-123646622D01*
X98079227Y-123625689D01*
X98071948Y-123624838D01*
X97884041Y-123597314D01*
X97465221Y-123535966D01*
X97458029Y-123534698D01*
X97082796Y-123457218D01*
X96857500Y-123410698D01*
X96850369Y-123409008D01*
X96258072Y-123250303D01*
X96251050Y-123248201D01*
X95668975Y-123055322D01*
X95662088Y-123052815D01*
X95092227Y-122826424D01*
X95085497Y-122823521D01*
X94529751Y-122564372D01*
X94523201Y-122561082D01*
X93983483Y-122270069D01*
X93977136Y-122266405D01*
X93455231Y-121944489D01*
X93449107Y-121940461D01*
X93289480Y-121828689D01*
X92946802Y-121588744D01*
X92940941Y-121584380D01*
X92575517Y-121295440D01*
X92459936Y-121204050D01*
X92454322Y-121199339D01*
X92369664Y-121124000D01*
X144502578Y-121124000D01*
X144522228Y-121348600D01*
X144580581Y-121566376D01*
X144675864Y-121770711D01*
X144805181Y-121955396D01*
X144964604Y-122114819D01*
X145149289Y-122244136D01*
X145154267Y-122246457D01*
X145154270Y-122246459D01*
X145204902Y-122270069D01*
X145353624Y-122339419D01*
X145358932Y-122340841D01*
X145358934Y-122340842D01*
X145566085Y-122396348D01*
X145566087Y-122396348D01*
X145571400Y-122397772D01*
X145796000Y-122417422D01*
X146020600Y-122397772D01*
X146025913Y-122396348D01*
X146025915Y-122396348D01*
X146233066Y-122340842D01*
X146233068Y-122340841D01*
X146238376Y-122339419D01*
X146387098Y-122270069D01*
X146437730Y-122246459D01*
X146437733Y-122246457D01*
X146442711Y-122244136D01*
X146627396Y-122114819D01*
X146786819Y-121955396D01*
X146916136Y-121770711D01*
X147011419Y-121566376D01*
X147069772Y-121348600D01*
X147089422Y-121124000D01*
X147069772Y-120899400D01*
X147048226Y-120818990D01*
X147012842Y-120686934D01*
X147012841Y-120686932D01*
X147011419Y-120681624D01*
X146952027Y-120554257D01*
X146918459Y-120482270D01*
X146918457Y-120482267D01*
X146916136Y-120477289D01*
X146786819Y-120292604D01*
X146627396Y-120133181D01*
X146442711Y-120003864D01*
X146437733Y-120001543D01*
X146437730Y-120001541D01*
X146310951Y-119942423D01*
X168966703Y-119942423D01*
X168974227Y-119952854D01*
X169113483Y-120065020D01*
X169119657Y-120069408D01*
X169390271Y-120238178D01*
X169396931Y-120241794D01*
X169685852Y-120376827D01*
X169692905Y-120379620D01*
X169995970Y-120478970D01*
X170003282Y-120480888D01*
X170316092Y-120543109D01*
X170323590Y-120544137D01*
X170641610Y-120568328D01*
X170649173Y-120568446D01*
X170967785Y-120554257D01*
X170975326Y-120553465D01*
X171289924Y-120501101D01*
X171297302Y-120499411D01*
X171603355Y-120409625D01*
X171610450Y-120407071D01*
X171903496Y-120281169D01*
X171910263Y-120277765D01*
X172186042Y-120117580D01*
X172192349Y-120113390D01*
X172402305Y-119954889D01*
X172410761Y-119943496D01*
X172404045Y-119931256D01*
X170700810Y-118228020D01*
X170686869Y-118220408D01*
X170685034Y-118220539D01*
X170678420Y-118224790D01*
X168973818Y-119929393D01*
X168966703Y-119942423D01*
X146310951Y-119942423D01*
X146243358Y-119910904D01*
X146243357Y-119910903D01*
X146238376Y-119908581D01*
X146233068Y-119907159D01*
X146233066Y-119907158D01*
X146025915Y-119851652D01*
X146025913Y-119851652D01*
X146020600Y-119850228D01*
X145796000Y-119830578D01*
X145571400Y-119850228D01*
X145566087Y-119851652D01*
X145566085Y-119851652D01*
X145358934Y-119907158D01*
X145358932Y-119907159D01*
X145353624Y-119908581D01*
X145348643Y-119910903D01*
X145348642Y-119910904D01*
X145154270Y-120001541D01*
X145154267Y-120001543D01*
X145149289Y-120003864D01*
X144964604Y-120133181D01*
X144805181Y-120292604D01*
X144675864Y-120477289D01*
X144673543Y-120482267D01*
X144673541Y-120482270D01*
X144639973Y-120554257D01*
X144580581Y-120681624D01*
X144579159Y-120686932D01*
X144579158Y-120686934D01*
X144543774Y-120818990D01*
X144522228Y-120899400D01*
X144502578Y-121124000D01*
X92369664Y-121124000D01*
X91996251Y-120791691D01*
X91990920Y-120786661D01*
X91557339Y-120353080D01*
X91552309Y-120347749D01*
X91191600Y-119942423D01*
X92766703Y-119942423D01*
X92774227Y-119952854D01*
X92913483Y-120065020D01*
X92919657Y-120069408D01*
X93190271Y-120238178D01*
X93196931Y-120241794D01*
X93485852Y-120376827D01*
X93492905Y-120379620D01*
X93795970Y-120478970D01*
X93803282Y-120480888D01*
X94116092Y-120543109D01*
X94123590Y-120544137D01*
X94441610Y-120568328D01*
X94449173Y-120568446D01*
X94767785Y-120554257D01*
X94775326Y-120553465D01*
X95089924Y-120501101D01*
X95097302Y-120499411D01*
X95403355Y-120409625D01*
X95410450Y-120407071D01*
X95703496Y-120281169D01*
X95710263Y-120277765D01*
X95986042Y-120117580D01*
X95992349Y-120113390D01*
X96202305Y-119954889D01*
X96210761Y-119943496D01*
X96204045Y-119931256D01*
X94500810Y-118228020D01*
X94486869Y-118220408D01*
X94485034Y-118220539D01*
X94478420Y-118224790D01*
X92773818Y-119929393D01*
X92766703Y-119942423D01*
X91191600Y-119942423D01*
X91144661Y-119889678D01*
X91139950Y-119884064D01*
X90790454Y-119442055D01*
X90759620Y-119403059D01*
X90755250Y-119397189D01*
X90403539Y-118894893D01*
X90399511Y-118888769D01*
X90077595Y-118366864D01*
X90073931Y-118360517D01*
X89788625Y-117831383D01*
X91775388Y-117831383D01*
X91791245Y-118149914D01*
X91792076Y-118157443D01*
X91846085Y-118471759D01*
X91847818Y-118479146D01*
X91939196Y-118784695D01*
X91941799Y-118791808D01*
X92069227Y-119084173D01*
X92072669Y-119090929D01*
X92234296Y-119365865D01*
X92238519Y-119372150D01*
X92389463Y-119569934D01*
X92400989Y-119578396D01*
X92413054Y-119571735D01*
X94115980Y-117868810D01*
X94122357Y-117857131D01*
X94852408Y-117857131D01*
X94852539Y-117858966D01*
X94856790Y-117865580D01*
X96561285Y-119570074D01*
X96574408Y-119577240D01*
X96584709Y-119569851D01*
X96688751Y-119442055D01*
X96693164Y-119435914D01*
X96863349Y-119166187D01*
X96867005Y-119159536D01*
X97003544Y-118871335D01*
X97006375Y-118864295D01*
X97107306Y-118561767D01*
X97109270Y-118554433D01*
X97173122Y-118241989D01*
X97174194Y-118234465D01*
X97200173Y-117915051D01*
X97200378Y-117910576D01*
X97200927Y-117858221D01*
X97200817Y-117853789D01*
X97199466Y-117831383D01*
X167975388Y-117831383D01*
X167991245Y-118149914D01*
X167992076Y-118157443D01*
X168046085Y-118471759D01*
X168047818Y-118479146D01*
X168139196Y-118784695D01*
X168141799Y-118791808D01*
X168269227Y-119084173D01*
X168272669Y-119090929D01*
X168434296Y-119365865D01*
X168438519Y-119372150D01*
X168589463Y-119569934D01*
X168600989Y-119578396D01*
X168613054Y-119571735D01*
X170315980Y-117868810D01*
X170322357Y-117857131D01*
X171052408Y-117857131D01*
X171052539Y-117858966D01*
X171056790Y-117865580D01*
X172761285Y-119570074D01*
X172774408Y-119577240D01*
X172784709Y-119569851D01*
X172888751Y-119442055D01*
X172893164Y-119435914D01*
X173063349Y-119166187D01*
X173067005Y-119159536D01*
X173203544Y-118871335D01*
X173206375Y-118864295D01*
X173307306Y-118561767D01*
X173309270Y-118554433D01*
X173373122Y-118241989D01*
X173374194Y-118234465D01*
X173400173Y-117915051D01*
X173400378Y-117910576D01*
X173400927Y-117858221D01*
X173400817Y-117853789D01*
X173381529Y-117533853D01*
X173380621Y-117526351D01*
X173323319Y-117212593D01*
X173321518Y-117205260D01*
X173226935Y-116900655D01*
X173224263Y-116893583D01*
X173093781Y-116602570D01*
X173090264Y-116595843D01*
X172925771Y-116322621D01*
X172921481Y-116316377D01*
X172785991Y-116142647D01*
X172774199Y-116134178D01*
X172762486Y-116140725D01*
X171060020Y-117843190D01*
X171052408Y-117857131D01*
X170322357Y-117857131D01*
X170323592Y-117854869D01*
X170323461Y-117853034D01*
X170319210Y-117846420D01*
X168614445Y-116141656D01*
X168601510Y-116134592D01*
X168590949Y-116142252D01*
X168470766Y-116293072D01*
X168466410Y-116299270D01*
X168299059Y-116570764D01*
X168295479Y-116577440D01*
X168161956Y-116867074D01*
X168159206Y-116874125D01*
X168061444Y-117177708D01*
X168059561Y-117185041D01*
X167998979Y-117498170D01*
X167997992Y-117505670D01*
X167975467Y-117823802D01*
X167975388Y-117831383D01*
X97199466Y-117831383D01*
X97181529Y-117533853D01*
X97180621Y-117526351D01*
X97123319Y-117212593D01*
X97121518Y-117205260D01*
X97026935Y-116900655D01*
X97024263Y-116893583D01*
X96893781Y-116602570D01*
X96890264Y-116595843D01*
X96725771Y-116322621D01*
X96721481Y-116316377D01*
X96585991Y-116142647D01*
X96574199Y-116134178D01*
X96562486Y-116140725D01*
X94860020Y-117843190D01*
X94852408Y-117857131D01*
X94122357Y-117857131D01*
X94123592Y-117854869D01*
X94123461Y-117853034D01*
X94119210Y-117846420D01*
X92414445Y-116141656D01*
X92401510Y-116134592D01*
X92390949Y-116142252D01*
X92270766Y-116293072D01*
X92266410Y-116299270D01*
X92099059Y-116570764D01*
X92095479Y-116577440D01*
X91961956Y-116867074D01*
X91959206Y-116874125D01*
X91861444Y-117177708D01*
X91859561Y-117185041D01*
X91798979Y-117498170D01*
X91797992Y-117505670D01*
X91775467Y-117823802D01*
X91775388Y-117831383D01*
X89788625Y-117831383D01*
X89782918Y-117820799D01*
X89779628Y-117814249D01*
X89520479Y-117258503D01*
X89517576Y-117251773D01*
X89291185Y-116681912D01*
X89288678Y-116675025D01*
X89112136Y-116142252D01*
X89095798Y-116092945D01*
X89093697Y-116085928D01*
X89008890Y-115769423D01*
X92765917Y-115769423D01*
X92772520Y-115781309D01*
X94475190Y-117483980D01*
X94489131Y-117491592D01*
X94490966Y-117491461D01*
X94497580Y-117487210D01*
X96202559Y-115782230D01*
X96209571Y-115769389D01*
X96201777Y-115758701D01*
X96039298Y-115630613D01*
X96033075Y-115626288D01*
X95760702Y-115460357D01*
X95754025Y-115456822D01*
X95463686Y-115324813D01*
X95456616Y-115322099D01*
X95152537Y-115225932D01*
X95145186Y-115224085D01*
X94831746Y-115165142D01*
X94824237Y-115164194D01*
X94505989Y-115143335D01*
X94498424Y-115143295D01*
X94179964Y-115160821D01*
X94172450Y-115161690D01*
X93858405Y-115217348D01*
X93851044Y-115219115D01*
X93545980Y-115312092D01*
X93538860Y-115314740D01*
X93247182Y-115443690D01*
X93240445Y-115447167D01*
X92966355Y-115610233D01*
X92960091Y-115614490D01*
X92774385Y-115757762D01*
X92765917Y-115769423D01*
X89008890Y-115769423D01*
X88934992Y-115493631D01*
X88933302Y-115486500D01*
X88879571Y-115226285D01*
X88809302Y-114885971D01*
X88808032Y-114878769D01*
X88805591Y-114862099D01*
X88723255Y-114300000D01*
X128554835Y-114300000D01*
X128573465Y-114536711D01*
X128574619Y-114541518D01*
X128574620Y-114541524D01*
X128591336Y-114611149D01*
X128628895Y-114767594D01*
X128630788Y-114772165D01*
X128630789Y-114772167D01*
X128712748Y-114970034D01*
X128719760Y-114986963D01*
X128722346Y-114991183D01*
X128841241Y-115185202D01*
X128841245Y-115185208D01*
X128843824Y-115189416D01*
X128998031Y-115369969D01*
X129178584Y-115524176D01*
X129182792Y-115526755D01*
X129182798Y-115526759D01*
X129376817Y-115645654D01*
X129381037Y-115648240D01*
X129385607Y-115650133D01*
X129385611Y-115650135D01*
X129571377Y-115727081D01*
X129600406Y-115739105D01*
X129648349Y-115750615D01*
X129826476Y-115793380D01*
X129826482Y-115793381D01*
X129831289Y-115794535D01*
X130068000Y-115813165D01*
X130304711Y-115794535D01*
X130309518Y-115793381D01*
X130309524Y-115793380D01*
X130487651Y-115750615D01*
X130535594Y-115739105D01*
X130564623Y-115727081D01*
X130750389Y-115650135D01*
X130750393Y-115650133D01*
X130754963Y-115648240D01*
X130759183Y-115645654D01*
X130953202Y-115526759D01*
X130953208Y-115526755D01*
X130957416Y-115524176D01*
X131137969Y-115369969D01*
X131156618Y-115348134D01*
X136159500Y-115348134D01*
X136166255Y-115410316D01*
X136217385Y-115546705D01*
X136304739Y-115663261D01*
X136421295Y-115750615D01*
X136557684Y-115801745D01*
X136619866Y-115808500D01*
X138716134Y-115808500D01*
X138778316Y-115801745D01*
X138914705Y-115750615D01*
X139031261Y-115663261D01*
X139118615Y-115546705D01*
X139169745Y-115410316D01*
X139176500Y-115348134D01*
X139176500Y-113251866D01*
X139169745Y-113189684D01*
X139118615Y-113053295D01*
X139031261Y-112936739D01*
X138914705Y-112849385D01*
X138778316Y-112798255D01*
X138716134Y-112791500D01*
X138427500Y-112791500D01*
X138359379Y-112771498D01*
X138312886Y-112717842D01*
X138301500Y-112665500D01*
X138301500Y-109820594D01*
X138321502Y-109752473D01*
X138338405Y-109731499D01*
X140144499Y-107925405D01*
X140206811Y-107891379D01*
X140233594Y-107888500D01*
X140894400Y-107888500D01*
X140897646Y-107888163D01*
X140897650Y-107888163D01*
X140993308Y-107878238D01*
X140993312Y-107878237D01*
X141000166Y-107877526D01*
X141006702Y-107875345D01*
X141006704Y-107875345D01*
X141160998Y-107823868D01*
X141167946Y-107821550D01*
X141318348Y-107728478D01*
X141404784Y-107641891D01*
X141467066Y-107607812D01*
X141537886Y-107612815D01*
X141582975Y-107641736D01*
X141652574Y-107711214D01*
X141670697Y-107729305D01*
X141676927Y-107733145D01*
X141676928Y-107733146D01*
X141800616Y-107809389D01*
X141848110Y-107862162D01*
X141860500Y-107916649D01*
X141860500Y-111295120D01*
X141840498Y-111363241D01*
X141800803Y-111402264D01*
X141685652Y-111473522D01*
X141560695Y-111598697D01*
X141556855Y-111604927D01*
X141556854Y-111604928D01*
X141517067Y-111669475D01*
X141467885Y-111749262D01*
X141465581Y-111756209D01*
X141424222Y-111880904D01*
X141412203Y-111917139D01*
X141401500Y-112021600D01*
X141401500Y-113022400D01*
X141401837Y-113025646D01*
X141401837Y-113025650D01*
X141406167Y-113067378D01*
X141412474Y-113128166D01*
X141414655Y-113134702D01*
X141414655Y-113134704D01*
X141432998Y-113189684D01*
X141468450Y-113295946D01*
X141561522Y-113446348D01*
X141686697Y-113571305D01*
X141692927Y-113575145D01*
X141692928Y-113575146D01*
X141830090Y-113659694D01*
X141837262Y-113664115D01*
X141901474Y-113685413D01*
X141998611Y-113717632D01*
X141998613Y-113717632D01*
X142005139Y-113719797D01*
X142011975Y-113720497D01*
X142011978Y-113720498D01*
X142055031Y-113724909D01*
X142109600Y-113730500D01*
X142910400Y-113730500D01*
X142913646Y-113730163D01*
X142913650Y-113730163D01*
X143009308Y-113720238D01*
X143009312Y-113720237D01*
X143016166Y-113719526D01*
X143022702Y-113717345D01*
X143022704Y-113717345D01*
X143154806Y-113673272D01*
X143183946Y-113663550D01*
X143334348Y-113570478D01*
X143420784Y-113483891D01*
X143483066Y-113449812D01*
X143553886Y-113454815D01*
X143598975Y-113483736D01*
X143677913Y-113562537D01*
X143711992Y-113624820D01*
X143706989Y-113695640D01*
X143677990Y-113740805D01*
X142903747Y-114515048D01*
X142895461Y-114522588D01*
X142888982Y-114526700D01*
X142883557Y-114532477D01*
X142842357Y-114576351D01*
X142839602Y-114579193D01*
X142819865Y-114598930D01*
X142817385Y-114602127D01*
X142809682Y-114611147D01*
X142779414Y-114643379D01*
X142775595Y-114650325D01*
X142775593Y-114650328D01*
X142769652Y-114661134D01*
X142758801Y-114677653D01*
X142746386Y-114693659D01*
X142743241Y-114700928D01*
X142743238Y-114700932D01*
X142728826Y-114734237D01*
X142723604Y-114744896D01*
X142709694Y-114770199D01*
X142659350Y-114820259D01*
X142599279Y-114835500D01*
X142467866Y-114835500D01*
X142405684Y-114842255D01*
X142269295Y-114893385D01*
X142152739Y-114980739D01*
X142065385Y-115097295D01*
X142014255Y-115233684D01*
X142007500Y-115295866D01*
X142007500Y-116952134D01*
X142014255Y-117014316D01*
X142065385Y-117150705D01*
X142152739Y-117267261D01*
X142269295Y-117354615D01*
X142405684Y-117405745D01*
X142467866Y-117412500D01*
X144124134Y-117412500D01*
X144186316Y-117405745D01*
X144322705Y-117354615D01*
X144439261Y-117267261D01*
X144526615Y-117150705D01*
X144577745Y-117014316D01*
X144584500Y-116952134D01*
X144584500Y-115295866D01*
X144577745Y-115233684D01*
X144526615Y-115097295D01*
X144439261Y-114980739D01*
X144432081Y-114975358D01*
X144425731Y-114969008D01*
X144427598Y-114967141D01*
X144393345Y-114921325D01*
X144388324Y-114850506D01*
X144422333Y-114788271D01*
X144902247Y-114308357D01*
X144910537Y-114300813D01*
X144917018Y-114296700D01*
X144963659Y-114247032D01*
X144966413Y-114244191D01*
X144986134Y-114224470D01*
X144988612Y-114221275D01*
X144996318Y-114212253D01*
X145021158Y-114185801D01*
X145026586Y-114180021D01*
X145036346Y-114162268D01*
X145047199Y-114145745D01*
X145054753Y-114136006D01*
X145059613Y-114129741D01*
X145077176Y-114089157D01*
X145082383Y-114078527D01*
X145103695Y-114039760D01*
X145105666Y-114032083D01*
X145105668Y-114032078D01*
X145108732Y-114020142D01*
X145115138Y-114001430D01*
X145120033Y-113990119D01*
X145123181Y-113982845D01*
X145124421Y-113975017D01*
X145124423Y-113975010D01*
X145130099Y-113939176D01*
X145132505Y-113927556D01*
X145141528Y-113892411D01*
X145141528Y-113892410D01*
X145143500Y-113884730D01*
X145143500Y-113864476D01*
X145145051Y-113844765D01*
X145146980Y-113832586D01*
X145148220Y-113824757D01*
X145144059Y-113780738D01*
X145143500Y-113768881D01*
X145143500Y-113758781D01*
X145163502Y-113690660D01*
X145203197Y-113651637D01*
X145328120Y-113574332D01*
X145334348Y-113570478D01*
X145459305Y-113445303D01*
X145552115Y-113294738D01*
X145554420Y-113287787D01*
X145554795Y-113286984D01*
X145601710Y-113233698D01*
X145669987Y-113214235D01*
X145737948Y-113234775D01*
X145783091Y-113286778D01*
X145784134Y-113289005D01*
X145786450Y-113295946D01*
X145879522Y-113446348D01*
X146004697Y-113571305D01*
X146010927Y-113575145D01*
X146010928Y-113575146D01*
X146134616Y-113651389D01*
X146182110Y-113704162D01*
X146194500Y-113758649D01*
X146194500Y-114577233D01*
X146193973Y-114588416D01*
X146192298Y-114595909D01*
X146192547Y-114603835D01*
X146192547Y-114603836D01*
X146194438Y-114663986D01*
X146194500Y-114667945D01*
X146194500Y-114695856D01*
X146194997Y-114699790D01*
X146194997Y-114699791D01*
X146195005Y-114699856D01*
X146195938Y-114711693D01*
X146197327Y-114755889D01*
X146202485Y-114773643D01*
X146202978Y-114775339D01*
X146206987Y-114794700D01*
X146209526Y-114814797D01*
X146212445Y-114822168D01*
X146212445Y-114822170D01*
X146225804Y-114855912D01*
X146229649Y-114867142D01*
X146237273Y-114893385D01*
X146241982Y-114909593D01*
X146246015Y-114916412D01*
X146246017Y-114916417D01*
X146252293Y-114927028D01*
X146260988Y-114944776D01*
X146268448Y-114963617D01*
X146273110Y-114970033D01*
X146273110Y-114970034D01*
X146294436Y-114999387D01*
X146300952Y-115009307D01*
X146306268Y-115018295D01*
X146323458Y-115047362D01*
X146337779Y-115061683D01*
X146350619Y-115076716D01*
X146362528Y-115093107D01*
X146368634Y-115098158D01*
X146396605Y-115121298D01*
X146405384Y-115129288D01*
X147003177Y-115727081D01*
X147037203Y-115789393D01*
X147035789Y-115848786D01*
X147023653Y-115894081D01*
X147022228Y-115899400D01*
X147002578Y-116124000D01*
X147022228Y-116348600D01*
X147023652Y-116353913D01*
X147023652Y-116353915D01*
X147055620Y-116473219D01*
X147080581Y-116566376D01*
X147082903Y-116571357D01*
X147082904Y-116571358D01*
X147161339Y-116739561D01*
X147175864Y-116770711D01*
X147305181Y-116955396D01*
X147464604Y-117114819D01*
X147649289Y-117244136D01*
X147654267Y-117246457D01*
X147654270Y-117246459D01*
X147710420Y-117272642D01*
X147853624Y-117339419D01*
X147858932Y-117340841D01*
X147858934Y-117340842D01*
X148066085Y-117396348D01*
X148066087Y-117396348D01*
X148071400Y-117397772D01*
X148296000Y-117417422D01*
X148520600Y-117397772D01*
X148525913Y-117396348D01*
X148525915Y-117396348D01*
X148733066Y-117340842D01*
X148733068Y-117340841D01*
X148738376Y-117339419D01*
X148881580Y-117272642D01*
X148937730Y-117246459D01*
X148937733Y-117246457D01*
X148942711Y-117244136D01*
X149127396Y-117114819D01*
X149286819Y-116955396D01*
X149416136Y-116770711D01*
X149430662Y-116739561D01*
X149509096Y-116571358D01*
X149509097Y-116571357D01*
X149511419Y-116566376D01*
X149536381Y-116473219D01*
X149568348Y-116353915D01*
X149568348Y-116353913D01*
X149569772Y-116348600D01*
X149589422Y-116124000D01*
X149569772Y-115899400D01*
X149556210Y-115848786D01*
X149512842Y-115686934D01*
X149512841Y-115686932D01*
X149511419Y-115681624D01*
X149505798Y-115669569D01*
X149418459Y-115482270D01*
X149418457Y-115482267D01*
X149416136Y-115477289D01*
X149286819Y-115292604D01*
X149127396Y-115133181D01*
X148942711Y-115003864D01*
X148937733Y-115001543D01*
X148937730Y-115001541D01*
X148743358Y-114910904D01*
X148743357Y-114910903D01*
X148738376Y-114908581D01*
X148733068Y-114907159D01*
X148733066Y-114907158D01*
X148525915Y-114851652D01*
X148525913Y-114851652D01*
X148520600Y-114850228D01*
X148296000Y-114830578D01*
X148071400Y-114850228D01*
X148066081Y-114851653D01*
X148066082Y-114851653D01*
X148020787Y-114863789D01*
X147949811Y-114862099D01*
X147899082Y-114831177D01*
X147498405Y-114430500D01*
X147464379Y-114368188D01*
X147461500Y-114341405D01*
X147461500Y-113758781D01*
X147481502Y-113690660D01*
X147521197Y-113651637D01*
X147646120Y-113574332D01*
X147652348Y-113570478D01*
X147738784Y-113483891D01*
X147801066Y-113449812D01*
X147871886Y-113454815D01*
X147916975Y-113483736D01*
X147928988Y-113495728D01*
X148004697Y-113571305D01*
X148010927Y-113575145D01*
X148010928Y-113575146D01*
X148148090Y-113659694D01*
X148155262Y-113664115D01*
X148219474Y-113685413D01*
X148316611Y-113717632D01*
X148316613Y-113717632D01*
X148323139Y-113719797D01*
X148329975Y-113720497D01*
X148329978Y-113720498D01*
X148373031Y-113724909D01*
X148427600Y-113730500D01*
X149228400Y-113730500D01*
X149231646Y-113730163D01*
X149231650Y-113730163D01*
X149327308Y-113720238D01*
X149327312Y-113720237D01*
X149334166Y-113719526D01*
X149340702Y-113717345D01*
X149340704Y-113717345D01*
X149472806Y-113673272D01*
X149501946Y-113663550D01*
X149652348Y-113570478D01*
X149730708Y-113491982D01*
X149792989Y-113457903D01*
X149819880Y-113455000D01*
X150601906Y-113455000D01*
X150670027Y-113475002D01*
X150691001Y-113491905D01*
X152128295Y-114929200D01*
X152162321Y-114991512D01*
X152165200Y-115018295D01*
X152165200Y-116449307D01*
X152162968Y-116472916D01*
X152161425Y-116481006D01*
X152161923Y-116488917D01*
X152164951Y-116537051D01*
X152165200Y-116544962D01*
X152165200Y-116560956D01*
X152167206Y-116576830D01*
X152167948Y-116584690D01*
X152171475Y-116640750D01*
X152173925Y-116648291D01*
X152174021Y-116648587D01*
X152179194Y-116671731D01*
X152179232Y-116672035D01*
X152179233Y-116672040D01*
X152180226Y-116679897D01*
X152183142Y-116687262D01*
X152183143Y-116687266D01*
X152200899Y-116732111D01*
X152203571Y-116739530D01*
X152220936Y-116792975D01*
X152225186Y-116799671D01*
X152225186Y-116799672D01*
X152225350Y-116799931D01*
X152236115Y-116821058D01*
X152236229Y-116821346D01*
X152236232Y-116821351D01*
X152239148Y-116828717D01*
X152243804Y-116835125D01*
X152243807Y-116835131D01*
X152272158Y-116874152D01*
X152276601Y-116880689D01*
X152306700Y-116928118D01*
X152312478Y-116933544D01*
X152312479Y-116933545D01*
X152312707Y-116933759D01*
X152328388Y-116951546D01*
X152333228Y-116958207D01*
X152339337Y-116963261D01*
X152339338Y-116963262D01*
X152376496Y-116994003D01*
X152382430Y-116999234D01*
X152417598Y-117032258D01*
X152417601Y-117032260D01*
X152423379Y-117037686D01*
X152430603Y-117041658D01*
X152450206Y-117054981D01*
X152450446Y-117055180D01*
X152450453Y-117055184D01*
X152456556Y-117060233D01*
X152496100Y-117078841D01*
X152507376Y-117084147D01*
X152514429Y-117087741D01*
X152550201Y-117107407D01*
X152600260Y-117157752D01*
X152615500Y-117217821D01*
X152615500Y-117369234D01*
X152622255Y-117431416D01*
X152673385Y-117567805D01*
X152760739Y-117684361D01*
X152877295Y-117771715D01*
X153013684Y-117822845D01*
X153075866Y-117829600D01*
X154772134Y-117829600D01*
X154834316Y-117822845D01*
X154970705Y-117771715D01*
X155087261Y-117684361D01*
X155174615Y-117567805D01*
X155225745Y-117431416D01*
X155232500Y-117369234D01*
X155232500Y-115769423D01*
X168965917Y-115769423D01*
X168972520Y-115781309D01*
X170675190Y-117483980D01*
X170689131Y-117491592D01*
X170690966Y-117491461D01*
X170697580Y-117487210D01*
X172402559Y-115782230D01*
X172409571Y-115769389D01*
X172401777Y-115758701D01*
X172239298Y-115630613D01*
X172233075Y-115626288D01*
X171960702Y-115460357D01*
X171954025Y-115456822D01*
X171663686Y-115324813D01*
X171656616Y-115322099D01*
X171352537Y-115225932D01*
X171345186Y-115224085D01*
X171031746Y-115165142D01*
X171024237Y-115164194D01*
X170705989Y-115143335D01*
X170698424Y-115143295D01*
X170379964Y-115160821D01*
X170372450Y-115161690D01*
X170058405Y-115217348D01*
X170051044Y-115219115D01*
X169745980Y-115312092D01*
X169738860Y-115314740D01*
X169447182Y-115443690D01*
X169440445Y-115447167D01*
X169166355Y-115610233D01*
X169160091Y-115614490D01*
X168974385Y-115757762D01*
X168965917Y-115769423D01*
X155232500Y-115769423D01*
X155232500Y-115672966D01*
X155225745Y-115610784D01*
X155174615Y-115474395D01*
X155087261Y-115357839D01*
X154970705Y-115270485D01*
X154834316Y-115219355D01*
X154790748Y-115214622D01*
X154775514Y-115212967D01*
X154775511Y-115212967D01*
X154772134Y-115212600D01*
X154768815Y-115212600D01*
X154701890Y-115188947D01*
X154666196Y-115142944D01*
X154664266Y-115143959D01*
X154658558Y-115133100D01*
X154658368Y-115132855D01*
X154658347Y-115132697D01*
X154638356Y-115094666D01*
X153565922Y-114022232D01*
X154288408Y-114022232D01*
X154288539Y-114024065D01*
X154292790Y-114030680D01*
X154998287Y-114736177D01*
X155010062Y-114742607D01*
X155022077Y-114733311D01*
X155057931Y-114682106D01*
X155063414Y-114672611D01*
X155155490Y-114475153D01*
X155159236Y-114464861D01*
X155215625Y-114254412D01*
X155217528Y-114243619D01*
X155236517Y-114026575D01*
X155236517Y-114015625D01*
X155217528Y-113798581D01*
X155215625Y-113787788D01*
X155159236Y-113577339D01*
X155155490Y-113567047D01*
X155063414Y-113369589D01*
X155057931Y-113360094D01*
X155021491Y-113308052D01*
X155011012Y-113299676D01*
X154997566Y-113306744D01*
X154296022Y-114008288D01*
X154288408Y-114022232D01*
X153565922Y-114022232D01*
X152849713Y-113306023D01*
X152837938Y-113299593D01*
X152825923Y-113308889D01*
X152790069Y-113360094D01*
X152784586Y-113369589D01*
X152725767Y-113495728D01*
X152678850Y-113549013D01*
X152610572Y-113568474D01*
X152542613Y-113547932D01*
X152522477Y-113531573D01*
X151924992Y-112934088D01*
X153202576Y-112934088D01*
X153209644Y-112947534D01*
X153911188Y-113649078D01*
X153925132Y-113656692D01*
X153926965Y-113656561D01*
X153933580Y-113652310D01*
X154639077Y-112946813D01*
X154645507Y-112935038D01*
X154636211Y-112923023D01*
X154585006Y-112887169D01*
X154575511Y-112881686D01*
X154378053Y-112789610D01*
X154367761Y-112785864D01*
X154157312Y-112729475D01*
X154146519Y-112727572D01*
X153929475Y-112708583D01*
X153918525Y-112708583D01*
X153701481Y-112727572D01*
X153690688Y-112729475D01*
X153480239Y-112785864D01*
X153469947Y-112789610D01*
X153272489Y-112881686D01*
X153262994Y-112887169D01*
X153210952Y-112923609D01*
X153202576Y-112934088D01*
X151924992Y-112934088D01*
X151901499Y-112910595D01*
X151867473Y-112848283D01*
X151872538Y-112777468D01*
X151901499Y-112732405D01*
X153155201Y-111478704D01*
X154470953Y-110162952D01*
X154479238Y-110155412D01*
X154485718Y-110151300D01*
X154490549Y-110146156D01*
X154555432Y-110118299D01*
X154623757Y-110129199D01*
X154749770Y-110187959D01*
X154749775Y-110187961D01*
X154754757Y-110190284D01*
X154760065Y-110191706D01*
X154760067Y-110191707D01*
X154970598Y-110248119D01*
X154970600Y-110248119D01*
X154975913Y-110249543D01*
X155204000Y-110269498D01*
X155432087Y-110249543D01*
X155437400Y-110248119D01*
X155437402Y-110248119D01*
X155647933Y-110191707D01*
X155647935Y-110191706D01*
X155653243Y-110190284D01*
X155658229Y-110187959D01*
X155855762Y-110095849D01*
X155855767Y-110095846D01*
X155860749Y-110093523D01*
X156048300Y-109962198D01*
X156049601Y-109964056D01*
X156105738Y-109939491D01*
X156175842Y-109950712D01*
X156210779Y-109975383D01*
X156483514Y-110248119D01*
X156734553Y-110499158D01*
X156742087Y-110507437D01*
X156746200Y-110513918D01*
X156762819Y-110529524D01*
X156795851Y-110560543D01*
X156798693Y-110563298D01*
X156818430Y-110583035D01*
X156821627Y-110585515D01*
X156830647Y-110593218D01*
X156862879Y-110623486D01*
X156869825Y-110627305D01*
X156869828Y-110627307D01*
X156880634Y-110633248D01*
X156897153Y-110644099D01*
X156913159Y-110656514D01*
X156920428Y-110659659D01*
X156920432Y-110659662D01*
X156953737Y-110674074D01*
X156964387Y-110679291D01*
X157003140Y-110700595D01*
X157010815Y-110702566D01*
X157010816Y-110702566D01*
X157022762Y-110705633D01*
X157041467Y-110712037D01*
X157060055Y-110720081D01*
X157067878Y-110721320D01*
X157067888Y-110721323D01*
X157103724Y-110726999D01*
X157115344Y-110729405D01*
X157147159Y-110737573D01*
X157158170Y-110740400D01*
X157178424Y-110740400D01*
X157198134Y-110741951D01*
X157218143Y-110745120D01*
X157226035Y-110744374D01*
X157244780Y-110742602D01*
X157262162Y-110740959D01*
X157274019Y-110740400D01*
X158210333Y-110740400D01*
X158221516Y-110740927D01*
X158229009Y-110742602D01*
X158236935Y-110742353D01*
X158236936Y-110742353D01*
X158297086Y-110740462D01*
X158301045Y-110740400D01*
X158328956Y-110740400D01*
X158332891Y-110739903D01*
X158332956Y-110739895D01*
X158344793Y-110738962D01*
X158377051Y-110737948D01*
X158381070Y-110737822D01*
X158388989Y-110737573D01*
X158408443Y-110731921D01*
X158427800Y-110727913D01*
X158440030Y-110726368D01*
X158440031Y-110726368D01*
X158447897Y-110725374D01*
X158455268Y-110722455D01*
X158455270Y-110722455D01*
X158489012Y-110709096D01*
X158500242Y-110705251D01*
X158535083Y-110695129D01*
X158535084Y-110695129D01*
X158542693Y-110692918D01*
X158549512Y-110688885D01*
X158549517Y-110688883D01*
X158560128Y-110682607D01*
X158577876Y-110673912D01*
X158596717Y-110666452D01*
X158632487Y-110640464D01*
X158642407Y-110633948D01*
X158673635Y-110615480D01*
X158673638Y-110615478D01*
X158680462Y-110611442D01*
X158694783Y-110597121D01*
X158709817Y-110584280D01*
X158719794Y-110577031D01*
X158726207Y-110572372D01*
X158731258Y-110566267D01*
X158731263Y-110566262D01*
X158754394Y-110538302D01*
X158762381Y-110529524D01*
X159028274Y-110263631D01*
X159300245Y-109991659D01*
X159362558Y-109957634D01*
X159433373Y-109962698D01*
X159461612Y-109977541D01*
X159627251Y-110093523D01*
X159632233Y-110095846D01*
X159632238Y-110095849D01*
X159829771Y-110187959D01*
X159834757Y-110190284D01*
X159840065Y-110191706D01*
X159840067Y-110191707D01*
X160050598Y-110248119D01*
X160050600Y-110248119D01*
X160055913Y-110249543D01*
X160284000Y-110269498D01*
X160512087Y-110249543D01*
X160517400Y-110248119D01*
X160517402Y-110248119D01*
X160727933Y-110191707D01*
X160727935Y-110191706D01*
X160733243Y-110190284D01*
X160738229Y-110187959D01*
X160935762Y-110095849D01*
X160935767Y-110095846D01*
X160940749Y-110093523D01*
X161082805Y-109994054D01*
X161123789Y-109965357D01*
X161123792Y-109965355D01*
X161128300Y-109962198D01*
X161290198Y-109800300D01*
X161295684Y-109792466D01*
X161418366Y-109617257D01*
X161421523Y-109612749D01*
X161423846Y-109607767D01*
X161423849Y-109607762D01*
X161515961Y-109410225D01*
X161515961Y-109410224D01*
X161518284Y-109405243D01*
X161524206Y-109383144D01*
X161576119Y-109189402D01*
X161576119Y-109189400D01*
X161577543Y-109184087D01*
X161597498Y-108956000D01*
X161577543Y-108727913D01*
X161569028Y-108696135D01*
X161519707Y-108512067D01*
X161519706Y-108512065D01*
X161518284Y-108506757D01*
X161486131Y-108437804D01*
X161423849Y-108304238D01*
X161423846Y-108304233D01*
X161421523Y-108299251D01*
X161348098Y-108194389D01*
X161293357Y-108116211D01*
X161293355Y-108116208D01*
X161290198Y-108111700D01*
X161128300Y-107949802D01*
X161123792Y-107946645D01*
X161123789Y-107946643D01*
X161003137Y-107862162D01*
X160940749Y-107818477D01*
X160935767Y-107816154D01*
X160935762Y-107816151D01*
X160738225Y-107724039D01*
X160738224Y-107724039D01*
X160733243Y-107721716D01*
X160727935Y-107720294D01*
X160727933Y-107720293D01*
X160517402Y-107663881D01*
X160517400Y-107663881D01*
X160512087Y-107662457D01*
X160284000Y-107642502D01*
X160055913Y-107662457D01*
X160050600Y-107663881D01*
X160050598Y-107663881D01*
X159840067Y-107720293D01*
X159840065Y-107720294D01*
X159834757Y-107721716D01*
X159829776Y-107724039D01*
X159829775Y-107724039D01*
X159632238Y-107816151D01*
X159632233Y-107816154D01*
X159627251Y-107818477D01*
X159564863Y-107862162D01*
X159444211Y-107946643D01*
X159444208Y-107946645D01*
X159439700Y-107949802D01*
X159277802Y-108111700D01*
X159274645Y-108116208D01*
X159274643Y-108116211D01*
X159164583Y-108273393D01*
X159109126Y-108317721D01*
X159069282Y-108326873D01*
X159046963Y-108328277D01*
X159046962Y-108328277D01*
X159039050Y-108328775D01*
X159031509Y-108331225D01*
X159031213Y-108331321D01*
X159008069Y-108336494D01*
X159007775Y-108336531D01*
X159004515Y-108336943D01*
X158999900Y-108337526D01*
X158999753Y-108336366D01*
X158936440Y-108334196D01*
X158878063Y-108293789D01*
X158872845Y-108286858D01*
X158753357Y-108116211D01*
X158753355Y-108116208D01*
X158750198Y-108111700D01*
X158588300Y-107949802D01*
X158583792Y-107946645D01*
X158583789Y-107946643D01*
X158428590Y-107837971D01*
X158384262Y-107782514D01*
X158376581Y-107746498D01*
X158376163Y-107746564D01*
X158374923Y-107738737D01*
X158374674Y-107730811D01*
X158372032Y-107721716D01*
X158369021Y-107711352D01*
X158365012Y-107691993D01*
X158364846Y-107690683D01*
X158362474Y-107671903D01*
X158359558Y-107664537D01*
X158359556Y-107664531D01*
X158346200Y-107630798D01*
X158342355Y-107619568D01*
X158332230Y-107584717D01*
X158332230Y-107584716D01*
X158330019Y-107577107D01*
X158319705Y-107559666D01*
X158311008Y-107541913D01*
X158306472Y-107530458D01*
X158303552Y-107523083D01*
X158277563Y-107487312D01*
X158271047Y-107477392D01*
X158260151Y-107458968D01*
X158248542Y-107439338D01*
X158234221Y-107425017D01*
X158221380Y-107409983D01*
X158214131Y-107400006D01*
X158209472Y-107393593D01*
X158175395Y-107365402D01*
X158166616Y-107357412D01*
X154604405Y-103795200D01*
X154570379Y-103732888D01*
X154567500Y-103706105D01*
X154567500Y-103530095D01*
X163867001Y-103530095D01*
X163867338Y-103536614D01*
X163877257Y-103632206D01*
X163880149Y-103645600D01*
X163931588Y-103799784D01*
X163937761Y-103812962D01*
X164023063Y-103950807D01*
X164032099Y-103962208D01*
X164146829Y-104076739D01*
X164158240Y-104085751D01*
X164296243Y-104170816D01*
X164309424Y-104176963D01*
X164463710Y-104228138D01*
X164477086Y-104231005D01*
X164571438Y-104240672D01*
X164577854Y-104241000D01*
X164827885Y-104241000D01*
X164843124Y-104236525D01*
X164844329Y-104235135D01*
X164846000Y-104227452D01*
X164846000Y-104222884D01*
X165354000Y-104222884D01*
X165358475Y-104238123D01*
X165359865Y-104239328D01*
X165367548Y-104240999D01*
X165622095Y-104240999D01*
X165628614Y-104240662D01*
X165724206Y-104230743D01*
X165737600Y-104227851D01*
X165891784Y-104176412D01*
X165904962Y-104170239D01*
X166042807Y-104084937D01*
X166054208Y-104075901D01*
X166168739Y-103961171D01*
X166177751Y-103949760D01*
X166262816Y-103811757D01*
X166268963Y-103798576D01*
X166320138Y-103644290D01*
X166323005Y-103630914D01*
X166332672Y-103536562D01*
X166333000Y-103530146D01*
X166333000Y-103417615D01*
X166328525Y-103402376D01*
X166327135Y-103401171D01*
X166319452Y-103399500D01*
X165372115Y-103399500D01*
X165356876Y-103403975D01*
X165355671Y-103405365D01*
X165354000Y-103413048D01*
X165354000Y-104222884D01*
X164846000Y-104222884D01*
X164846000Y-103417615D01*
X164841525Y-103402376D01*
X164840135Y-103401171D01*
X164832452Y-103399500D01*
X163885116Y-103399500D01*
X163869877Y-103403975D01*
X163868672Y-103405365D01*
X163867001Y-103413048D01*
X163867001Y-103530095D01*
X154567500Y-103530095D01*
X154567500Y-102680745D01*
X154587502Y-102612624D01*
X154641158Y-102566131D01*
X154711432Y-102556027D01*
X154746753Y-102566552D01*
X154749770Y-102567959D01*
X154749775Y-102567961D01*
X154754757Y-102570284D01*
X154760065Y-102571706D01*
X154760067Y-102571707D01*
X154970598Y-102628119D01*
X154970600Y-102628119D01*
X154975913Y-102629543D01*
X155204000Y-102649498D01*
X155432087Y-102629543D01*
X155437400Y-102628119D01*
X155437402Y-102628119D01*
X155647933Y-102571707D01*
X155647935Y-102571706D01*
X155653243Y-102570284D01*
X155658229Y-102567959D01*
X155855762Y-102475849D01*
X155855767Y-102475846D01*
X155860749Y-102473523D01*
X155965611Y-102400098D01*
X156043789Y-102345357D01*
X156043792Y-102345355D01*
X156048300Y-102342198D01*
X156210198Y-102180300D01*
X156341523Y-101992749D01*
X156343846Y-101987767D01*
X156343849Y-101987762D01*
X156359805Y-101953543D01*
X156406722Y-101900258D01*
X156474999Y-101880797D01*
X156542959Y-101901339D01*
X156588195Y-101953543D01*
X156604151Y-101987762D01*
X156604154Y-101987767D01*
X156606477Y-101992749D01*
X156737802Y-102180300D01*
X156899700Y-102342198D01*
X156904208Y-102345355D01*
X156904211Y-102345357D01*
X156982389Y-102400098D01*
X157087251Y-102473523D01*
X157092233Y-102475846D01*
X157092238Y-102475849D01*
X157289771Y-102567959D01*
X157294757Y-102570284D01*
X157300065Y-102571706D01*
X157300067Y-102571707D01*
X157510598Y-102628119D01*
X157510600Y-102628119D01*
X157515913Y-102629543D01*
X157744000Y-102649498D01*
X157972087Y-102629543D01*
X157977400Y-102628119D01*
X157977402Y-102628119D01*
X158187933Y-102571707D01*
X158187935Y-102571706D01*
X158193243Y-102570284D01*
X158198229Y-102567959D01*
X158395762Y-102475849D01*
X158395767Y-102475846D01*
X158400749Y-102473523D01*
X158505611Y-102400098D01*
X158583789Y-102345357D01*
X158583792Y-102345355D01*
X158588300Y-102342198D01*
X158750198Y-102180300D01*
X158881523Y-101992749D01*
X158883846Y-101987767D01*
X158883849Y-101987762D01*
X158899805Y-101953543D01*
X158946722Y-101900258D01*
X159014999Y-101880797D01*
X159082959Y-101901339D01*
X159128195Y-101953543D01*
X159144151Y-101987762D01*
X159144154Y-101987767D01*
X159146477Y-101992749D01*
X159277802Y-102180300D01*
X159439700Y-102342198D01*
X159444208Y-102345355D01*
X159444211Y-102345357D01*
X159522389Y-102400098D01*
X159627251Y-102473523D01*
X159632233Y-102475846D01*
X159632238Y-102475849D01*
X159829771Y-102567959D01*
X159834757Y-102570284D01*
X159840065Y-102571706D01*
X159840067Y-102571707D01*
X160050598Y-102628119D01*
X160050600Y-102628119D01*
X160055913Y-102629543D01*
X160284000Y-102649498D01*
X160512087Y-102629543D01*
X160517400Y-102628119D01*
X160517402Y-102628119D01*
X160727933Y-102571707D01*
X160727935Y-102571706D01*
X160733243Y-102570284D01*
X160738229Y-102567959D01*
X160935762Y-102475849D01*
X160935767Y-102475846D01*
X160940749Y-102473523D01*
X161045611Y-102400098D01*
X161123789Y-102345357D01*
X161123792Y-102345355D01*
X161128300Y-102342198D01*
X161290198Y-102180300D01*
X161299861Y-102166500D01*
X161400181Y-102023229D01*
X161455638Y-101978901D01*
X161503394Y-101969500D01*
X164061699Y-101969500D01*
X164129820Y-101989502D01*
X164140424Y-101998039D01*
X164140773Y-101997597D01*
X164146514Y-102002131D01*
X164151697Y-102007305D01*
X164156235Y-102010102D01*
X164196824Y-102067353D01*
X164200054Y-102138276D01*
X164164428Y-102199687D01*
X164155932Y-102207062D01*
X164145793Y-102215098D01*
X164031261Y-102329829D01*
X164022249Y-102341240D01*
X163937184Y-102479243D01*
X163931037Y-102492424D01*
X163879862Y-102646710D01*
X163876995Y-102660086D01*
X163867328Y-102754438D01*
X163867000Y-102760855D01*
X163867000Y-102873385D01*
X163871475Y-102888624D01*
X163872865Y-102889829D01*
X163880548Y-102891500D01*
X166314884Y-102891500D01*
X166330123Y-102887025D01*
X166331328Y-102885635D01*
X166332999Y-102877952D01*
X166332999Y-102760905D01*
X166332662Y-102754386D01*
X166322743Y-102658794D01*
X166319851Y-102645400D01*
X166268412Y-102491216D01*
X166262239Y-102478038D01*
X166176937Y-102340193D01*
X166167901Y-102328792D01*
X166053172Y-102214262D01*
X166044238Y-102207206D01*
X166003177Y-102149288D01*
X165999947Y-102078365D01*
X166035574Y-102016954D01*
X166043407Y-102010154D01*
X166049348Y-102006478D01*
X166174305Y-101881303D01*
X166230447Y-101790225D01*
X166263275Y-101736968D01*
X166263276Y-101736966D01*
X166267115Y-101730738D01*
X166293564Y-101650995D01*
X166320632Y-101569389D01*
X166320632Y-101569387D01*
X166322797Y-101562861D01*
X166333500Y-101458400D01*
X166333500Y-100682600D01*
X166323824Y-100589343D01*
X166323238Y-100583692D01*
X166323237Y-100583688D01*
X166322526Y-100576834D01*
X166266550Y-100409054D01*
X166173478Y-100258652D01*
X166048303Y-100133695D01*
X166041640Y-100129588D01*
X165903968Y-100044725D01*
X165903966Y-100044724D01*
X165897738Y-100040885D01*
X165737254Y-99987655D01*
X165736389Y-99987368D01*
X165736387Y-99987368D01*
X165729861Y-99985203D01*
X165723025Y-99984503D01*
X165723022Y-99984502D01*
X165675693Y-99979653D01*
X165625400Y-99974500D01*
X164574600Y-99974500D01*
X164571354Y-99974837D01*
X164571350Y-99974837D01*
X164475692Y-99984762D01*
X164475688Y-99984763D01*
X164468834Y-99985474D01*
X164462298Y-99987655D01*
X164462296Y-99987655D01*
X164400914Y-100008134D01*
X164301054Y-100041450D01*
X164150652Y-100134522D01*
X164025695Y-100259697D01*
X164021855Y-100265927D01*
X164021854Y-100265928D01*
X163941213Y-100396752D01*
X163932885Y-100410262D01*
X163877203Y-100578139D01*
X163876502Y-100584977D01*
X163876502Y-100584979D01*
X163876055Y-100589343D01*
X163849213Y-100655070D01*
X163791098Y-100695852D01*
X163750711Y-100702500D01*
X161503394Y-100702500D01*
X161435273Y-100682498D01*
X161400181Y-100648771D01*
X161293357Y-100496211D01*
X161293355Y-100496208D01*
X161290198Y-100491700D01*
X161128300Y-100329802D01*
X161123792Y-100326645D01*
X161123789Y-100326643D01*
X161028180Y-100259697D01*
X160940749Y-100198477D01*
X160935767Y-100196154D01*
X160935762Y-100196151D01*
X160738225Y-100104039D01*
X160738224Y-100104039D01*
X160733243Y-100101716D01*
X160727935Y-100100294D01*
X160727933Y-100100293D01*
X160517402Y-100043881D01*
X160517400Y-100043881D01*
X160512087Y-100042457D01*
X160284000Y-100022502D01*
X160055913Y-100042457D01*
X160050600Y-100043881D01*
X160050598Y-100043881D01*
X159840067Y-100100293D01*
X159840065Y-100100294D01*
X159834757Y-100101716D01*
X159829776Y-100104039D01*
X159829775Y-100104039D01*
X159632238Y-100196151D01*
X159632233Y-100196154D01*
X159627251Y-100198477D01*
X159539820Y-100259697D01*
X159444211Y-100326643D01*
X159444208Y-100326645D01*
X159439700Y-100329802D01*
X159277802Y-100491700D01*
X159146477Y-100679251D01*
X159144154Y-100684233D01*
X159144151Y-100684238D01*
X159128195Y-100718457D01*
X159081278Y-100771742D01*
X159013001Y-100791203D01*
X158945041Y-100770661D01*
X158899805Y-100718457D01*
X158883849Y-100684238D01*
X158883846Y-100684233D01*
X158881523Y-100679251D01*
X158750198Y-100491700D01*
X158588300Y-100329802D01*
X158583792Y-100326645D01*
X158583789Y-100326643D01*
X158488180Y-100259697D01*
X158400749Y-100198477D01*
X158395767Y-100196154D01*
X158395762Y-100196151D01*
X158198225Y-100104039D01*
X158198224Y-100104039D01*
X158193243Y-100101716D01*
X158187935Y-100100294D01*
X158187933Y-100100293D01*
X157977402Y-100043881D01*
X157977400Y-100043881D01*
X157972087Y-100042457D01*
X157744000Y-100022502D01*
X157515913Y-100042457D01*
X157510600Y-100043881D01*
X157510598Y-100043881D01*
X157300067Y-100100293D01*
X157300065Y-100100294D01*
X157294757Y-100101716D01*
X157289776Y-100104039D01*
X157289775Y-100104039D01*
X157092238Y-100196151D01*
X157092233Y-100196154D01*
X157087251Y-100198477D01*
X156999820Y-100259697D01*
X156904211Y-100326643D01*
X156904208Y-100326645D01*
X156899700Y-100329802D01*
X156737802Y-100491700D01*
X156606477Y-100679251D01*
X156604154Y-100684233D01*
X156604151Y-100684238D01*
X156588195Y-100718457D01*
X156541278Y-100771742D01*
X156473001Y-100791203D01*
X156405041Y-100770661D01*
X156359805Y-100718457D01*
X156343849Y-100684238D01*
X156343846Y-100684233D01*
X156341523Y-100679251D01*
X156210198Y-100491700D01*
X156048300Y-100329802D01*
X156043792Y-100326645D01*
X156043789Y-100326643D01*
X155948180Y-100259697D01*
X155860749Y-100198477D01*
X155855767Y-100196154D01*
X155855762Y-100196151D01*
X155658225Y-100104039D01*
X155658224Y-100104039D01*
X155653243Y-100101716D01*
X155647935Y-100100294D01*
X155647933Y-100100293D01*
X155437402Y-100043881D01*
X155437400Y-100043881D01*
X155432087Y-100042457D01*
X155204000Y-100022502D01*
X154975913Y-100042457D01*
X154970600Y-100043881D01*
X154970598Y-100043881D01*
X154760067Y-100100293D01*
X154760065Y-100100294D01*
X154754757Y-100101716D01*
X154749776Y-100104039D01*
X154749775Y-100104039D01*
X154552238Y-100196151D01*
X154552233Y-100196154D01*
X154547251Y-100198477D01*
X154359700Y-100329802D01*
X154355810Y-100333692D01*
X154355804Y-100333697D01*
X154342448Y-100347053D01*
X154280136Y-100381079D01*
X154209321Y-100376014D01*
X154164258Y-100347053D01*
X151259252Y-97442047D01*
X151251712Y-97433761D01*
X151247600Y-97427282D01*
X151197948Y-97380656D01*
X151195107Y-97377902D01*
X151175370Y-97358165D01*
X151172173Y-97355685D01*
X151163151Y-97347980D01*
X151149716Y-97335364D01*
X151130921Y-97317714D01*
X151123975Y-97313895D01*
X151123972Y-97313893D01*
X151113166Y-97307952D01*
X151096647Y-97297101D01*
X151096183Y-97296741D01*
X151080641Y-97284686D01*
X151073372Y-97281541D01*
X151073368Y-97281538D01*
X151040063Y-97267126D01*
X151029413Y-97261909D01*
X150990660Y-97240605D01*
X150971037Y-97235567D01*
X150952334Y-97229163D01*
X150941020Y-97224267D01*
X150941019Y-97224267D01*
X150933745Y-97221119D01*
X150925922Y-97219880D01*
X150925912Y-97219877D01*
X150890076Y-97214201D01*
X150878456Y-97211795D01*
X150843311Y-97202772D01*
X150843310Y-97202772D01*
X150835630Y-97200800D01*
X150815376Y-97200800D01*
X150795665Y-97199249D01*
X150793134Y-97198848D01*
X150775657Y-97196080D01*
X150767765Y-97196826D01*
X150731639Y-97200241D01*
X150719781Y-97200800D01*
X141257263Y-97200800D01*
X141246079Y-97200273D01*
X141238591Y-97198599D01*
X141230668Y-97198848D01*
X141170533Y-97200738D01*
X141166575Y-97200800D01*
X141138644Y-97200800D01*
X141134729Y-97201295D01*
X141134725Y-97201295D01*
X141134667Y-97201303D01*
X141134638Y-97201306D01*
X141122796Y-97202239D01*
X141078610Y-97203627D01*
X141061244Y-97208672D01*
X141059158Y-97209278D01*
X141039806Y-97213286D01*
X141027568Y-97214832D01*
X141027566Y-97214833D01*
X141019703Y-97215826D01*
X140978586Y-97232106D01*
X140967385Y-97235941D01*
X140924906Y-97248282D01*
X140918087Y-97252315D01*
X140918082Y-97252317D01*
X140907471Y-97258593D01*
X140889721Y-97267290D01*
X140870883Y-97274748D01*
X140864467Y-97279409D01*
X140864466Y-97279410D01*
X140835125Y-97300728D01*
X140825201Y-97307247D01*
X140793960Y-97325722D01*
X140793955Y-97325726D01*
X140787137Y-97329758D01*
X140772813Y-97344082D01*
X140757781Y-97356921D01*
X140741393Y-97368828D01*
X140713212Y-97402893D01*
X140705222Y-97411673D01*
X140444750Y-97672145D01*
X140382438Y-97706171D01*
X140311426Y-97701032D01*
X140204718Y-97661029D01*
X140204712Y-97661027D01*
X140197316Y-97658255D01*
X140135134Y-97651500D01*
X138238866Y-97651500D01*
X138176684Y-97658255D01*
X138040295Y-97709385D01*
X137923739Y-97796739D01*
X137836385Y-97913295D01*
X137785255Y-98049684D01*
X137778500Y-98111866D01*
X137778500Y-100008134D01*
X137785255Y-100070316D01*
X137836385Y-100206705D01*
X137923739Y-100323261D01*
X138040295Y-100410615D01*
X138176684Y-100461745D01*
X138238866Y-100468500D01*
X140135134Y-100468500D01*
X140197316Y-100461745D01*
X140333705Y-100410615D01*
X140450261Y-100323261D01*
X140537615Y-100206705D01*
X140562180Y-100141178D01*
X140604822Y-100084414D01*
X140671383Y-100059714D01*
X140740732Y-100074921D01*
X140760647Y-100088464D01*
X140825724Y-100142492D01*
X140916349Y-100217730D01*
X141029073Y-100283600D01*
X141031070Y-100284767D01*
X141079794Y-100336405D01*
X141093500Y-100393555D01*
X141093500Y-102592405D01*
X141073498Y-102660526D01*
X141056595Y-102681500D01*
X140843500Y-102894595D01*
X140781188Y-102928621D01*
X140754405Y-102931500D01*
X140093600Y-102931500D01*
X140090354Y-102931837D01*
X140090350Y-102931837D01*
X139994692Y-102941762D01*
X139994688Y-102941763D01*
X139987834Y-102942474D01*
X139981298Y-102944655D01*
X139981296Y-102944655D01*
X139849194Y-102988728D01*
X139820054Y-102998450D01*
X139669652Y-103091522D01*
X139544695Y-103216697D01*
X139540855Y-103222927D01*
X139540854Y-103222928D01*
X139466763Y-103343126D01*
X139451885Y-103367262D01*
X139449581Y-103374209D01*
X139417943Y-103469596D01*
X139396203Y-103535139D01*
X139385500Y-103639600D01*
X139385500Y-104640400D01*
X139396474Y-104746166D01*
X139398655Y-104752702D01*
X139398655Y-104752704D01*
X139414926Y-104801473D01*
X139452450Y-104913946D01*
X139545522Y-105064348D01*
X139670697Y-105189305D01*
X139676927Y-105193145D01*
X139676928Y-105193146D01*
X139814090Y-105277694D01*
X139821262Y-105282115D01*
X139837431Y-105287478D01*
X139846430Y-105290463D01*
X139904791Y-105330893D01*
X139932028Y-105396457D01*
X139919495Y-105466339D01*
X139871171Y-105518351D01*
X139846641Y-105529579D01*
X139827007Y-105536129D01*
X139826997Y-105536133D01*
X139820054Y-105538450D01*
X139669652Y-105631522D01*
X139544695Y-105756697D01*
X139451885Y-105907262D01*
X139396203Y-106075139D01*
X139385500Y-106179600D01*
X139385500Y-106840406D01*
X139365498Y-106908527D01*
X139348595Y-106929501D01*
X138288096Y-107989999D01*
X137275747Y-109002348D01*
X137267461Y-109009888D01*
X137260982Y-109014000D01*
X137255557Y-109019777D01*
X137214357Y-109063651D01*
X137211602Y-109066493D01*
X137191865Y-109086230D01*
X137189385Y-109089427D01*
X137181682Y-109098447D01*
X137151414Y-109130679D01*
X137147595Y-109137625D01*
X137147593Y-109137628D01*
X137141652Y-109148434D01*
X137130801Y-109164953D01*
X137118386Y-109180959D01*
X137115241Y-109188228D01*
X137115238Y-109188232D01*
X137100826Y-109221537D01*
X137095609Y-109232187D01*
X137074305Y-109270940D01*
X137072334Y-109278615D01*
X137072334Y-109278616D01*
X137069267Y-109290562D01*
X137062863Y-109309266D01*
X137054819Y-109327855D01*
X137053580Y-109335678D01*
X137053577Y-109335688D01*
X137047901Y-109371524D01*
X137045495Y-109383144D01*
X137038542Y-109410225D01*
X137034500Y-109425970D01*
X137034500Y-109446224D01*
X137032949Y-109465934D01*
X137029780Y-109485943D01*
X137030526Y-109493835D01*
X137033941Y-109529961D01*
X137034500Y-109541819D01*
X137034500Y-112665500D01*
X137014498Y-112733621D01*
X136960842Y-112780114D01*
X136908500Y-112791500D01*
X136619866Y-112791500D01*
X136557684Y-112798255D01*
X136421295Y-112849385D01*
X136304739Y-112936739D01*
X136217385Y-113053295D01*
X136166255Y-113189684D01*
X136159500Y-113251866D01*
X136159500Y-115348134D01*
X131156618Y-115348134D01*
X131292176Y-115189416D01*
X131294755Y-115185208D01*
X131294759Y-115185202D01*
X131413654Y-114991183D01*
X131416240Y-114986963D01*
X131423253Y-114970034D01*
X131505211Y-114772167D01*
X131505212Y-114772165D01*
X131507105Y-114767594D01*
X131544664Y-114611149D01*
X131561380Y-114541524D01*
X131561381Y-114541518D01*
X131562535Y-114536711D01*
X131581165Y-114300000D01*
X131562535Y-114063289D01*
X131556887Y-114039760D01*
X131508260Y-113837218D01*
X131507105Y-113832406D01*
X131500668Y-113816865D01*
X131418135Y-113617611D01*
X131418133Y-113617607D01*
X131416240Y-113613037D01*
X131393020Y-113575146D01*
X131294759Y-113414798D01*
X131294755Y-113414792D01*
X131292176Y-113410584D01*
X131137969Y-113230031D01*
X130957416Y-113075824D01*
X130953208Y-113073245D01*
X130953202Y-113073241D01*
X130759183Y-112954346D01*
X130754963Y-112951760D01*
X130750393Y-112949867D01*
X130750389Y-112949865D01*
X130540167Y-112862789D01*
X130540165Y-112862788D01*
X130535594Y-112860895D01*
X130455391Y-112841640D01*
X130309524Y-112806620D01*
X130309518Y-112806619D01*
X130304711Y-112805465D01*
X130068000Y-112786835D01*
X129831289Y-112805465D01*
X129826482Y-112806619D01*
X129826476Y-112806620D01*
X129680609Y-112841640D01*
X129600406Y-112860895D01*
X129595835Y-112862788D01*
X129595833Y-112862789D01*
X129385611Y-112949865D01*
X129385607Y-112949867D01*
X129381037Y-112951760D01*
X129376817Y-112954346D01*
X129182798Y-113073241D01*
X129182792Y-113073245D01*
X129178584Y-113075824D01*
X128998031Y-113230031D01*
X128843824Y-113410584D01*
X128841245Y-113414792D01*
X128841241Y-113414798D01*
X128742980Y-113575146D01*
X128719760Y-113613037D01*
X128717867Y-113617607D01*
X128717865Y-113617611D01*
X128635332Y-113816865D01*
X128628895Y-113832406D01*
X128627740Y-113837218D01*
X128579114Y-114039760D01*
X128573465Y-114063289D01*
X128554835Y-114300000D01*
X88723255Y-114300000D01*
X88722772Y-114296700D01*
X88719162Y-114272052D01*
X88718311Y-114264773D01*
X88680484Y-113832406D01*
X88664867Y-113653901D01*
X88664441Y-113646592D01*
X88662339Y-113574332D01*
X88647920Y-113078790D01*
X88649613Y-113054223D01*
X88650769Y-113047352D01*
X88650770Y-113047345D01*
X88651576Y-113042552D01*
X88651729Y-113030000D01*
X88647773Y-113002376D01*
X88646500Y-112984514D01*
X88646500Y-110368703D01*
X96696743Y-110368703D01*
X96697302Y-110372947D01*
X96697302Y-110372951D01*
X96710410Y-110472512D01*
X96734268Y-110653734D01*
X96735401Y-110657874D01*
X96735401Y-110657876D01*
X96749413Y-110709096D01*
X96810129Y-110931036D01*
X96922923Y-111195476D01*
X96934693Y-111215142D01*
X97035004Y-111382749D01*
X97070561Y-111442161D01*
X97250313Y-111666528D01*
X97458851Y-111864423D01*
X97692317Y-112032186D01*
X97696112Y-112034195D01*
X97696113Y-112034196D01*
X97717869Y-112045715D01*
X97946392Y-112166712D01*
X98216373Y-112265511D01*
X98497264Y-112326755D01*
X98525841Y-112329004D01*
X98720282Y-112344307D01*
X98720291Y-112344307D01*
X98722739Y-112344500D01*
X98878271Y-112344500D01*
X98880407Y-112344354D01*
X98880418Y-112344354D01*
X99088548Y-112330165D01*
X99088554Y-112330164D01*
X99092825Y-112329873D01*
X99097020Y-112329004D01*
X99097022Y-112329004D01*
X99233583Y-112300724D01*
X99374342Y-112271574D01*
X99645343Y-112175607D01*
X99900812Y-112043750D01*
X99904313Y-112041289D01*
X99904317Y-112041287D01*
X100082818Y-111915834D01*
X100136023Y-111878441D01*
X100346622Y-111682740D01*
X100528713Y-111460268D01*
X100678927Y-111215142D01*
X100794483Y-110951898D01*
X100873244Y-110675406D01*
X100913751Y-110390784D01*
X100913845Y-110372951D01*
X100913867Y-110368703D01*
X116000743Y-110368703D01*
X116001302Y-110372947D01*
X116001302Y-110372951D01*
X116014410Y-110472512D01*
X116038268Y-110653734D01*
X116039401Y-110657874D01*
X116039401Y-110657876D01*
X116053413Y-110709096D01*
X116114129Y-110931036D01*
X116226923Y-111195476D01*
X116238693Y-111215142D01*
X116339004Y-111382749D01*
X116374561Y-111442161D01*
X116554313Y-111666528D01*
X116762851Y-111864423D01*
X116996317Y-112032186D01*
X117000112Y-112034195D01*
X117000113Y-112034196D01*
X117021869Y-112045715D01*
X117250392Y-112166712D01*
X117520373Y-112265511D01*
X117801264Y-112326755D01*
X117829841Y-112329004D01*
X118024282Y-112344307D01*
X118024291Y-112344307D01*
X118026739Y-112344500D01*
X118182271Y-112344500D01*
X118184407Y-112344354D01*
X118184418Y-112344354D01*
X118392548Y-112330165D01*
X118392554Y-112330164D01*
X118396825Y-112329873D01*
X118401020Y-112329004D01*
X118401022Y-112329004D01*
X118537583Y-112300724D01*
X118678342Y-112271574D01*
X118949343Y-112175607D01*
X119204812Y-112043750D01*
X119208313Y-112041289D01*
X119208317Y-112041287D01*
X119386818Y-111915834D01*
X119440023Y-111878441D01*
X119650622Y-111682740D01*
X119832713Y-111460268D01*
X119982927Y-111215142D01*
X120098483Y-110951898D01*
X120177244Y-110675406D01*
X120217751Y-110390784D01*
X120217845Y-110372951D01*
X120219235Y-110107583D01*
X120219235Y-110107576D01*
X120219257Y-110103297D01*
X120218277Y-110095849D01*
X120199169Y-109950712D01*
X120181732Y-109818266D01*
X120105871Y-109540964D01*
X120045716Y-109399933D01*
X119994763Y-109280476D01*
X119994761Y-109280472D01*
X119993077Y-109276524D01*
X119886501Y-109098449D01*
X119847643Y-109033521D01*
X119847640Y-109033517D01*
X119845439Y-109029839D01*
X119665687Y-108805472D01*
X119457149Y-108607577D01*
X119223683Y-108439814D01*
X119201843Y-108428250D01*
X119141779Y-108396448D01*
X118969608Y-108305288D01*
X118699627Y-108206489D01*
X118418736Y-108145245D01*
X118387685Y-108142801D01*
X118195718Y-108127693D01*
X118195709Y-108127693D01*
X118193261Y-108127500D01*
X118037729Y-108127500D01*
X118035593Y-108127646D01*
X118035582Y-108127646D01*
X117827452Y-108141835D01*
X117827446Y-108141836D01*
X117823175Y-108142127D01*
X117818980Y-108142996D01*
X117818978Y-108142996D01*
X117736434Y-108160090D01*
X117541658Y-108200426D01*
X117270657Y-108296393D01*
X117015188Y-108428250D01*
X117011687Y-108430711D01*
X117011683Y-108430713D01*
X117001594Y-108437804D01*
X116779977Y-108593559D01*
X116569378Y-108789260D01*
X116387287Y-109011732D01*
X116237073Y-109256858D01*
X116235347Y-109260791D01*
X116235346Y-109260792D01*
X116202469Y-109335688D01*
X116121517Y-109520102D01*
X116120342Y-109524229D01*
X116120341Y-109524230D01*
X116117024Y-109535875D01*
X116042756Y-109796594D01*
X116002249Y-110081216D01*
X116002227Y-110085505D01*
X116002226Y-110085512D01*
X116000765Y-110364417D01*
X116000743Y-110368703D01*
X100913867Y-110368703D01*
X100915235Y-110107583D01*
X100915235Y-110107576D01*
X100915257Y-110103297D01*
X100914277Y-110095849D01*
X100895169Y-109950712D01*
X100877732Y-109818266D01*
X100801871Y-109540964D01*
X100741716Y-109399933D01*
X100690763Y-109280476D01*
X100690761Y-109280472D01*
X100689077Y-109276524D01*
X100582501Y-109098449D01*
X100543643Y-109033521D01*
X100543640Y-109033517D01*
X100541439Y-109029839D01*
X100361687Y-108805472D01*
X100153149Y-108607577D01*
X99919683Y-108439814D01*
X99897843Y-108428250D01*
X99837779Y-108396448D01*
X99665608Y-108305288D01*
X99395627Y-108206489D01*
X99114736Y-108145245D01*
X99083685Y-108142801D01*
X98891718Y-108127693D01*
X98891709Y-108127693D01*
X98889261Y-108127500D01*
X98733729Y-108127500D01*
X98731593Y-108127646D01*
X98731582Y-108127646D01*
X98523452Y-108141835D01*
X98523446Y-108141836D01*
X98519175Y-108142127D01*
X98514980Y-108142996D01*
X98514978Y-108142996D01*
X98432434Y-108160090D01*
X98237658Y-108200426D01*
X97966657Y-108296393D01*
X97711188Y-108428250D01*
X97707687Y-108430711D01*
X97707683Y-108430713D01*
X97697594Y-108437804D01*
X97475977Y-108593559D01*
X97265378Y-108789260D01*
X97083287Y-109011732D01*
X96933073Y-109256858D01*
X96931347Y-109260791D01*
X96931346Y-109260792D01*
X96898469Y-109335688D01*
X96817517Y-109520102D01*
X96816342Y-109524229D01*
X96816341Y-109524230D01*
X96813024Y-109535875D01*
X96738756Y-109796594D01*
X96698249Y-110081216D01*
X96698227Y-110085505D01*
X96698226Y-110085512D01*
X96696765Y-110364417D01*
X96696743Y-110368703D01*
X88646500Y-110368703D01*
X88646500Y-90262400D01*
X126177500Y-90262400D01*
X126188474Y-90368166D01*
X126244450Y-90535946D01*
X126337522Y-90686348D01*
X126342704Y-90691521D01*
X126368640Y-90717412D01*
X126462697Y-90811305D01*
X126468927Y-90815145D01*
X126468928Y-90815146D01*
X126606090Y-90899694D01*
X126613262Y-90904115D01*
X126671706Y-90923500D01*
X126774611Y-90957632D01*
X126774613Y-90957632D01*
X126781139Y-90959797D01*
X126787975Y-90960497D01*
X126787978Y-90960498D01*
X126831031Y-90964909D01*
X126885600Y-90970500D01*
X128086400Y-90970500D01*
X128089646Y-90970163D01*
X128089650Y-90970163D01*
X128185308Y-90960238D01*
X128185312Y-90960237D01*
X128192166Y-90959526D01*
X128198702Y-90957345D01*
X128198704Y-90957345D01*
X128330806Y-90913272D01*
X128359946Y-90903550D01*
X128510348Y-90810478D01*
X128635305Y-90685303D01*
X128639146Y-90679072D01*
X128724275Y-90540968D01*
X128724276Y-90540966D01*
X128728115Y-90534738D01*
X128783797Y-90366861D01*
X128794500Y-90262400D01*
X128794500Y-89061600D01*
X128793872Y-89055547D01*
X128784238Y-88962692D01*
X128784237Y-88962688D01*
X128783526Y-88955834D01*
X128774459Y-88928655D01*
X128729868Y-88795002D01*
X128727550Y-88788054D01*
X128634478Y-88637652D01*
X128509303Y-88512695D01*
X128503072Y-88508854D01*
X128364968Y-88423725D01*
X128364966Y-88423724D01*
X128358738Y-88419885D01*
X128278995Y-88393436D01*
X128197389Y-88366368D01*
X128197387Y-88366368D01*
X128190861Y-88364203D01*
X128184025Y-88363503D01*
X128184022Y-88363502D01*
X128140969Y-88359091D01*
X128086400Y-88353500D01*
X126885600Y-88353500D01*
X126882354Y-88353837D01*
X126882350Y-88353837D01*
X126786692Y-88363762D01*
X126786688Y-88363763D01*
X126779834Y-88364474D01*
X126773298Y-88366655D01*
X126773296Y-88366655D01*
X126763627Y-88369881D01*
X126612054Y-88420450D01*
X126461652Y-88513522D01*
X126336695Y-88638697D01*
X126332855Y-88644927D01*
X126332854Y-88644928D01*
X126260248Y-88762717D01*
X126243885Y-88789262D01*
X126227527Y-88838580D01*
X126193327Y-88941692D01*
X126188203Y-88957139D01*
X126187503Y-88963975D01*
X126187502Y-88963978D01*
X126183246Y-89005517D01*
X126177500Y-89061600D01*
X126177500Y-90262400D01*
X88646500Y-90262400D01*
X88646500Y-85730703D01*
X96696743Y-85730703D01*
X96734268Y-86015734D01*
X96810129Y-86293036D01*
X96922923Y-86557476D01*
X96934693Y-86577142D01*
X97063966Y-86793141D01*
X97070561Y-86804161D01*
X97250313Y-87028528D01*
X97458851Y-87226423D01*
X97692317Y-87394186D01*
X97696112Y-87396195D01*
X97696113Y-87396196D01*
X97717869Y-87407715D01*
X97946392Y-87528712D01*
X98216373Y-87627511D01*
X98497264Y-87688755D01*
X98525841Y-87691004D01*
X98720282Y-87706307D01*
X98720291Y-87706307D01*
X98722739Y-87706500D01*
X98878271Y-87706500D01*
X98880407Y-87706354D01*
X98880418Y-87706354D01*
X99088548Y-87692165D01*
X99088554Y-87692164D01*
X99092825Y-87691873D01*
X99097020Y-87691004D01*
X99097022Y-87691004D01*
X99317226Y-87645402D01*
X99374342Y-87633574D01*
X99645343Y-87537607D01*
X99900812Y-87405750D01*
X99904313Y-87403289D01*
X99904317Y-87403287D01*
X100018417Y-87323096D01*
X100136023Y-87240441D01*
X100346622Y-87044740D01*
X100528713Y-86822268D01*
X100678927Y-86577142D01*
X100794483Y-86313898D01*
X100873244Y-86037406D01*
X100913751Y-85752784D01*
X100913845Y-85734951D01*
X100913867Y-85730703D01*
X116000743Y-85730703D01*
X116038268Y-86015734D01*
X116114129Y-86293036D01*
X116226923Y-86557476D01*
X116238693Y-86577142D01*
X116367966Y-86793141D01*
X116374561Y-86804161D01*
X116554313Y-87028528D01*
X116762851Y-87226423D01*
X116996317Y-87394186D01*
X117000112Y-87396195D01*
X117000113Y-87396196D01*
X117021869Y-87407715D01*
X117250392Y-87528712D01*
X117520373Y-87627511D01*
X117801264Y-87688755D01*
X117829841Y-87691004D01*
X118024282Y-87706307D01*
X118024291Y-87706307D01*
X118026739Y-87706500D01*
X118182271Y-87706500D01*
X118184407Y-87706354D01*
X118184418Y-87706354D01*
X118392548Y-87692165D01*
X118392554Y-87692164D01*
X118396825Y-87691873D01*
X118401020Y-87691004D01*
X118401022Y-87691004D01*
X118621226Y-87645402D01*
X118678342Y-87633574D01*
X118949343Y-87537607D01*
X119204812Y-87405750D01*
X119208313Y-87403289D01*
X119208317Y-87403287D01*
X119322417Y-87323096D01*
X119440023Y-87240441D01*
X119650622Y-87044740D01*
X119832713Y-86822268D01*
X119982927Y-86577142D01*
X120098483Y-86313898D01*
X120177244Y-86037406D01*
X120217751Y-85752784D01*
X120217845Y-85734951D01*
X120219235Y-85469583D01*
X120219235Y-85469576D01*
X120219257Y-85465297D01*
X120181732Y-85180266D01*
X120105871Y-84902964D01*
X119993077Y-84638524D01*
X119845439Y-84391839D01*
X119665687Y-84167472D01*
X119457149Y-83969577D01*
X119223683Y-83801814D01*
X119201843Y-83790250D01*
X119178654Y-83777972D01*
X118969608Y-83667288D01*
X118699627Y-83568489D01*
X118418736Y-83507245D01*
X118387685Y-83504801D01*
X118195718Y-83489693D01*
X118195709Y-83489693D01*
X118193261Y-83489500D01*
X118037729Y-83489500D01*
X118035593Y-83489646D01*
X118035582Y-83489646D01*
X117827452Y-83503835D01*
X117827446Y-83503836D01*
X117823175Y-83504127D01*
X117818980Y-83504996D01*
X117818978Y-83504996D01*
X117682417Y-83533276D01*
X117541658Y-83562426D01*
X117270657Y-83658393D01*
X117015188Y-83790250D01*
X117011687Y-83792711D01*
X117011683Y-83792713D01*
X117001594Y-83799804D01*
X116779977Y-83955559D01*
X116569378Y-84151260D01*
X116387287Y-84373732D01*
X116237073Y-84618858D01*
X116121517Y-84882102D01*
X116042756Y-85158594D01*
X116002249Y-85443216D01*
X116002227Y-85447505D01*
X116002226Y-85447512D01*
X116000765Y-85726417D01*
X116000743Y-85730703D01*
X100913867Y-85730703D01*
X100915235Y-85469583D01*
X100915235Y-85469576D01*
X100915257Y-85465297D01*
X100877732Y-85180266D01*
X100801871Y-84902964D01*
X100689077Y-84638524D01*
X100541439Y-84391839D01*
X100361687Y-84167472D01*
X100153149Y-83969577D01*
X99919683Y-83801814D01*
X99897843Y-83790250D01*
X99874654Y-83777972D01*
X99665608Y-83667288D01*
X99395627Y-83568489D01*
X99114736Y-83507245D01*
X99083685Y-83504801D01*
X98891718Y-83489693D01*
X98891709Y-83489693D01*
X98889261Y-83489500D01*
X98733729Y-83489500D01*
X98731593Y-83489646D01*
X98731582Y-83489646D01*
X98523452Y-83503835D01*
X98523446Y-83503836D01*
X98519175Y-83504127D01*
X98514980Y-83504996D01*
X98514978Y-83504996D01*
X98378417Y-83533276D01*
X98237658Y-83562426D01*
X97966657Y-83658393D01*
X97711188Y-83790250D01*
X97707687Y-83792711D01*
X97707683Y-83792713D01*
X97697594Y-83799804D01*
X97475977Y-83955559D01*
X97265378Y-84151260D01*
X97083287Y-84373732D01*
X96933073Y-84618858D01*
X96817517Y-84882102D01*
X96738756Y-85158594D01*
X96698249Y-85443216D01*
X96698227Y-85447505D01*
X96698226Y-85447512D01*
X96696765Y-85726417D01*
X96696743Y-85730703D01*
X88646500Y-85730703D01*
X88646500Y-82095250D01*
X88648246Y-82074345D01*
X88650770Y-82059344D01*
X88650770Y-82059341D01*
X88651576Y-82054552D01*
X88651729Y-82042000D01*
X88648917Y-82022363D01*
X88647698Y-82000842D01*
X88661843Y-81514705D01*
X88664442Y-81425399D01*
X88664867Y-81418091D01*
X88677536Y-81273291D01*
X88701304Y-81001614D01*
X88718311Y-80807227D01*
X88719162Y-80799948D01*
X88791284Y-80307570D01*
X88808034Y-80193221D01*
X88809302Y-80186029D01*
X88919925Y-79650285D01*
X88933302Y-79585500D01*
X88934992Y-79578369D01*
X89008931Y-79302423D01*
X92766703Y-79302423D01*
X92774227Y-79312854D01*
X92913483Y-79425020D01*
X92919657Y-79429408D01*
X93190271Y-79598178D01*
X93196931Y-79601794D01*
X93485852Y-79736827D01*
X93492905Y-79739620D01*
X93795970Y-79838970D01*
X93803282Y-79840888D01*
X94116092Y-79903109D01*
X94123590Y-79904137D01*
X94441610Y-79928328D01*
X94449173Y-79928446D01*
X94767785Y-79914257D01*
X94775326Y-79913465D01*
X95089924Y-79861101D01*
X95097302Y-79859411D01*
X95403355Y-79769625D01*
X95410450Y-79767071D01*
X95703496Y-79641169D01*
X95710263Y-79637765D01*
X95986042Y-79477580D01*
X95992349Y-79473390D01*
X96202305Y-79314889D01*
X96210761Y-79303496D01*
X96204045Y-79291256D01*
X94500810Y-77588020D01*
X94486869Y-77580408D01*
X94485034Y-77580539D01*
X94478420Y-77584790D01*
X92773818Y-79289393D01*
X92766703Y-79302423D01*
X89008931Y-79302423D01*
X89068052Y-79081779D01*
X89093698Y-78986068D01*
X89095799Y-78979050D01*
X89096344Y-78977407D01*
X89178592Y-78729195D01*
X89288678Y-78396975D01*
X89291185Y-78390088D01*
X89517576Y-77820227D01*
X89520479Y-77813497D01*
X89569634Y-77708085D01*
X89754052Y-77312598D01*
X89779628Y-77257751D01*
X89782918Y-77251201D01*
X89815172Y-77191383D01*
X91775388Y-77191383D01*
X91791245Y-77509914D01*
X91792076Y-77517443D01*
X91846085Y-77831759D01*
X91847818Y-77839146D01*
X91939196Y-78144695D01*
X91941799Y-78151808D01*
X92069227Y-78444173D01*
X92072669Y-78450929D01*
X92234296Y-78725865D01*
X92238519Y-78732150D01*
X92389463Y-78929934D01*
X92400989Y-78938396D01*
X92413054Y-78931735D01*
X94115980Y-77228810D01*
X94122357Y-77217131D01*
X94852408Y-77217131D01*
X94852539Y-77218966D01*
X94856790Y-77225580D01*
X96561285Y-78930074D01*
X96574408Y-78937240D01*
X96584709Y-78929851D01*
X96688751Y-78802055D01*
X96693164Y-78795914D01*
X96863349Y-78526187D01*
X96867005Y-78519536D01*
X97003544Y-78231335D01*
X97006375Y-78224295D01*
X97101890Y-77938000D01*
X125532578Y-77938000D01*
X125552228Y-78162600D01*
X125553652Y-78167913D01*
X125553652Y-78167915D01*
X125607031Y-78367126D01*
X125610581Y-78380376D01*
X125612903Y-78385357D01*
X125612904Y-78385358D01*
X125699704Y-78571500D01*
X125705864Y-78584711D01*
X125835181Y-78769396D01*
X125994604Y-78928819D01*
X126179289Y-79058136D01*
X126184267Y-79060457D01*
X126184270Y-79060459D01*
X126369024Y-79146611D01*
X126383624Y-79153419D01*
X126388932Y-79154841D01*
X126388934Y-79154842D01*
X126596085Y-79210348D01*
X126596087Y-79210348D01*
X126601400Y-79211772D01*
X126826000Y-79231422D01*
X127050600Y-79211772D01*
X127055913Y-79210348D01*
X127055915Y-79210348D01*
X127263066Y-79154842D01*
X127263068Y-79154841D01*
X127268376Y-79153419D01*
X127282976Y-79146611D01*
X127467730Y-79060459D01*
X127467733Y-79060457D01*
X127472711Y-79058136D01*
X127657396Y-78928819D01*
X127816819Y-78769396D01*
X127917766Y-78625227D01*
X127973220Y-78580901D01*
X128020977Y-78571500D01*
X134144706Y-78571500D01*
X134212827Y-78591502D01*
X134233801Y-78608405D01*
X134715651Y-79090255D01*
X134749677Y-79152567D01*
X134744612Y-79223382D01*
X134702065Y-79280218D01*
X134670785Y-79297332D01*
X134617295Y-79317385D01*
X134500739Y-79404739D01*
X134413385Y-79521295D01*
X134362255Y-79657684D01*
X134355500Y-79719866D01*
X134355500Y-81316134D01*
X134362255Y-81378316D01*
X134413385Y-81514705D01*
X134500739Y-81631261D01*
X134617295Y-81718615D01*
X134753684Y-81769745D01*
X134815866Y-81776500D01*
X136629900Y-81776500D01*
X136698021Y-81796502D01*
X136744514Y-81850158D01*
X136755900Y-81902500D01*
X136755900Y-83044006D01*
X136735898Y-83112127D01*
X136718995Y-83133101D01*
X131499248Y-88352848D01*
X131436936Y-88386874D01*
X131377541Y-88385459D01*
X131319409Y-88369882D01*
X131319398Y-88369880D01*
X131314087Y-88368457D01*
X131086000Y-88348502D01*
X130857913Y-88368457D01*
X130852600Y-88369881D01*
X130852598Y-88369881D01*
X130730411Y-88402621D01*
X130659435Y-88400931D01*
X130600639Y-88361137D01*
X130572691Y-88295873D01*
X130571800Y-88280914D01*
X130571800Y-82640295D01*
X130591802Y-82572174D01*
X130608705Y-82551199D01*
X131429083Y-81730822D01*
X131491395Y-81696797D01*
X131550789Y-81698211D01*
X131596085Y-81710348D01*
X131596087Y-81710348D01*
X131601400Y-81711772D01*
X131826000Y-81731422D01*
X132050600Y-81711772D01*
X132055913Y-81710348D01*
X132055915Y-81710348D01*
X132263066Y-81654842D01*
X132263068Y-81654841D01*
X132268376Y-81653419D01*
X132273358Y-81651096D01*
X132467730Y-81560459D01*
X132467733Y-81560457D01*
X132472711Y-81558136D01*
X132657396Y-81428819D01*
X132816819Y-81269396D01*
X132946136Y-81084711D01*
X132951585Y-81073027D01*
X133039096Y-80885358D01*
X133039097Y-80885357D01*
X133041419Y-80880376D01*
X133053600Y-80834918D01*
X133098348Y-80667915D01*
X133098348Y-80667913D01*
X133099772Y-80662600D01*
X133119422Y-80438000D01*
X133099772Y-80213400D01*
X133093397Y-80189608D01*
X133042842Y-80000934D01*
X133042841Y-80000932D01*
X133041419Y-79995624D01*
X133039096Y-79990642D01*
X132948459Y-79796270D01*
X132948457Y-79796267D01*
X132946136Y-79791289D01*
X132816819Y-79606604D01*
X132657396Y-79447181D01*
X132472711Y-79317864D01*
X132467733Y-79315543D01*
X132467730Y-79315541D01*
X132273358Y-79224904D01*
X132273357Y-79224903D01*
X132268376Y-79222581D01*
X132263068Y-79221159D01*
X132263066Y-79221158D01*
X132055915Y-79165652D01*
X132055913Y-79165652D01*
X132050600Y-79164228D01*
X131826000Y-79144578D01*
X131601400Y-79164228D01*
X131596087Y-79165652D01*
X131596085Y-79165652D01*
X131388934Y-79221158D01*
X131388932Y-79221159D01*
X131383624Y-79222581D01*
X131378643Y-79224903D01*
X131378642Y-79224904D01*
X131184270Y-79315541D01*
X131184267Y-79315543D01*
X131179289Y-79317864D01*
X130994604Y-79447181D01*
X130835181Y-79606604D01*
X130705864Y-79791289D01*
X130703543Y-79796267D01*
X130703541Y-79796270D01*
X130612904Y-79990642D01*
X130610581Y-79995624D01*
X130609159Y-80000932D01*
X130609158Y-80000934D01*
X130558603Y-80189608D01*
X130552228Y-80213400D01*
X130532578Y-80438000D01*
X130552228Y-80662600D01*
X130553652Y-80667915D01*
X130553653Y-80667918D01*
X130565789Y-80713213D01*
X130564099Y-80784189D01*
X130533177Y-80834918D01*
X129546047Y-81822048D01*
X129537761Y-81829588D01*
X129531282Y-81833700D01*
X129525857Y-81839477D01*
X129484657Y-81883351D01*
X129481902Y-81886193D01*
X129462165Y-81905930D01*
X129459685Y-81909127D01*
X129451982Y-81918147D01*
X129421714Y-81950379D01*
X129417895Y-81957325D01*
X129417893Y-81957328D01*
X129411952Y-81968134D01*
X129401101Y-81984653D01*
X129388686Y-82000659D01*
X129385541Y-82007928D01*
X129385538Y-82007932D01*
X129371126Y-82041237D01*
X129365909Y-82051887D01*
X129344605Y-82090640D01*
X129342634Y-82098315D01*
X129342634Y-82098316D01*
X129339567Y-82110262D01*
X129333163Y-82128966D01*
X129325119Y-82147555D01*
X129323880Y-82155378D01*
X129323877Y-82155388D01*
X129318201Y-82191224D01*
X129315795Y-82202844D01*
X129309118Y-82228853D01*
X129304800Y-82245670D01*
X129304800Y-82265924D01*
X129303249Y-82285634D01*
X129300080Y-82305643D01*
X129300826Y-82313535D01*
X129304241Y-82349661D01*
X129304800Y-82361519D01*
X129304800Y-90514406D01*
X129284798Y-90582527D01*
X129267895Y-90603501D01*
X128195772Y-91675623D01*
X127129547Y-92741848D01*
X127121261Y-92749388D01*
X127114782Y-92753500D01*
X127109357Y-92759277D01*
X127068157Y-92803151D01*
X127065402Y-92805993D01*
X127045665Y-92825730D01*
X127043185Y-92828927D01*
X127035482Y-92837947D01*
X127005214Y-92870179D01*
X127001395Y-92877125D01*
X127001393Y-92877128D01*
X126995452Y-92887934D01*
X126984601Y-92904453D01*
X126972186Y-92920459D01*
X126969041Y-92927728D01*
X126969038Y-92927732D01*
X126954626Y-92961037D01*
X126949409Y-92971687D01*
X126928105Y-93010440D01*
X126926134Y-93018115D01*
X126926134Y-93018116D01*
X126923067Y-93030062D01*
X126916663Y-93048766D01*
X126908619Y-93067355D01*
X126907380Y-93075178D01*
X126907377Y-93075188D01*
X126901701Y-93111024D01*
X126899295Y-93122644D01*
X126888300Y-93165470D01*
X126888300Y-93185724D01*
X126886749Y-93205434D01*
X126883580Y-93225443D01*
X126884326Y-93233335D01*
X126887741Y-93269461D01*
X126888300Y-93281319D01*
X126888300Y-96601933D01*
X126887773Y-96613116D01*
X126886098Y-96620609D01*
X126886347Y-96628535D01*
X126886347Y-96628536D01*
X126888238Y-96688686D01*
X126888300Y-96692645D01*
X126888300Y-96720556D01*
X126888797Y-96724490D01*
X126888797Y-96724491D01*
X126888805Y-96724556D01*
X126889738Y-96736393D01*
X126891127Y-96780589D01*
X126896778Y-96800039D01*
X126900787Y-96819400D01*
X126903326Y-96839497D01*
X126906245Y-96846868D01*
X126906245Y-96846870D01*
X126919604Y-96880612D01*
X126923449Y-96891842D01*
X126935782Y-96934293D01*
X126939815Y-96941112D01*
X126939817Y-96941117D01*
X126946093Y-96951728D01*
X126954788Y-96969476D01*
X126962248Y-96988317D01*
X126966910Y-96994733D01*
X126966910Y-96994734D01*
X126988236Y-97024087D01*
X126994752Y-97034007D01*
X127017258Y-97072062D01*
X127022864Y-97077669D01*
X127031580Y-97086385D01*
X127044420Y-97101418D01*
X127056328Y-97117807D01*
X127062435Y-97122859D01*
X127090393Y-97145988D01*
X127099174Y-97153978D01*
X127440154Y-97494959D01*
X127447687Y-97503237D01*
X127451800Y-97509718D01*
X127457581Y-97515147D01*
X127457583Y-97515149D01*
X127460588Y-97517971D01*
X127462231Y-97520767D01*
X127462632Y-97521252D01*
X127462554Y-97521317D01*
X127496552Y-97579184D01*
X127493713Y-97650124D01*
X127486650Y-97666923D01*
X127439180Y-97760291D01*
X127436760Y-97765051D01*
X127435178Y-97770145D01*
X127435177Y-97770148D01*
X127392960Y-97906109D01*
X127368393Y-97985227D01*
X127367692Y-97990516D01*
X127351156Y-98115283D01*
X127338102Y-98213774D01*
X127346751Y-98444158D01*
X127347846Y-98449377D01*
X127355908Y-98487802D01*
X127394093Y-98669791D01*
X127478776Y-98884221D01*
X127598377Y-99081317D01*
X127601874Y-99085347D01*
X127688438Y-99185103D01*
X127749477Y-99255445D01*
X127753608Y-99258832D01*
X127923627Y-99398240D01*
X127923633Y-99398244D01*
X127927755Y-99401624D01*
X127932391Y-99404263D01*
X127932394Y-99404265D01*
X128041422Y-99466327D01*
X128128114Y-99515675D01*
X128344825Y-99594337D01*
X128350074Y-99595286D01*
X128350077Y-99595287D01*
X128567608Y-99634623D01*
X128567615Y-99634624D01*
X128571692Y-99635361D01*
X128589414Y-99636197D01*
X128594356Y-99636430D01*
X128594363Y-99636430D01*
X128595844Y-99636500D01*
X129057890Y-99636500D01*
X129124809Y-99630822D01*
X129224409Y-99622371D01*
X129224413Y-99622370D01*
X129229720Y-99621920D01*
X129234875Y-99620582D01*
X129234881Y-99620581D01*
X129447703Y-99565343D01*
X129447707Y-99565342D01*
X129452872Y-99564001D01*
X129457738Y-99561809D01*
X129457741Y-99561808D01*
X129658202Y-99471507D01*
X129663075Y-99469312D01*
X129854319Y-99340559D01*
X130021135Y-99181424D01*
X130057641Y-99132359D01*
X130155568Y-99000740D01*
X130158754Y-98996458D01*
X130263240Y-98790949D01*
X130299321Y-98674752D01*
X130330024Y-98575871D01*
X130331607Y-98570773D01*
X130333889Y-98553554D01*
X130361198Y-98347511D01*
X130361198Y-98347506D01*
X130361898Y-98342226D01*
X130353249Y-98111842D01*
X130305907Y-97886209D01*
X130273409Y-97803919D01*
X130223185Y-97676744D01*
X130223184Y-97676742D01*
X130221224Y-97671779D01*
X130218278Y-97666923D01*
X130104390Y-97479243D01*
X130101623Y-97474683D01*
X130005725Y-97364170D01*
X129954023Y-97304588D01*
X129954021Y-97304586D01*
X129950523Y-97300555D01*
X129914880Y-97271330D01*
X129874886Y-97212671D01*
X129872954Y-97141701D01*
X129909698Y-97080952D01*
X129928468Y-97066752D01*
X130068120Y-96980332D01*
X130074348Y-96976478D01*
X130199305Y-96851303D01*
X130211432Y-96831630D01*
X130288275Y-96706968D01*
X130288276Y-96706966D01*
X130292115Y-96700738D01*
X130347797Y-96532861D01*
X130348498Y-96526020D01*
X130348499Y-96526015D01*
X130348639Y-96524651D01*
X130348960Y-96523864D01*
X130349941Y-96519290D01*
X130350757Y-96519465D01*
X130375483Y-96458925D01*
X130433600Y-96418146D01*
X130473982Y-96411500D01*
X163771233Y-96411500D01*
X163782416Y-96412027D01*
X163789909Y-96413702D01*
X163797835Y-96413453D01*
X163797836Y-96413453D01*
X163857986Y-96411562D01*
X163861945Y-96411500D01*
X163889856Y-96411500D01*
X163893791Y-96411003D01*
X163893856Y-96410995D01*
X163905693Y-96410062D01*
X163937951Y-96409048D01*
X163941970Y-96408922D01*
X163949889Y-96408673D01*
X163969343Y-96403021D01*
X163988700Y-96399013D01*
X164000930Y-96397468D01*
X164000931Y-96397468D01*
X164008797Y-96396474D01*
X164016168Y-96393555D01*
X164016170Y-96393555D01*
X164049912Y-96380196D01*
X164061142Y-96376351D01*
X164095983Y-96366229D01*
X164095984Y-96366229D01*
X164103593Y-96364018D01*
X164110412Y-96359985D01*
X164110417Y-96359983D01*
X164121028Y-96353707D01*
X164138776Y-96345012D01*
X164157617Y-96337552D01*
X164193387Y-96311564D01*
X164203307Y-96305048D01*
X164234535Y-96286580D01*
X164234538Y-96286578D01*
X164241362Y-96282542D01*
X164255683Y-96268221D01*
X164270717Y-96255380D01*
X164280694Y-96248131D01*
X164287107Y-96243472D01*
X164315298Y-96209395D01*
X164323288Y-96200616D01*
X168554499Y-91969405D01*
X168616811Y-91935379D01*
X168643594Y-91932500D01*
X169854400Y-91932500D01*
X169857646Y-91932163D01*
X169857650Y-91932163D01*
X169953308Y-91922238D01*
X169953312Y-91922237D01*
X169960166Y-91921526D01*
X169966702Y-91919345D01*
X169966704Y-91919345D01*
X170120998Y-91867868D01*
X170127946Y-91865550D01*
X170278348Y-91772478D01*
X170403305Y-91647303D01*
X170416808Y-91625398D01*
X170437839Y-91591278D01*
X170493081Y-91501660D01*
X170545852Y-91454168D01*
X170615924Y-91442744D01*
X170681048Y-91471018D01*
X170691510Y-91480805D01*
X170729617Y-91520751D01*
X170800576Y-91595135D01*
X170804854Y-91598318D01*
X170815875Y-91606518D01*
X170985542Y-91732754D01*
X170990293Y-91735170D01*
X170990297Y-91735172D01*
X171053481Y-91767296D01*
X171191051Y-91837240D01*
X171196145Y-91838822D01*
X171196148Y-91838823D01*
X171396020Y-91900885D01*
X171411227Y-91905607D01*
X171416516Y-91906308D01*
X171634489Y-91935198D01*
X171634494Y-91935198D01*
X171639774Y-91935898D01*
X171645103Y-91935698D01*
X171645105Y-91935698D01*
X171754966Y-91931574D01*
X171870158Y-91927249D01*
X172095791Y-91879907D01*
X172100750Y-91877949D01*
X172100752Y-91877948D01*
X172305256Y-91797185D01*
X172305258Y-91797184D01*
X172310221Y-91795224D01*
X172347706Y-91772478D01*
X172471232Y-91697520D01*
X172507317Y-91675623D01*
X172563304Y-91627040D01*
X172677412Y-91528023D01*
X172677414Y-91528021D01*
X172681445Y-91524523D01*
X172730699Y-91464453D01*
X172824240Y-91350373D01*
X172824244Y-91350367D01*
X172827624Y-91346245D01*
X172832557Y-91337580D01*
X172939032Y-91150529D01*
X172941675Y-91145886D01*
X173020337Y-90929175D01*
X173041104Y-90814332D01*
X173060623Y-90706392D01*
X173060624Y-90706385D01*
X173061361Y-90702308D01*
X173062197Y-90684586D01*
X173062430Y-90679644D01*
X173062430Y-90679637D01*
X173062500Y-90678156D01*
X173062500Y-90216110D01*
X173047920Y-90044280D01*
X173046582Y-90039125D01*
X173046581Y-90039119D01*
X172991343Y-89826297D01*
X172991342Y-89826293D01*
X172990001Y-89821128D01*
X172895312Y-89610925D01*
X172766559Y-89419681D01*
X172708788Y-89359121D01*
X172611103Y-89256722D01*
X172607424Y-89252865D01*
X172422458Y-89115246D01*
X172417707Y-89112830D01*
X172417703Y-89112828D01*
X172309486Y-89057808D01*
X172216949Y-89010760D01*
X172211855Y-89009178D01*
X172211852Y-89009177D01*
X172001871Y-88943976D01*
X171996773Y-88942393D01*
X171971150Y-88938997D01*
X171773511Y-88912802D01*
X171773506Y-88912802D01*
X171768226Y-88912102D01*
X171762897Y-88912302D01*
X171762895Y-88912302D01*
X171653034Y-88916426D01*
X171537842Y-88920751D01*
X171312209Y-88968093D01*
X171307250Y-88970051D01*
X171307248Y-88970052D01*
X171102744Y-89050815D01*
X171102742Y-89050816D01*
X171097779Y-89052776D01*
X171093220Y-89055543D01*
X171093211Y-89055547D01*
X171080940Y-89062994D01*
X171012327Y-89081235D01*
X170944744Y-89059485D01*
X170926477Y-89044372D01*
X168917052Y-87034947D01*
X168909512Y-87026661D01*
X168905400Y-87020182D01*
X168855748Y-86973556D01*
X168852907Y-86970802D01*
X168833170Y-86951065D01*
X168829973Y-86948585D01*
X168820951Y-86940880D01*
X168794500Y-86916041D01*
X168788721Y-86910614D01*
X168781775Y-86906795D01*
X168781772Y-86906793D01*
X168770966Y-86900852D01*
X168754447Y-86890001D01*
X168753983Y-86889641D01*
X168738441Y-86877586D01*
X168731172Y-86874441D01*
X168731168Y-86874438D01*
X168697863Y-86860026D01*
X168687213Y-86854809D01*
X168648460Y-86833505D01*
X168628837Y-86828467D01*
X168610134Y-86822063D01*
X168598820Y-86817167D01*
X168598819Y-86817167D01*
X168591545Y-86814019D01*
X168583722Y-86812780D01*
X168583712Y-86812777D01*
X168547876Y-86807101D01*
X168536256Y-86804695D01*
X168501111Y-86795672D01*
X168501110Y-86795672D01*
X168493430Y-86793700D01*
X168473176Y-86793700D01*
X168453465Y-86792149D01*
X168441286Y-86790220D01*
X168433457Y-86788980D01*
X168425565Y-86789726D01*
X168389439Y-86793141D01*
X168377581Y-86793700D01*
X150816894Y-86793700D01*
X150748773Y-86773698D01*
X150727799Y-86756795D01*
X145162918Y-81191913D01*
X145128892Y-81129601D01*
X145133957Y-81058786D01*
X145176504Y-81001950D01*
X145243024Y-80977139D01*
X145316152Y-80994364D01*
X145320193Y-80996754D01*
X145326459Y-81001614D01*
X145333737Y-81004764D01*
X145333738Y-81004764D01*
X145367037Y-81019174D01*
X145377687Y-81024391D01*
X145416440Y-81045695D01*
X145424115Y-81047666D01*
X145424116Y-81047666D01*
X145436062Y-81050733D01*
X145454767Y-81057137D01*
X145473355Y-81065181D01*
X145481178Y-81066420D01*
X145481188Y-81066423D01*
X145517024Y-81072099D01*
X145528644Y-81074505D01*
X145548996Y-81079730D01*
X145571470Y-81085500D01*
X145591724Y-81085500D01*
X145611434Y-81087051D01*
X145631443Y-81090220D01*
X145639335Y-81089474D01*
X145675461Y-81086059D01*
X145687319Y-81085500D01*
X147835050Y-81085500D01*
X147903171Y-81105502D01*
X147916271Y-81116059D01*
X147916325Y-81115989D01*
X147922584Y-81120844D01*
X147928193Y-81126453D01*
X147935017Y-81130489D01*
X147935020Y-81130491D01*
X148038880Y-81191913D01*
X148071399Y-81211145D01*
X148079010Y-81213356D01*
X148079012Y-81213357D01*
X148131231Y-81228528D01*
X148231169Y-81257562D01*
X148237574Y-81258066D01*
X148237579Y-81258067D01*
X148266042Y-81260307D01*
X148266050Y-81260307D01*
X148268498Y-81260500D01*
X149576502Y-81260500D01*
X149578950Y-81260307D01*
X149578958Y-81260307D01*
X149607421Y-81258067D01*
X149607426Y-81258066D01*
X149613831Y-81257562D01*
X149713769Y-81228528D01*
X149765988Y-81213357D01*
X149765990Y-81213356D01*
X149773601Y-81211145D01*
X149806120Y-81191913D01*
X149909980Y-81130491D01*
X149909983Y-81130489D01*
X149916807Y-81126453D01*
X150034453Y-81008807D01*
X150038489Y-81001983D01*
X150038491Y-81001980D01*
X150115108Y-80872427D01*
X150119145Y-80865601D01*
X150165562Y-80705831D01*
X150168500Y-80668502D01*
X150168500Y-80436000D01*
X150188502Y-80367879D01*
X150242158Y-80321386D01*
X150294500Y-80310000D01*
X150525385Y-80310000D01*
X150540624Y-80305525D01*
X150541829Y-80304135D01*
X150543500Y-80296452D01*
X150543500Y-80291884D01*
X151051500Y-80291884D01*
X151055975Y-80307123D01*
X151057365Y-80308328D01*
X151065048Y-80309999D01*
X151448984Y-80309999D01*
X151453920Y-80309805D01*
X151482336Y-80307570D01*
X151494931Y-80305270D01*
X151640790Y-80262893D01*
X151655221Y-80256648D01*
X151784678Y-80180089D01*
X151797104Y-80170449D01*
X151903449Y-80064104D01*
X151913089Y-80051678D01*
X151989648Y-79922221D01*
X151995893Y-79907790D01*
X152034939Y-79773395D01*
X152034899Y-79759294D01*
X152027630Y-79756000D01*
X151069615Y-79756000D01*
X151054376Y-79760475D01*
X151053171Y-79761865D01*
X151051500Y-79769548D01*
X151051500Y-80291884D01*
X150543500Y-80291884D01*
X150543500Y-79302423D01*
X168966703Y-79302423D01*
X168974227Y-79312854D01*
X169113483Y-79425020D01*
X169119657Y-79429408D01*
X169390271Y-79598178D01*
X169396931Y-79601794D01*
X169685852Y-79736827D01*
X169692905Y-79739620D01*
X169995970Y-79838970D01*
X170003282Y-79840888D01*
X170316092Y-79903109D01*
X170323590Y-79904137D01*
X170641610Y-79928328D01*
X170649173Y-79928446D01*
X170967785Y-79914257D01*
X170975326Y-79913465D01*
X171289924Y-79861101D01*
X171297302Y-79859411D01*
X171603355Y-79769625D01*
X171610450Y-79767071D01*
X171903496Y-79641169D01*
X171910263Y-79637765D01*
X172186042Y-79477580D01*
X172192349Y-79473390D01*
X172402305Y-79314889D01*
X172410761Y-79303496D01*
X172404045Y-79291256D01*
X170700810Y-77588020D01*
X170686869Y-77580408D01*
X170685034Y-77580539D01*
X170678420Y-77584790D01*
X168973818Y-79289393D01*
X168966703Y-79302423D01*
X150543500Y-79302423D01*
X150543500Y-79268301D01*
X150554009Y-79229885D01*
X151051500Y-79229885D01*
X151055975Y-79245124D01*
X151057365Y-79246329D01*
X151065048Y-79248000D01*
X152021878Y-79248000D01*
X152035409Y-79244027D01*
X152036544Y-79236129D01*
X151995893Y-79096210D01*
X151989648Y-79081779D01*
X151913089Y-78952322D01*
X151903449Y-78939896D01*
X151797104Y-78833551D01*
X151784678Y-78823911D01*
X151655221Y-78747352D01*
X151640790Y-78741107D01*
X151494935Y-78698731D01*
X151482333Y-78696430D01*
X151453916Y-78694193D01*
X151448986Y-78694000D01*
X151069615Y-78694000D01*
X151054376Y-78698475D01*
X151053171Y-78699865D01*
X151051500Y-78707548D01*
X151051500Y-79229885D01*
X150554009Y-79229885D01*
X150561046Y-79204162D01*
X150564153Y-79198907D01*
X150569014Y-79192641D01*
X150581291Y-79164271D01*
X150586574Y-79152063D01*
X150591791Y-79141413D01*
X150613095Y-79102660D01*
X150618133Y-79083037D01*
X150624537Y-79064334D01*
X150629433Y-79053020D01*
X150629433Y-79053019D01*
X150632581Y-79045745D01*
X150633820Y-79037922D01*
X150633823Y-79037912D01*
X150639499Y-79002076D01*
X150641905Y-78990456D01*
X150650928Y-78955311D01*
X150650928Y-78955310D01*
X150652900Y-78947630D01*
X150652900Y-78927376D01*
X150654451Y-78907665D01*
X150656380Y-78895486D01*
X150657620Y-78887657D01*
X150653459Y-78843638D01*
X150652900Y-78831781D01*
X150652900Y-78280768D01*
X150653427Y-78269585D01*
X150655102Y-78262092D01*
X150652962Y-78194001D01*
X150652900Y-78190044D01*
X150652900Y-78162144D01*
X150652396Y-78158153D01*
X150651463Y-78146311D01*
X150651413Y-78144695D01*
X150650074Y-78102111D01*
X150647862Y-78094497D01*
X150647861Y-78094492D01*
X150644423Y-78082659D01*
X150640412Y-78063295D01*
X150639259Y-78054163D01*
X150637874Y-78043203D01*
X150634957Y-78035836D01*
X150634956Y-78035831D01*
X150621598Y-78002092D01*
X150617754Y-77990865D01*
X150607630Y-77956022D01*
X150605418Y-77948407D01*
X150595107Y-77930972D01*
X150586412Y-77913224D01*
X150578952Y-77894383D01*
X150552964Y-77858613D01*
X150546448Y-77848693D01*
X150527980Y-77817465D01*
X150527978Y-77817462D01*
X150523942Y-77810638D01*
X150509621Y-77796317D01*
X150496780Y-77781283D01*
X150484872Y-77764893D01*
X150450795Y-77736702D01*
X150442016Y-77728712D01*
X149904687Y-77191383D01*
X167975388Y-77191383D01*
X167991245Y-77509914D01*
X167992076Y-77517443D01*
X168046085Y-77831759D01*
X168047818Y-77839146D01*
X168139196Y-78144695D01*
X168141799Y-78151808D01*
X168269227Y-78444173D01*
X168272669Y-78450929D01*
X168434296Y-78725865D01*
X168438519Y-78732150D01*
X168589463Y-78929934D01*
X168600989Y-78938396D01*
X168613054Y-78931735D01*
X170315980Y-77228810D01*
X170322357Y-77217131D01*
X171052408Y-77217131D01*
X171052539Y-77218966D01*
X171056790Y-77225580D01*
X172761285Y-78930074D01*
X172774408Y-78937240D01*
X172784709Y-78929851D01*
X172888751Y-78802055D01*
X172893164Y-78795914D01*
X173063349Y-78526187D01*
X173067005Y-78519536D01*
X173203544Y-78231335D01*
X173206375Y-78224295D01*
X173307306Y-77921767D01*
X173309270Y-77914433D01*
X173373122Y-77601989D01*
X173374194Y-77594465D01*
X173400173Y-77275051D01*
X173400378Y-77270576D01*
X173400927Y-77218221D01*
X173400817Y-77213789D01*
X173381529Y-76893853D01*
X173380621Y-76886351D01*
X173323319Y-76572593D01*
X173321518Y-76565260D01*
X173226935Y-76260655D01*
X173224263Y-76253583D01*
X173093781Y-75962570D01*
X173090264Y-75955843D01*
X172925771Y-75682621D01*
X172921481Y-75676377D01*
X172785991Y-75502647D01*
X172774199Y-75494178D01*
X172762486Y-75500725D01*
X171060020Y-77203190D01*
X171052408Y-77217131D01*
X170322357Y-77217131D01*
X170323592Y-77214869D01*
X170323461Y-77213034D01*
X170319210Y-77206420D01*
X168614445Y-75501656D01*
X168601510Y-75494592D01*
X168590949Y-75502252D01*
X168470766Y-75653072D01*
X168466410Y-75659270D01*
X168299059Y-75930764D01*
X168295479Y-75937440D01*
X168161956Y-76227074D01*
X168159206Y-76234125D01*
X168061444Y-76537708D01*
X168059561Y-76545041D01*
X167998979Y-76858170D01*
X167997992Y-76865670D01*
X167975467Y-77183802D01*
X167975388Y-77191383D01*
X149904687Y-77191383D01*
X147842728Y-75129423D01*
X168965917Y-75129423D01*
X168972520Y-75141309D01*
X170675190Y-76843980D01*
X170689131Y-76851592D01*
X170690966Y-76851461D01*
X170697580Y-76847210D01*
X172402559Y-75142230D01*
X172409571Y-75129389D01*
X172401777Y-75118701D01*
X172239298Y-74990613D01*
X172233075Y-74986288D01*
X171960702Y-74820357D01*
X171954025Y-74816822D01*
X171663686Y-74684813D01*
X171656616Y-74682099D01*
X171352537Y-74585932D01*
X171345186Y-74584085D01*
X171031746Y-74525142D01*
X171024237Y-74524194D01*
X170705989Y-74503335D01*
X170698424Y-74503295D01*
X170379964Y-74520821D01*
X170372450Y-74521690D01*
X170058405Y-74577348D01*
X170051044Y-74579115D01*
X169745980Y-74672092D01*
X169738860Y-74674740D01*
X169447182Y-74803690D01*
X169440445Y-74807167D01*
X169166355Y-74970233D01*
X169160091Y-74974490D01*
X168974385Y-75117762D01*
X168965917Y-75129423D01*
X147842728Y-75129423D01*
X147251052Y-74537747D01*
X147243512Y-74529461D01*
X147239400Y-74522982D01*
X147189748Y-74476356D01*
X147186907Y-74473602D01*
X147167170Y-74453865D01*
X147163973Y-74451385D01*
X147154951Y-74443680D01*
X147152245Y-74441139D01*
X147122721Y-74413414D01*
X147115775Y-74409595D01*
X147115772Y-74409593D01*
X147104966Y-74403652D01*
X147088447Y-74392801D01*
X147087983Y-74392441D01*
X147072441Y-74380386D01*
X147065172Y-74377241D01*
X147065168Y-74377238D01*
X147031863Y-74362826D01*
X147021213Y-74357609D01*
X146982460Y-74336305D01*
X146962837Y-74331267D01*
X146944134Y-74324863D01*
X146932820Y-74319967D01*
X146932819Y-74319967D01*
X146925545Y-74316819D01*
X146917722Y-74315580D01*
X146917712Y-74315577D01*
X146881876Y-74309901D01*
X146870256Y-74307495D01*
X146835111Y-74298472D01*
X146835110Y-74298472D01*
X146827430Y-74296500D01*
X146807176Y-74296500D01*
X146787465Y-74294949D01*
X146775286Y-74293020D01*
X146767457Y-74291780D01*
X146736155Y-74294739D01*
X146723439Y-74295941D01*
X146711581Y-74296500D01*
X145943197Y-74296500D01*
X145875076Y-74276498D01*
X145828583Y-74222842D01*
X145823674Y-74210377D01*
X145807867Y-74162998D01*
X145807866Y-74162996D01*
X145805550Y-74156054D01*
X145781703Y-74117517D01*
X145716332Y-74011880D01*
X145712478Y-74005652D01*
X145587303Y-73880695D01*
X145581072Y-73876854D01*
X145442968Y-73791725D01*
X145442966Y-73791724D01*
X145436738Y-73787885D01*
X145276254Y-73734655D01*
X145275389Y-73734368D01*
X145275387Y-73734368D01*
X145268861Y-73732203D01*
X145262025Y-73731503D01*
X145262022Y-73731502D01*
X145218969Y-73727091D01*
X145164400Y-73721500D01*
X144363600Y-73721500D01*
X144360354Y-73721837D01*
X144360350Y-73721837D01*
X144264692Y-73731762D01*
X144264688Y-73731763D01*
X144257834Y-73732474D01*
X144251298Y-73734655D01*
X144251296Y-73734655D01*
X144125693Y-73776560D01*
X144090054Y-73788450D01*
X143939652Y-73881522D01*
X143934479Y-73886704D01*
X143853216Y-73968109D01*
X143790934Y-74002188D01*
X143720114Y-73997185D01*
X143675025Y-73968264D01*
X143592483Y-73885866D01*
X143587303Y-73880695D01*
X143581072Y-73876854D01*
X143442968Y-73791725D01*
X143442966Y-73791724D01*
X143436738Y-73787885D01*
X143276254Y-73734655D01*
X143275389Y-73734368D01*
X143275387Y-73734368D01*
X143268861Y-73732203D01*
X143262025Y-73731503D01*
X143262022Y-73731502D01*
X143218969Y-73727091D01*
X143164400Y-73721500D01*
X142363600Y-73721500D01*
X142360354Y-73721837D01*
X142360350Y-73721837D01*
X142264692Y-73731762D01*
X142264688Y-73731763D01*
X142257834Y-73732474D01*
X142251298Y-73734655D01*
X142251296Y-73734655D01*
X142125693Y-73776560D01*
X142090054Y-73788450D01*
X141939652Y-73881522D01*
X141814695Y-74006697D01*
X141810855Y-74012927D01*
X141810854Y-74012928D01*
X141726670Y-74149500D01*
X141721885Y-74157262D01*
X141705260Y-74207385D01*
X141704337Y-74210168D01*
X141663906Y-74268527D01*
X141598342Y-74295764D01*
X141584744Y-74296500D01*
X139910880Y-74296500D01*
X139842759Y-74276498D01*
X139803736Y-74236803D01*
X139736332Y-74127880D01*
X139732478Y-74121652D01*
X139607303Y-73996695D01*
X139560928Y-73968109D01*
X139462968Y-73907725D01*
X139462966Y-73907724D01*
X139456738Y-73903885D01*
X139296254Y-73850655D01*
X139295389Y-73850368D01*
X139295387Y-73850368D01*
X139288861Y-73848203D01*
X139282025Y-73847503D01*
X139282022Y-73847502D01*
X139238969Y-73843091D01*
X139184400Y-73837500D01*
X138183600Y-73837500D01*
X138180354Y-73837837D01*
X138180350Y-73837837D01*
X138084692Y-73847762D01*
X138084688Y-73847763D01*
X138077834Y-73848474D01*
X138071298Y-73850655D01*
X138071296Y-73850655D01*
X138019457Y-73867950D01*
X137910054Y-73904450D01*
X137759652Y-73997522D01*
X137634695Y-74122697D01*
X137630855Y-74128927D01*
X137630854Y-74128928D01*
X137554369Y-74253010D01*
X137541885Y-74273262D01*
X137486203Y-74441139D01*
X137485503Y-74447975D01*
X137485502Y-74447978D01*
X137481091Y-74491031D01*
X137475500Y-74545600D01*
X137475500Y-75346400D01*
X137486474Y-75452166D01*
X137488655Y-75458702D01*
X137488655Y-75458704D01*
X137502985Y-75501656D01*
X137542450Y-75619946D01*
X137635522Y-75770348D01*
X137640704Y-75775521D01*
X137722109Y-75856784D01*
X137756188Y-75919066D01*
X137751185Y-75989886D01*
X137722264Y-76034975D01*
X137689602Y-76067694D01*
X137634695Y-76122697D01*
X137630855Y-76128927D01*
X137630854Y-76128928D01*
X137588586Y-76197500D01*
X137541885Y-76273262D01*
X137486203Y-76441139D01*
X137475500Y-76545600D01*
X137475500Y-77206405D01*
X137455498Y-77274526D01*
X137438595Y-77295500D01*
X137438400Y-77295695D01*
X137376088Y-77329721D01*
X137349305Y-77332600D01*
X136970695Y-77332600D01*
X136902574Y-77312598D01*
X136881600Y-77295695D01*
X136881405Y-77295500D01*
X136847379Y-77233188D01*
X136844500Y-77206405D01*
X136844500Y-76545600D01*
X136843681Y-76537708D01*
X136834238Y-76446692D01*
X136834237Y-76446688D01*
X136833526Y-76439834D01*
X136777550Y-76272054D01*
X136684478Y-76121652D01*
X136597891Y-76035216D01*
X136563812Y-75972934D01*
X136568815Y-75902114D01*
X136597736Y-75857025D01*
X136680134Y-75774483D01*
X136685305Y-75769303D01*
X136725592Y-75703946D01*
X136774275Y-75624968D01*
X136774276Y-75624966D01*
X136778115Y-75618738D01*
X136804564Y-75538995D01*
X136831632Y-75457389D01*
X136831632Y-75457387D01*
X136833797Y-75450861D01*
X136844500Y-75346400D01*
X136844500Y-74545600D01*
X136843037Y-74531502D01*
X136834238Y-74446692D01*
X136834237Y-74446688D01*
X136833526Y-74439834D01*
X136777550Y-74272054D01*
X136684478Y-74121652D01*
X136559303Y-73996695D01*
X136512928Y-73968109D01*
X136414968Y-73907725D01*
X136414966Y-73907724D01*
X136408738Y-73903885D01*
X136248254Y-73850655D01*
X136247389Y-73850368D01*
X136247387Y-73850368D01*
X136240861Y-73848203D01*
X136234025Y-73847503D01*
X136234022Y-73847502D01*
X136190969Y-73843091D01*
X136136400Y-73837500D01*
X135135600Y-73837500D01*
X135132354Y-73837837D01*
X135132350Y-73837837D01*
X135036692Y-73847762D01*
X135036688Y-73847763D01*
X135029834Y-73848474D01*
X135023298Y-73850655D01*
X135023296Y-73850655D01*
X134971457Y-73867950D01*
X134862054Y-73904450D01*
X134711652Y-73997522D01*
X134586695Y-74122697D01*
X134582855Y-74128927D01*
X134582854Y-74128928D01*
X134506369Y-74253010D01*
X134493885Y-74273262D01*
X134438203Y-74441139D01*
X134437503Y-74447975D01*
X134437502Y-74447978D01*
X134433091Y-74491031D01*
X134427500Y-74545600D01*
X134427500Y-74678500D01*
X134407498Y-74746621D01*
X134353842Y-74793114D01*
X134301500Y-74804500D01*
X133240500Y-74804500D01*
X133172379Y-74784498D01*
X133125886Y-74730842D01*
X133114500Y-74678500D01*
X133114500Y-74609866D01*
X133107745Y-74547684D01*
X133056615Y-74411295D01*
X132969261Y-74294739D01*
X132852705Y-74207385D01*
X132716316Y-74156255D01*
X132654134Y-74149500D01*
X130997866Y-74149500D01*
X130935684Y-74156255D01*
X130799295Y-74207385D01*
X130682739Y-74294739D01*
X130595385Y-74411295D01*
X130544255Y-74547684D01*
X130537500Y-74609866D01*
X130537500Y-76266134D01*
X130544255Y-76328316D01*
X130595385Y-76464705D01*
X130682739Y-76581261D01*
X130799295Y-76668615D01*
X130935684Y-76719745D01*
X130997866Y-76726500D01*
X132654134Y-76726500D01*
X132716316Y-76719745D01*
X132852705Y-76668615D01*
X132969261Y-76581261D01*
X133056615Y-76464705D01*
X133107745Y-76328316D01*
X133114500Y-76266134D01*
X133114500Y-76197500D01*
X133134502Y-76129379D01*
X133188158Y-76082886D01*
X133240500Y-76071500D01*
X134392571Y-76071500D01*
X134460692Y-76091502D01*
X134507185Y-76145158D01*
X134517289Y-76215432D01*
X134499830Y-76263617D01*
X134498279Y-76266134D01*
X134493885Y-76273262D01*
X134438203Y-76441139D01*
X134427500Y-76545600D01*
X134427500Y-77178500D01*
X134407498Y-77246621D01*
X134353842Y-77293114D01*
X134301500Y-77304500D01*
X128020977Y-77304500D01*
X127952856Y-77284498D01*
X127917768Y-77250774D01*
X127816819Y-77106604D01*
X127657396Y-76947181D01*
X127472711Y-76817864D01*
X127467733Y-76815543D01*
X127467730Y-76815541D01*
X127273358Y-76724904D01*
X127273357Y-76724903D01*
X127268376Y-76722581D01*
X127263068Y-76721159D01*
X127263066Y-76721158D01*
X127055915Y-76665652D01*
X127055913Y-76665652D01*
X127050600Y-76664228D01*
X126826000Y-76644578D01*
X126601400Y-76664228D01*
X126596087Y-76665652D01*
X126596085Y-76665652D01*
X126388934Y-76721158D01*
X126388932Y-76721159D01*
X126383624Y-76722581D01*
X126378643Y-76724903D01*
X126378642Y-76724904D01*
X126184270Y-76815541D01*
X126184267Y-76815543D01*
X126179289Y-76817864D01*
X125994604Y-76947181D01*
X125835181Y-77106604D01*
X125705864Y-77291289D01*
X125703543Y-77296267D01*
X125703541Y-77296270D01*
X125695927Y-77312598D01*
X125610581Y-77495624D01*
X125609159Y-77500932D01*
X125609158Y-77500934D01*
X125575923Y-77624968D01*
X125552228Y-77713400D01*
X125532578Y-77938000D01*
X97101890Y-77938000D01*
X97107306Y-77921767D01*
X97109270Y-77914433D01*
X97173122Y-77601989D01*
X97174194Y-77594465D01*
X97200173Y-77275051D01*
X97200378Y-77270576D01*
X97200927Y-77218221D01*
X97200817Y-77213789D01*
X97181529Y-76893853D01*
X97180621Y-76886351D01*
X97123319Y-76572593D01*
X97121518Y-76565260D01*
X97026935Y-76260655D01*
X97024263Y-76253583D01*
X96893781Y-75962570D01*
X96890264Y-75955843D01*
X96725771Y-75682621D01*
X96721481Y-75676377D01*
X96585991Y-75502647D01*
X96574199Y-75494178D01*
X96562486Y-75500725D01*
X94860020Y-77203190D01*
X94852408Y-77217131D01*
X94122357Y-77217131D01*
X94123592Y-77214869D01*
X94123461Y-77213034D01*
X94119210Y-77206420D01*
X92414445Y-75501656D01*
X92401510Y-75494592D01*
X92390949Y-75502252D01*
X92270766Y-75653072D01*
X92266410Y-75659270D01*
X92099059Y-75930764D01*
X92095479Y-75937440D01*
X91961956Y-76227074D01*
X91959206Y-76234125D01*
X91861444Y-76537708D01*
X91859561Y-76545041D01*
X91798979Y-76858170D01*
X91797992Y-76865670D01*
X91775467Y-77183802D01*
X91775388Y-77191383D01*
X89815172Y-77191383D01*
X90073931Y-76711483D01*
X90077595Y-76705136D01*
X90399511Y-76183231D01*
X90403539Y-76177107D01*
X90565368Y-75945991D01*
X90755256Y-75674802D01*
X90759627Y-75668932D01*
X90772168Y-75653072D01*
X91012124Y-75349598D01*
X91139950Y-75187936D01*
X91144661Y-75182322D01*
X91191737Y-75129423D01*
X92765917Y-75129423D01*
X92772520Y-75141309D01*
X94475190Y-76843980D01*
X94489131Y-76851592D01*
X94490966Y-76851461D01*
X94497580Y-76847210D01*
X96202559Y-75142230D01*
X96209571Y-75129389D01*
X96201777Y-75118701D01*
X96039298Y-74990613D01*
X96033075Y-74986288D01*
X95760702Y-74820357D01*
X95754025Y-74816822D01*
X95463686Y-74684813D01*
X95456616Y-74682099D01*
X95152537Y-74585932D01*
X95145186Y-74584085D01*
X94831746Y-74525142D01*
X94824237Y-74524194D01*
X94505989Y-74503335D01*
X94498424Y-74503295D01*
X94179964Y-74520821D01*
X94172450Y-74521690D01*
X93858405Y-74577348D01*
X93851044Y-74579115D01*
X93545980Y-74672092D01*
X93538860Y-74674740D01*
X93247182Y-74803690D01*
X93240445Y-74807167D01*
X92966355Y-74970233D01*
X92960091Y-74974490D01*
X92774385Y-75117762D01*
X92765917Y-75129423D01*
X91191737Y-75129423D01*
X91552309Y-74724251D01*
X91557339Y-74718920D01*
X91990920Y-74285339D01*
X91996251Y-74280309D01*
X92454322Y-73872661D01*
X92459936Y-73867950D01*
X92757035Y-73633034D01*
X92940941Y-73487620D01*
X92946802Y-73483256D01*
X93449107Y-73131539D01*
X93455231Y-73127511D01*
X93977136Y-72805595D01*
X93983483Y-72801931D01*
X94523201Y-72510918D01*
X94529751Y-72507628D01*
X95085497Y-72248479D01*
X95092227Y-72245576D01*
X95662088Y-72019185D01*
X95668975Y-72016678D01*
X96251050Y-71823799D01*
X96258072Y-71821697D01*
X96850369Y-71662992D01*
X96857500Y-71661302D01*
X97082796Y-71614782D01*
X97458029Y-71537302D01*
X97465221Y-71536034D01*
X97884041Y-71474686D01*
X98071948Y-71447162D01*
X98079227Y-71446311D01*
X98318489Y-71425378D01*
X98690099Y-71392867D01*
X98697399Y-71392442D01*
X99269034Y-71375808D01*
X99292085Y-71377256D01*
X99298850Y-71378310D01*
X99298856Y-71378310D01*
X99307724Y-71379691D01*
X99316626Y-71378527D01*
X99316628Y-71378527D01*
X99331677Y-71376559D01*
X99339286Y-71375564D01*
X99355621Y-71374500D01*
X165812633Y-71374500D01*
X165832018Y-71376000D01*
G37*
G04 #@! TD.AperFunction*
G04 #@! TA.AperFunction,Conductor*
G36*
X151867127Y-104793502D02*
G01*
X151888101Y-104810405D01*
X154657969Y-107580273D01*
X154691995Y-107642585D01*
X154686930Y-107713400D01*
X154644383Y-107770236D01*
X154622124Y-107783563D01*
X154552238Y-107816151D01*
X154552233Y-107816154D01*
X154547251Y-107818477D01*
X154484863Y-107862162D01*
X154364211Y-107946643D01*
X154364208Y-107946645D01*
X154359700Y-107949802D01*
X154197802Y-108111700D01*
X154194643Y-108116211D01*
X154191108Y-108120424D01*
X154190140Y-108119612D01*
X154139506Y-108160090D01*
X154068887Y-108167404D01*
X154005524Y-108135376D01*
X153969536Y-108074177D01*
X153966480Y-108057099D01*
X153966105Y-108053648D01*
X153962479Y-108038396D01*
X153917324Y-107917946D01*
X153908786Y-107902351D01*
X153832285Y-107800276D01*
X153819724Y-107787715D01*
X153717649Y-107711214D01*
X153702054Y-107702676D01*
X153581606Y-107657522D01*
X153566351Y-107653895D01*
X153515486Y-107648369D01*
X153508672Y-107648000D01*
X152936115Y-107648000D01*
X152920876Y-107652475D01*
X152919671Y-107653865D01*
X152918000Y-107661548D01*
X152918000Y-109084000D01*
X152897998Y-109152121D01*
X152844342Y-109198614D01*
X152792000Y-109210000D01*
X151374116Y-109210000D01*
X151358877Y-109214475D01*
X151357672Y-109215865D01*
X151356001Y-109223548D01*
X151356001Y-109800669D01*
X151356371Y-109807490D01*
X151361895Y-109858352D01*
X151365521Y-109873604D01*
X151410676Y-109994054D01*
X151419214Y-110009649D01*
X151495715Y-110111724D01*
X151508276Y-110124285D01*
X151610351Y-110200786D01*
X151625946Y-110209324D01*
X151746394Y-110254478D01*
X151761649Y-110258105D01*
X151812514Y-110263631D01*
X151819328Y-110264000D01*
X152273906Y-110264000D01*
X152342027Y-110284002D01*
X152388520Y-110337658D01*
X152398624Y-110407932D01*
X152369130Y-110472512D01*
X152363006Y-110479089D01*
X150691000Y-112151095D01*
X150628688Y-112185121D01*
X150601905Y-112188000D01*
X150062500Y-112188000D01*
X149994379Y-112167998D01*
X149947886Y-112114342D01*
X149936500Y-112062000D01*
X149936500Y-112021600D01*
X149925526Y-111915834D01*
X149913873Y-111880904D01*
X149871868Y-111755002D01*
X149869550Y-111748054D01*
X149776478Y-111597652D01*
X149651303Y-111472695D01*
X149595795Y-111438479D01*
X149506968Y-111383725D01*
X149506966Y-111383724D01*
X149500738Y-111379885D01*
X149420995Y-111353436D01*
X149339389Y-111326368D01*
X149339387Y-111326368D01*
X149332861Y-111324203D01*
X149326025Y-111323503D01*
X149326022Y-111323502D01*
X149282969Y-111319091D01*
X149228400Y-111313500D01*
X148427600Y-111313500D01*
X148424354Y-111313837D01*
X148424350Y-111313837D01*
X148328692Y-111323762D01*
X148328688Y-111323763D01*
X148321834Y-111324474D01*
X148315298Y-111326655D01*
X148315296Y-111326655D01*
X148210665Y-111361563D01*
X148154054Y-111380450D01*
X148003652Y-111473522D01*
X147998479Y-111478704D01*
X147917216Y-111560109D01*
X147854934Y-111594188D01*
X147784114Y-111589185D01*
X147739025Y-111560264D01*
X147656483Y-111477866D01*
X147651303Y-111472695D01*
X147595795Y-111438479D01*
X147506968Y-111383725D01*
X147506966Y-111383724D01*
X147500738Y-111379885D01*
X147420995Y-111353436D01*
X147339389Y-111326368D01*
X147339387Y-111326368D01*
X147332861Y-111324203D01*
X147326025Y-111323503D01*
X147326022Y-111323502D01*
X147282969Y-111319091D01*
X147228400Y-111313500D01*
X146427600Y-111313500D01*
X146424354Y-111313837D01*
X146424350Y-111313837D01*
X146328692Y-111323762D01*
X146328688Y-111323763D01*
X146321834Y-111324474D01*
X146315298Y-111326655D01*
X146315296Y-111326655D01*
X146210665Y-111361563D01*
X146154054Y-111380450D01*
X146003652Y-111473522D01*
X145878695Y-111598697D01*
X145785885Y-111749262D01*
X145783581Y-111756209D01*
X145783205Y-111757016D01*
X145736290Y-111810302D01*
X145668013Y-111829765D01*
X145600052Y-111809225D01*
X145554909Y-111757222D01*
X145553866Y-111754995D01*
X145551550Y-111748054D01*
X145458478Y-111597652D01*
X145333303Y-111472695D01*
X145277795Y-111438479D01*
X145188968Y-111383725D01*
X145188966Y-111383724D01*
X145182738Y-111379885D01*
X145102995Y-111353436D01*
X145021389Y-111326368D01*
X145021387Y-111326368D01*
X145014861Y-111324203D01*
X145008025Y-111323503D01*
X145008022Y-111323502D01*
X144964969Y-111319091D01*
X144910400Y-111313500D01*
X144109600Y-111313500D01*
X144106354Y-111313837D01*
X144106350Y-111313837D01*
X144010692Y-111323762D01*
X144010688Y-111323763D01*
X144003834Y-111324474D01*
X143997298Y-111326655D01*
X143997296Y-111326655D01*
X143892665Y-111361563D01*
X143836054Y-111380450D01*
X143685652Y-111473522D01*
X143680479Y-111478704D01*
X143599216Y-111560109D01*
X143536934Y-111594188D01*
X143466114Y-111589185D01*
X143421025Y-111560264D01*
X143338483Y-111477866D01*
X143333303Y-111472695D01*
X143187384Y-111382749D01*
X143139891Y-111329977D01*
X143127500Y-111275489D01*
X143127500Y-108683885D01*
X151356000Y-108683885D01*
X151360475Y-108699124D01*
X151361865Y-108700329D01*
X151369548Y-108702000D01*
X152391885Y-108702000D01*
X152407124Y-108697525D01*
X152408329Y-108696135D01*
X152410000Y-108688452D01*
X152410000Y-107666116D01*
X152405525Y-107650877D01*
X152404135Y-107649672D01*
X152396452Y-107648001D01*
X151819331Y-107648001D01*
X151812510Y-107648371D01*
X151761648Y-107653895D01*
X151746396Y-107657521D01*
X151625946Y-107702676D01*
X151610351Y-107711214D01*
X151508276Y-107787715D01*
X151495715Y-107800276D01*
X151419214Y-107902351D01*
X151410676Y-107917946D01*
X151365522Y-108038394D01*
X151361895Y-108053649D01*
X151356369Y-108104514D01*
X151356000Y-108111328D01*
X151356000Y-108683885D01*
X143127500Y-108683885D01*
X143127500Y-107916781D01*
X143147502Y-107848660D01*
X143187197Y-107809637D01*
X143222623Y-107787715D01*
X143318348Y-107728478D01*
X143443305Y-107603303D01*
X143463658Y-107570284D01*
X143532275Y-107458968D01*
X143532276Y-107458966D01*
X143536115Y-107452738D01*
X143591797Y-107284861D01*
X143602500Y-107180400D01*
X143602500Y-106179600D01*
X143591526Y-106073834D01*
X143535550Y-105906054D01*
X143442478Y-105755652D01*
X143317303Y-105630695D01*
X143311072Y-105626854D01*
X143187384Y-105550611D01*
X143139890Y-105497838D01*
X143127500Y-105443351D01*
X143127500Y-105376781D01*
X143147502Y-105308660D01*
X143187197Y-105269637D01*
X143312120Y-105192332D01*
X143318348Y-105188478D01*
X143443305Y-105063303D01*
X143536115Y-104912738D01*
X143553663Y-104859832D01*
X143594094Y-104801473D01*
X143659658Y-104774236D01*
X143673256Y-104773500D01*
X151799006Y-104773500D01*
X151867127Y-104793502D01*
G37*
G04 #@! TD.AperFunction*
M02*
