G04 #@! TF.GenerationSoftware,KiCad,Pcbnew,(6.0.9)*
G04 #@! TF.CreationDate,2022-12-03T19:31:09+08:00*
G04 #@! TF.ProjectId,low_battery_voltage_alarm,6c6f775f-6261-4747-9465-72795f766f6c,rev?*
G04 #@! TF.SameCoordinates,Original*
G04 #@! TF.FileFunction,Soldermask,Top*
G04 #@! TF.FilePolarity,Negative*
%FSLAX46Y46*%
G04 Gerber Fmt 4.6, Leading zero omitted, Abs format (unit mm)*
G04 Created by KiCad (PCBNEW (6.0.9)) date 2022-12-03 19:31:09*
%MOMM*%
%LPD*%
G01*
G04 APERTURE LIST*
G04 Aperture macros list*
%AMRoundRect*
0 Rectangle with rounded corners*
0 $1 Rounding radius*
0 $2 $3 $4 $5 $6 $7 $8 $9 X,Y pos of 4 corners*
0 Add a 4 corners polygon primitive as box body*
4,1,4,$2,$3,$4,$5,$6,$7,$8,$9,$2,$3,0*
0 Add four circle primitives for the rounded corners*
1,1,$1+$1,$2,$3*
1,1,$1+$1,$4,$5*
1,1,$1+$1,$6,$7*
1,1,$1+$1,$8,$9*
0 Add four rect primitives between the rounded corners*
20,1,$1+$1,$2,$3,$4,$5,0*
20,1,$1+$1,$4,$5,$6,$7,0*
20,1,$1+$1,$6,$7,$8,$9,0*
20,1,$1+$1,$8,$9,$2,$3,0*%
%AMFreePoly0*
4,1,22,0.500000,-0.750000,0.000000,-0.750000,0.000000,-0.745033,-0.079941,-0.743568,-0.215256,-0.701293,-0.333266,-0.622738,-0.424486,-0.514219,-0.481581,-0.384460,-0.499164,-0.250000,-0.500000,-0.250000,-0.500000,0.250000,-0.499164,0.250000,-0.499963,0.256109,-0.478152,0.396186,-0.417904,0.524511,-0.324060,0.630769,-0.204165,0.706417,-0.067858,0.745374,0.000000,0.744959,0.000000,0.750000,
0.500000,0.750000,0.500000,-0.750000,0.500000,-0.750000,$1*%
%AMFreePoly1*
4,1,20,0.000000,0.744959,0.073905,0.744508,0.209726,0.703889,0.328688,0.626782,0.421226,0.519385,0.479903,0.390333,0.500000,0.250000,0.500000,-0.250000,0.499851,-0.262216,0.476331,-0.402017,0.414519,-0.529596,0.319384,-0.634700,0.198574,-0.708877,0.061801,-0.746166,0.000000,-0.745033,0.000000,-0.750000,-0.500000,-0.750000,-0.500000,0.750000,0.000000,0.750000,0.000000,0.744959,
0.000000,0.744959,$1*%
G04 Aperture macros list end*
%ADD10FreePoly0,90.000000*%
%ADD11FreePoly1,90.000000*%
%ADD12RoundRect,0.250000X-0.600000X-0.750000X0.600000X-0.750000X0.600000X0.750000X-0.600000X0.750000X0*%
%ADD13O,1.700000X2.000000*%
%ADD14RoundRect,0.150000X-0.587500X-0.150000X0.587500X-0.150000X0.587500X0.150000X-0.587500X0.150000X0*%
%ADD15R,2.000000X2.000000*%
%ADD16C,2.000000*%
%ADD17RoundRect,0.250000X-0.475000X0.337500X-0.475000X-0.337500X0.475000X-0.337500X0.475000X0.337500X0*%
%ADD18RoundRect,0.250000X0.350000X0.450000X-0.350000X0.450000X-0.350000X-0.450000X0.350000X-0.450000X0*%
%ADD19RoundRect,0.250000X0.450000X-0.350000X0.450000X0.350000X-0.450000X0.350000X-0.450000X-0.350000X0*%
%ADD20R,1.600000X1.600000*%
%ADD21C,1.600000*%
%ADD22O,1.600000X1.600000*%
%ADD23R,1.560000X1.560000*%
%ADD24C,1.560000*%
%ADD25C,2.200000*%
%ADD26RoundRect,0.250000X-0.750000X0.600000X-0.750000X-0.600000X0.750000X-0.600000X0.750000X0.600000X0*%
%ADD27O,2.000000X1.700000*%
%ADD28C,3.200000*%
%ADD29C,4.400000*%
%ADD30RoundRect,0.250000X-0.550000X-0.550000X0.550000X-0.550000X0.550000X0.550000X-0.550000X0.550000X0*%
%ADD31RoundRect,0.250000X-0.450000X0.350000X-0.450000X-0.350000X0.450000X-0.350000X0.450000X0.350000X0*%
%ADD32R,1.800000X1.800000*%
%ADD33C,1.800000*%
%ADD34RoundRect,0.250000X-0.350000X-0.450000X0.350000X-0.450000X0.350000X0.450000X-0.350000X0.450000X0*%
G04 APERTURE END LIST*
D10*
X137922000Y-106314000D03*
D11*
X137922000Y-105014000D03*
D12*
X169204000Y-90424000D03*
D13*
X171704000Y-90424000D03*
D14*
X148160500Y-78552000D03*
X148160500Y-80452000D03*
X150035500Y-79502000D03*
D15*
X137668000Y-114300000D03*
D16*
X130068000Y-114300000D03*
D17*
X165100000Y-101070500D03*
X165100000Y-103145500D03*
D18*
X144510000Y-112522000D03*
X142510000Y-112522000D03*
D19*
X141732000Y-108696000D03*
X141732000Y-106696000D03*
D20*
X153924000Y-116521100D03*
D21*
X153924000Y-114021100D03*
D20*
X152664000Y-108956000D03*
D22*
X155204000Y-108956000D03*
X157744000Y-108956000D03*
X160284000Y-108956000D03*
X160284000Y-101336000D03*
X157744000Y-101336000D03*
X155204000Y-101336000D03*
X152664000Y-101336000D03*
D23*
X143296000Y-116124000D03*
D24*
X145796000Y-121124000D03*
X148296000Y-116124000D03*
D19*
X138684000Y-76946000D03*
X138684000Y-74946000D03*
D25*
X136606000Y-89662000D03*
X162606000Y-89662000D03*
D26*
X128850000Y-95778000D03*
D27*
X128850000Y-98278000D03*
D19*
X135636000Y-76946000D03*
X135636000Y-74946000D03*
D28*
X98806000Y-85598000D03*
D29*
X94488000Y-117856000D03*
X170688000Y-117856000D03*
X94488000Y-77216000D03*
X170688000Y-77216000D03*
D30*
X127486000Y-89662000D03*
D21*
X131086000Y-89662000D03*
D28*
X98806000Y-110236000D03*
X118110000Y-85598000D03*
X118110000Y-110236000D03*
D18*
X148828000Y-112522000D03*
X146828000Y-112522000D03*
D20*
X136906000Y-80518000D03*
D22*
X144526000Y-80518000D03*
D31*
X141732000Y-102378000D03*
X141732000Y-104378000D03*
D32*
X139187000Y-99060000D03*
D33*
X141727000Y-99060000D03*
D23*
X131826000Y-75438000D03*
D24*
X126826000Y-77938000D03*
X131826000Y-80438000D03*
D14*
X154002500Y-78552000D03*
X154002500Y-80452000D03*
X155877500Y-79502000D03*
D34*
X142764000Y-74930000D03*
X144764000Y-74930000D03*
M02*
