G04 #@! TF.GenerationSoftware,KiCad,Pcbnew,(6.0.9)*
G04 #@! TF.CreationDate,2022-11-09T23:13:12+08:00*
G04 #@! TF.ProjectId,low_battery_voltage_alarm,6c6f775f-6261-4747-9465-72795f766f6c,rev?*
G04 #@! TF.SameCoordinates,Original*
G04 #@! TF.FileFunction,Soldermask,Top*
G04 #@! TF.FilePolarity,Negative*
%FSLAX46Y46*%
G04 Gerber Fmt 4.6, Leading zero omitted, Abs format (unit mm)*
G04 Created by KiCad (PCBNEW (6.0.9)) date 2022-11-09 23:13:12*
%MOMM*%
%LPD*%
G01*
G04 APERTURE LIST*
G04 Aperture macros list*
%AMRoundRect*
0 Rectangle with rounded corners*
0 $1 Rounding radius*
0 $2 $3 $4 $5 $6 $7 $8 $9 X,Y pos of 4 corners*
0 Add a 4 corners polygon primitive as box body*
4,1,4,$2,$3,$4,$5,$6,$7,$8,$9,$2,$3,0*
0 Add four circle primitives for the rounded corners*
1,1,$1+$1,$2,$3*
1,1,$1+$1,$4,$5*
1,1,$1+$1,$6,$7*
1,1,$1+$1,$8,$9*
0 Add four rect primitives between the rounded corners*
20,1,$1+$1,$2,$3,$4,$5,0*
20,1,$1+$1,$4,$5,$6,$7,0*
20,1,$1+$1,$6,$7,$8,$9,0*
20,1,$1+$1,$8,$9,$2,$3,0*%
G04 Aperture macros list end*
%ADD10RoundRect,0.250000X-0.600000X-0.750000X0.600000X-0.750000X0.600000X0.750000X-0.600000X0.750000X0*%
%ADD11O,1.700000X2.000000*%
%ADD12RoundRect,0.150000X-0.587500X-0.150000X0.587500X-0.150000X0.587500X0.150000X-0.587500X0.150000X0*%
%ADD13R,2.000000X2.000000*%
%ADD14C,2.000000*%
%ADD15RoundRect,0.250000X-0.475000X0.337500X-0.475000X-0.337500X0.475000X-0.337500X0.475000X0.337500X0*%
%ADD16RoundRect,0.250000X0.350000X0.450000X-0.350000X0.450000X-0.350000X-0.450000X0.350000X-0.450000X0*%
%ADD17RoundRect,0.250000X-0.350000X-0.450000X0.350000X-0.450000X0.350000X0.450000X-0.350000X0.450000X0*%
%ADD18R,1.600000X1.600000*%
%ADD19C,1.600000*%
%ADD20O,1.600000X1.600000*%
%ADD21R,1.560000X1.560000*%
%ADD22C,1.560000*%
%ADD23RoundRect,0.250000X0.450000X-0.350000X0.450000X0.350000X-0.450000X0.350000X-0.450000X-0.350000X0*%
%ADD24C,2.200000*%
%ADD25RoundRect,0.250000X-0.750000X0.600000X-0.750000X-0.600000X0.750000X-0.600000X0.750000X0.600000X0*%
%ADD26O,2.000000X1.700000*%
%ADD27C,3.200000*%
%ADD28C,4.400000*%
%ADD29RoundRect,0.250000X-0.550000X-0.550000X0.550000X-0.550000X0.550000X0.550000X-0.550000X0.550000X0*%
%ADD30R,2.200000X1.500000*%
%ADD31R,1.800000X1.800000*%
%ADD32C,1.800000*%
G04 APERTURE END LIST*
D10*
X169204000Y-90424000D03*
D11*
X171704000Y-90424000D03*
D12*
X142826500Y-78552000D03*
X142826500Y-80452000D03*
X144701500Y-79502000D03*
D13*
X137668000Y-114300000D03*
D14*
X130068000Y-114300000D03*
D15*
X165100000Y-101070500D03*
X165100000Y-103145500D03*
D16*
X144510000Y-112522000D03*
X142510000Y-112522000D03*
D17*
X140494000Y-106680000D03*
X142494000Y-106680000D03*
D18*
X153924000Y-116521100D03*
D19*
X153924000Y-114021100D03*
D18*
X152664000Y-108956000D03*
D20*
X155204000Y-108956000D03*
X157744000Y-108956000D03*
X160284000Y-108956000D03*
X160284000Y-101336000D03*
X157744000Y-101336000D03*
X155204000Y-101336000D03*
X152664000Y-101336000D03*
D21*
X143296000Y-116124000D03*
D22*
X145796000Y-121124000D03*
X148296000Y-116124000D03*
D23*
X138684000Y-76946000D03*
X138684000Y-74946000D03*
D24*
X136606000Y-89662000D03*
X162606000Y-89662000D03*
D25*
X128850000Y-95778000D03*
D26*
X128850000Y-98278000D03*
D23*
X135636000Y-76946000D03*
X135636000Y-74946000D03*
D27*
X98806000Y-85598000D03*
D28*
X94488000Y-117856000D03*
X170688000Y-117856000D03*
X94488000Y-77216000D03*
X170688000Y-77216000D03*
D29*
X127486000Y-89662000D03*
D19*
X131086000Y-89662000D03*
D27*
X98806000Y-110236000D03*
X118110000Y-85598000D03*
X118110000Y-110236000D03*
D16*
X148828000Y-112522000D03*
X146828000Y-112522000D03*
D30*
X135964000Y-80518000D03*
X138864000Y-80518000D03*
D17*
X140494000Y-104140000D03*
X142494000Y-104140000D03*
D31*
X139187000Y-99060000D03*
D32*
X141727000Y-99060000D03*
D21*
X131826000Y-75438000D03*
D22*
X126826000Y-77938000D03*
X131826000Y-80438000D03*
D12*
X148922500Y-78552000D03*
X148922500Y-80452000D03*
X150797500Y-79502000D03*
D17*
X142764000Y-74930000D03*
X144764000Y-74930000D03*
M02*
