M48
; DRILL file {KiCad (6.0.9)} date Wed Nov  9 23:13:17 2022
; FORMAT={-:-/ absolute / metric / decimal}
; #@! TF.CreationDate,2022-11-09T23:13:17+08:00
; #@! TF.GenerationSoftware,Kicad,Pcbnew,(6.0.9)
; #@! TF.FileFunction,MixedPlating,1,2
FMAT,2
METRIC
; #@! TA.AperFunction,Plated,PTH,ComponentDrill
T1C0.600
; #@! TA.AperFunction,Plated,PTH,ComponentDrill
T2C0.800
; #@! TA.AperFunction,Plated,PTH,ComponentDrill
T3C0.900
; #@! TA.AperFunction,Plated,PTH,ComponentDrill
T4C1.000
; #@! TA.AperFunction,Plated,PTH,ComponentDrill
T5C2.200
; #@! TA.AperFunction,NonPlated,NPTH,ComponentDrill
T6C2.200
; #@! TA.AperFunction,NonPlated,NPTH,ComponentDrill
T7C3.200
%
G90
G05
T1
X127.486Y-89.662
X131.086Y-89.662
T2
X152.664Y-101.336
X152.664Y-108.956
X153.924Y-114.021
X153.924Y-116.521
X155.204Y-101.336
X155.204Y-108.956
X157.744Y-101.336
X157.744Y-108.956
X160.284Y-101.336
X160.284Y-108.956
T3
X139.187Y-99.06
X141.727Y-99.06
T4
X126.826Y-77.938
X128.85Y-95.778
X128.85Y-98.278
X130.068Y-114.3
X131.826Y-75.438
X131.826Y-80.438
X137.668Y-114.3
X143.296Y-116.124
X145.796Y-121.124
X148.296Y-116.124
X169.204Y-90.424
X171.704Y-90.424
T5
X94.488Y-77.216
X94.488Y-117.856
X170.688Y-77.216
X170.688Y-117.856
T6
X136.606Y-89.662
X162.606Y-89.662
T7
X98.806Y-85.598
X98.806Y-110.236
X118.11Y-85.598
X118.11Y-110.236
T0
M30
