G04 #@! TF.GenerationSoftware,KiCad,Pcbnew,(6.0.9)*
G04 #@! TF.CreationDate,2022-12-03T19:31:09+08:00*
G04 #@! TF.ProjectId,low_battery_voltage_alarm,6c6f775f-6261-4747-9465-72795f766f6c,rev?*
G04 #@! TF.SameCoordinates,Original*
G04 #@! TF.FileFunction,Legend,Top*
G04 #@! TF.FilePolarity,Positive*
%FSLAX46Y46*%
G04 Gerber Fmt 4.6, Leading zero omitted, Abs format (unit mm)*
G04 Created by KiCad (PCBNEW (6.0.9)) date 2022-12-03 19:31:09*
%MOMM*%
%LPD*%
G01*
G04 APERTURE LIST*
G04 Aperture macros list*
%AMRoundRect*
0 Rectangle with rounded corners*
0 $1 Rounding radius*
0 $2 $3 $4 $5 $6 $7 $8 $9 X,Y pos of 4 corners*
0 Add a 4 corners polygon primitive as box body*
4,1,4,$2,$3,$4,$5,$6,$7,$8,$9,$2,$3,0*
0 Add four circle primitives for the rounded corners*
1,1,$1+$1,$2,$3*
1,1,$1+$1,$4,$5*
1,1,$1+$1,$6,$7*
1,1,$1+$1,$8,$9*
0 Add four rect primitives between the rounded corners*
20,1,$1+$1,$2,$3,$4,$5,0*
20,1,$1+$1,$4,$5,$6,$7,0*
20,1,$1+$1,$6,$7,$8,$9,0*
20,1,$1+$1,$8,$9,$2,$3,0*%
%AMFreePoly0*
4,1,22,0.500000,-0.750000,0.000000,-0.750000,0.000000,-0.745033,-0.079941,-0.743568,-0.215256,-0.701293,-0.333266,-0.622738,-0.424486,-0.514219,-0.481581,-0.384460,-0.499164,-0.250000,-0.500000,-0.250000,-0.500000,0.250000,-0.499164,0.250000,-0.499963,0.256109,-0.478152,0.396186,-0.417904,0.524511,-0.324060,0.630769,-0.204165,0.706417,-0.067858,0.745374,0.000000,0.744959,0.000000,0.750000,
0.500000,0.750000,0.500000,-0.750000,0.500000,-0.750000,$1*%
%AMFreePoly1*
4,1,20,0.000000,0.744959,0.073905,0.744508,0.209726,0.703889,0.328688,0.626782,0.421226,0.519385,0.479903,0.390333,0.500000,0.250000,0.500000,-0.250000,0.499851,-0.262216,0.476331,-0.402017,0.414519,-0.529596,0.319384,-0.634700,0.198574,-0.708877,0.061801,-0.746166,0.000000,-0.745033,0.000000,-0.750000,-0.500000,-0.750000,-0.500000,0.750000,0.000000,0.750000,0.000000,0.744959,
0.000000,0.744959,$1*%
G04 Aperture macros list end*
%ADD10C,0.300000*%
%ADD11C,0.250000*%
%ADD12C,0.150000*%
%ADD13C,0.120000*%
%ADD14C,0.100000*%
%ADD15C,0.050000*%
%ADD16FreePoly0,90.000000*%
%ADD17FreePoly1,90.000000*%
%ADD18RoundRect,0.250000X-0.600000X-0.750000X0.600000X-0.750000X0.600000X0.750000X-0.600000X0.750000X0*%
%ADD19O,1.700000X2.000000*%
%ADD20RoundRect,0.150000X-0.587500X-0.150000X0.587500X-0.150000X0.587500X0.150000X-0.587500X0.150000X0*%
%ADD21R,2.000000X2.000000*%
%ADD22C,2.000000*%
%ADD23RoundRect,0.250000X-0.475000X0.337500X-0.475000X-0.337500X0.475000X-0.337500X0.475000X0.337500X0*%
%ADD24RoundRect,0.250000X0.350000X0.450000X-0.350000X0.450000X-0.350000X-0.450000X0.350000X-0.450000X0*%
%ADD25RoundRect,0.250000X0.450000X-0.350000X0.450000X0.350000X-0.450000X0.350000X-0.450000X-0.350000X0*%
%ADD26R,1.600000X1.600000*%
%ADD27C,1.600000*%
%ADD28O,1.600000X1.600000*%
%ADD29R,1.560000X1.560000*%
%ADD30C,1.560000*%
%ADD31C,2.200000*%
%ADD32RoundRect,0.250000X-0.750000X0.600000X-0.750000X-0.600000X0.750000X-0.600000X0.750000X0.600000X0*%
%ADD33O,2.000000X1.700000*%
%ADD34C,3.200000*%
%ADD35C,4.400000*%
%ADD36RoundRect,0.250000X-0.550000X-0.550000X0.550000X-0.550000X0.550000X0.550000X-0.550000X0.550000X0*%
%ADD37RoundRect,0.250000X-0.450000X0.350000X-0.450000X-0.350000X0.450000X-0.350000X0.450000X0.350000X0*%
%ADD38R,1.800000X1.800000*%
%ADD39C,1.800000*%
%ADD40RoundRect,0.250000X-0.350000X-0.450000X0.350000X-0.450000X0.350000X0.450000X-0.350000X0.450000X0*%
G04 APERTURE END LIST*
D10*
X131000571Y-96373142D02*
X132143428Y-96373142D01*
X131572000Y-96944571D02*
X131572000Y-95801714D01*
X168592571Y-86975142D02*
X169735428Y-86975142D01*
X169164000Y-87546571D02*
X169164000Y-86403714D01*
D11*
X124626666Y-81085142D02*
X124626666Y-80370857D01*
X124912380Y-81228000D02*
X123912380Y-80728000D01*
X124912380Y-80228000D01*
X124912380Y-79085142D02*
X123912380Y-79085142D01*
X124864761Y-79085142D02*
X124912380Y-79228000D01*
X124912380Y-79513714D01*
X124864761Y-79656571D01*
X124817142Y-79728000D01*
X124721904Y-79799428D01*
X124436190Y-79799428D01*
X124340952Y-79728000D01*
X124293333Y-79656571D01*
X124245714Y-79513714D01*
X124245714Y-79228000D01*
X124293333Y-79085142D01*
X124245714Y-78370857D02*
X125102857Y-78370857D01*
X125198095Y-78442285D01*
X125245714Y-78585142D01*
X125245714Y-78656571D01*
X123912380Y-78370857D02*
X123960000Y-78442285D01*
X124007619Y-78370857D01*
X123960000Y-78299428D01*
X123912380Y-78370857D01*
X124007619Y-78370857D01*
X124245714Y-77013714D02*
X124912380Y-77013714D01*
X124245714Y-77656571D02*
X124769523Y-77656571D01*
X124864761Y-77585142D01*
X124912380Y-77442285D01*
X124912380Y-77228000D01*
X124864761Y-77085142D01*
X124817142Y-77013714D01*
X124864761Y-76370857D02*
X124912380Y-76228000D01*
X124912380Y-75942285D01*
X124864761Y-75799428D01*
X124769523Y-75728000D01*
X124721904Y-75728000D01*
X124626666Y-75799428D01*
X124579047Y-75942285D01*
X124579047Y-76156571D01*
X124531428Y-76299428D01*
X124436190Y-76370857D01*
X124388571Y-76370857D01*
X124293333Y-76299428D01*
X124245714Y-76156571D01*
X124245714Y-75942285D01*
X124293333Y-75799428D01*
X124245714Y-75299428D02*
X124245714Y-74728000D01*
X123912380Y-75085142D02*
X124769523Y-75085142D01*
X124864761Y-75013714D01*
X124912380Y-74870857D01*
X124912380Y-74728000D01*
D10*
X92118571Y-111536000D02*
X92118571Y-112250285D01*
X90618571Y-112250285D01*
X92118571Y-110821714D02*
X92047142Y-110964571D01*
X91975714Y-111036000D01*
X91832857Y-111107428D01*
X91404285Y-111107428D01*
X91261428Y-111036000D01*
X91190000Y-110964571D01*
X91118571Y-110821714D01*
X91118571Y-110607428D01*
X91190000Y-110464571D01*
X91261428Y-110393142D01*
X91404285Y-110321714D01*
X91832857Y-110321714D01*
X91975714Y-110393142D01*
X92047142Y-110464571D01*
X92118571Y-110607428D01*
X92118571Y-110821714D01*
X91118571Y-109821714D02*
X92118571Y-109536000D01*
X91404285Y-109250285D01*
X92118571Y-108964571D01*
X91118571Y-108678857D01*
X91332857Y-106464571D02*
X91404285Y-106250285D01*
X91475714Y-106178857D01*
X91618571Y-106107428D01*
X91832857Y-106107428D01*
X91975714Y-106178857D01*
X92047142Y-106250285D01*
X92118571Y-106393142D01*
X92118571Y-106964571D01*
X90618571Y-106964571D01*
X90618571Y-106464571D01*
X90690000Y-106321714D01*
X90761428Y-106250285D01*
X90904285Y-106178857D01*
X91047142Y-106178857D01*
X91190000Y-106250285D01*
X91261428Y-106321714D01*
X91332857Y-106464571D01*
X91332857Y-106964571D01*
X92118571Y-104821714D02*
X91332857Y-104821714D01*
X91190000Y-104893142D01*
X91118571Y-105036000D01*
X91118571Y-105321714D01*
X91190000Y-105464571D01*
X92047142Y-104821714D02*
X92118571Y-104964571D01*
X92118571Y-105321714D01*
X92047142Y-105464571D01*
X91904285Y-105536000D01*
X91761428Y-105536000D01*
X91618571Y-105464571D01*
X91547142Y-105321714D01*
X91547142Y-104964571D01*
X91475714Y-104821714D01*
X91118571Y-104321714D02*
X91118571Y-103750285D01*
X90618571Y-104107428D02*
X91904285Y-104107428D01*
X92047142Y-104036000D01*
X92118571Y-103893142D01*
X92118571Y-103750285D01*
X91118571Y-103464571D02*
X91118571Y-102893142D01*
X90618571Y-103250285D02*
X91904285Y-103250285D01*
X92047142Y-103178857D01*
X92118571Y-103036000D01*
X92118571Y-102893142D01*
X92047142Y-101821714D02*
X92118571Y-101964571D01*
X92118571Y-102250285D01*
X92047142Y-102393142D01*
X91904285Y-102464571D01*
X91332857Y-102464571D01*
X91190000Y-102393142D01*
X91118571Y-102250285D01*
X91118571Y-101964571D01*
X91190000Y-101821714D01*
X91332857Y-101750285D01*
X91475714Y-101750285D01*
X91618571Y-102464571D01*
X92118571Y-101107428D02*
X91118571Y-101107428D01*
X91404285Y-101107428D02*
X91261428Y-101036000D01*
X91190000Y-100964571D01*
X91118571Y-100821714D01*
X91118571Y-100678857D01*
X91118571Y-100321714D02*
X92118571Y-99964571D01*
X91118571Y-99607428D02*
X92118571Y-99964571D01*
X92475714Y-100107428D01*
X92547142Y-100178857D01*
X92618571Y-100321714D01*
X90618571Y-98107428D02*
X92118571Y-97607428D01*
X90618571Y-97107428D01*
X92118571Y-96393142D02*
X92047142Y-96536000D01*
X91975714Y-96607428D01*
X91832857Y-96678857D01*
X91404285Y-96678857D01*
X91261428Y-96607428D01*
X91190000Y-96536000D01*
X91118571Y-96393142D01*
X91118571Y-96178857D01*
X91190000Y-96036000D01*
X91261428Y-95964571D01*
X91404285Y-95893142D01*
X91832857Y-95893142D01*
X91975714Y-95964571D01*
X92047142Y-96036000D01*
X92118571Y-96178857D01*
X92118571Y-96393142D01*
X92118571Y-95036000D02*
X92047142Y-95178857D01*
X91904285Y-95250285D01*
X90618571Y-95250285D01*
X91118571Y-94678857D02*
X91118571Y-94107428D01*
X90618571Y-94464571D02*
X91904285Y-94464571D01*
X92047142Y-94393142D01*
X92118571Y-94250285D01*
X92118571Y-94107428D01*
X92118571Y-92964571D02*
X91332857Y-92964571D01*
X91190000Y-93036000D01*
X91118571Y-93178857D01*
X91118571Y-93464571D01*
X91190000Y-93607428D01*
X92047142Y-92964571D02*
X92118571Y-93107428D01*
X92118571Y-93464571D01*
X92047142Y-93607428D01*
X91904285Y-93678857D01*
X91761428Y-93678857D01*
X91618571Y-93607428D01*
X91547142Y-93464571D01*
X91547142Y-93107428D01*
X91475714Y-92964571D01*
X91118571Y-91607428D02*
X92332857Y-91607428D01*
X92475714Y-91678857D01*
X92547142Y-91750285D01*
X92618571Y-91893142D01*
X92618571Y-92107428D01*
X92547142Y-92250285D01*
X92047142Y-91607428D02*
X92118571Y-91750285D01*
X92118571Y-92036000D01*
X92047142Y-92178857D01*
X91975714Y-92250285D01*
X91832857Y-92321714D01*
X91404285Y-92321714D01*
X91261428Y-92250285D01*
X91190000Y-92178857D01*
X91118571Y-92036000D01*
X91118571Y-91750285D01*
X91190000Y-91607428D01*
X92047142Y-90321714D02*
X92118571Y-90464571D01*
X92118571Y-90750285D01*
X92047142Y-90893142D01*
X91904285Y-90964571D01*
X91332857Y-90964571D01*
X91190000Y-90893142D01*
X91118571Y-90750285D01*
X91118571Y-90464571D01*
X91190000Y-90321714D01*
X91332857Y-90250285D01*
X91475714Y-90250285D01*
X91618571Y-90964571D01*
X91690000Y-88536000D02*
X91690000Y-87821714D01*
X92118571Y-88678857D02*
X90618571Y-88178857D01*
X92118571Y-87678857D01*
X92118571Y-86964571D02*
X92047142Y-87107428D01*
X91904285Y-87178857D01*
X90618571Y-87178857D01*
X92118571Y-85750285D02*
X91332857Y-85750285D01*
X91190000Y-85821714D01*
X91118571Y-85964571D01*
X91118571Y-86250285D01*
X91190000Y-86393142D01*
X92047142Y-85750285D02*
X92118571Y-85893142D01*
X92118571Y-86250285D01*
X92047142Y-86393142D01*
X91904285Y-86464571D01*
X91761428Y-86464571D01*
X91618571Y-86393142D01*
X91547142Y-86250285D01*
X91547142Y-85893142D01*
X91475714Y-85750285D01*
X92118571Y-85035999D02*
X91118571Y-85035999D01*
X91404285Y-85035999D02*
X91261428Y-84964571D01*
X91190000Y-84893142D01*
X91118571Y-84750285D01*
X91118571Y-84607428D01*
X92118571Y-84107428D02*
X91118571Y-84107428D01*
X91261428Y-84107428D02*
X91190000Y-84035999D01*
X91118571Y-83893142D01*
X91118571Y-83678857D01*
X91190000Y-83535999D01*
X91332857Y-83464571D01*
X92118571Y-83464571D01*
X91332857Y-83464571D02*
X91190000Y-83393142D01*
X91118571Y-83250285D01*
X91118571Y-83035999D01*
X91190000Y-82893142D01*
X91332857Y-82821714D01*
X92118571Y-82821714D01*
D12*
X135574380Y-106497333D02*
X136288666Y-106497333D01*
X136431523Y-106544952D01*
X136526761Y-106640190D01*
X136574380Y-106783047D01*
X136574380Y-106878285D01*
X136574380Y-106021142D02*
X135574380Y-106021142D01*
X135574380Y-105640190D01*
X135622000Y-105544952D01*
X135669619Y-105497333D01*
X135764857Y-105449714D01*
X135907714Y-105449714D01*
X136002952Y-105497333D01*
X136050571Y-105544952D01*
X136098190Y-105640190D01*
X136098190Y-106021142D01*
X136574380Y-104497333D02*
X136574380Y-105068761D01*
X136574380Y-104783047D02*
X135574380Y-104783047D01*
X135717238Y-104878285D01*
X135812476Y-104973523D01*
X135860095Y-105068761D01*
X170120666Y-84776380D02*
X170120666Y-85490666D01*
X170073047Y-85633523D01*
X169977809Y-85728761D01*
X169834952Y-85776380D01*
X169739714Y-85776380D01*
X171120666Y-85776380D02*
X170549238Y-85776380D01*
X170834952Y-85776380D02*
X170834952Y-84776380D01*
X170739714Y-84919238D01*
X170644476Y-85014476D01*
X170549238Y-85062095D01*
X149002761Y-77649619D02*
X148907523Y-77602000D01*
X148812285Y-77506761D01*
X148669428Y-77363904D01*
X148574190Y-77316285D01*
X148478952Y-77316285D01*
X148526571Y-77554380D02*
X148431333Y-77506761D01*
X148336095Y-77411523D01*
X148288476Y-77221047D01*
X148288476Y-76887714D01*
X148336095Y-76697238D01*
X148431333Y-76602000D01*
X148526571Y-76554380D01*
X148717047Y-76554380D01*
X148812285Y-76602000D01*
X148907523Y-76697238D01*
X148955142Y-76887714D01*
X148955142Y-77221047D01*
X148907523Y-77411523D01*
X148812285Y-77506761D01*
X148717047Y-77554380D01*
X148526571Y-77554380D01*
X149907523Y-77554380D02*
X149336095Y-77554380D01*
X149621809Y-77554380D02*
X149621809Y-76554380D01*
X149526571Y-76697238D01*
X149431333Y-76792476D01*
X149336095Y-76840095D01*
X132987047Y-121428571D02*
X133129904Y-121476190D01*
X133177523Y-121523809D01*
X133225142Y-121619047D01*
X133225142Y-121761904D01*
X133177523Y-121857142D01*
X133129904Y-121904761D01*
X133034666Y-121952380D01*
X132653714Y-121952380D01*
X132653714Y-120952380D01*
X132987047Y-120952380D01*
X133082285Y-121000000D01*
X133129904Y-121047619D01*
X133177523Y-121142857D01*
X133177523Y-121238095D01*
X133129904Y-121333333D01*
X133082285Y-121380952D01*
X132987047Y-121428571D01*
X132653714Y-121428571D01*
X133558476Y-120952380D02*
X134225142Y-120952380D01*
X133558476Y-121952380D01*
X134225142Y-121952380D01*
X135129904Y-121952380D02*
X134558476Y-121952380D01*
X134844190Y-121952380D02*
X134844190Y-120952380D01*
X134748952Y-121095238D01*
X134653714Y-121190476D01*
X134558476Y-121238095D01*
X137297047Y-116911428D02*
X138058952Y-116911428D01*
X137678000Y-117292380D02*
X137678000Y-116530476D01*
X167137142Y-102274666D02*
X167184761Y-102322285D01*
X167232380Y-102465142D01*
X167232380Y-102560380D01*
X167184761Y-102703238D01*
X167089523Y-102798476D01*
X166994285Y-102846095D01*
X166803809Y-102893714D01*
X166660952Y-102893714D01*
X166470476Y-102846095D01*
X166375238Y-102798476D01*
X166280000Y-102703238D01*
X166232380Y-102560380D01*
X166232380Y-102465142D01*
X166280000Y-102322285D01*
X166327619Y-102274666D01*
X166327619Y-101893714D02*
X166280000Y-101846095D01*
X166232380Y-101750857D01*
X166232380Y-101512761D01*
X166280000Y-101417523D01*
X166327619Y-101369904D01*
X166422857Y-101322285D01*
X166518095Y-101322285D01*
X166660952Y-101369904D01*
X167232380Y-101941333D01*
X167232380Y-101322285D01*
X143343333Y-110942380D02*
X143010000Y-110466190D01*
X142771904Y-110942380D02*
X142771904Y-109942380D01*
X143152857Y-109942380D01*
X143248095Y-109990000D01*
X143295714Y-110037619D01*
X143343333Y-110132857D01*
X143343333Y-110275714D01*
X143295714Y-110370952D01*
X143248095Y-110418571D01*
X143152857Y-110466190D01*
X142771904Y-110466190D01*
X144200476Y-110275714D02*
X144200476Y-110942380D01*
X143962380Y-109894761D02*
X143724285Y-110609047D01*
X144343333Y-110609047D01*
X143962380Y-103544666D02*
X143486190Y-103878000D01*
X143962380Y-104116095D02*
X142962380Y-104116095D01*
X142962380Y-103735142D01*
X143010000Y-103639904D01*
X143057619Y-103592285D01*
X143152857Y-103544666D01*
X143295714Y-103544666D01*
X143390952Y-103592285D01*
X143438571Y-103639904D01*
X143486190Y-103735142D01*
X143486190Y-104116095D01*
X142962380Y-103211333D02*
X142962380Y-102544666D01*
X143962380Y-102973238D01*
X157567333Y-115388242D02*
X157519714Y-115435861D01*
X157376857Y-115483480D01*
X157281619Y-115483480D01*
X157138761Y-115435861D01*
X157043523Y-115340623D01*
X156995904Y-115245385D01*
X156948285Y-115054909D01*
X156948285Y-114912052D01*
X156995904Y-114721576D01*
X157043523Y-114626338D01*
X157138761Y-114531100D01*
X157281619Y-114483480D01*
X157376857Y-114483480D01*
X157519714Y-114531100D01*
X157567333Y-114578719D01*
X158519714Y-115483480D02*
X157948285Y-115483480D01*
X158234000Y-115483480D02*
X158234000Y-114483480D01*
X158138761Y-114626338D01*
X158043523Y-114721576D01*
X157948285Y-114769195D01*
X149786380Y-105907904D02*
X150595904Y-105907904D01*
X150691142Y-105860285D01*
X150738761Y-105812666D01*
X150786380Y-105717428D01*
X150786380Y-105526952D01*
X150738761Y-105431714D01*
X150691142Y-105384095D01*
X150595904Y-105336476D01*
X149786380Y-105336476D01*
X150786380Y-104336476D02*
X150786380Y-104907904D01*
X150786380Y-104622190D02*
X149786380Y-104622190D01*
X149929238Y-104717428D01*
X150024476Y-104812666D01*
X150072095Y-104907904D01*
X150280761Y-119578380D02*
X149947428Y-119102190D01*
X149709333Y-119578380D02*
X149709333Y-118578380D01*
X150090285Y-118578380D01*
X150185523Y-118626000D01*
X150233142Y-118673619D01*
X150280761Y-118768857D01*
X150280761Y-118911714D01*
X150233142Y-119006952D01*
X150185523Y-119054571D01*
X150090285Y-119102190D01*
X149709333Y-119102190D01*
X150566476Y-118578380D02*
X150899809Y-119578380D01*
X151233142Y-118578380D01*
X151518857Y-118673619D02*
X151566476Y-118626000D01*
X151661714Y-118578380D01*
X151899809Y-118578380D01*
X151995047Y-118626000D01*
X152042666Y-118673619D01*
X152090285Y-118768857D01*
X152090285Y-118864095D01*
X152042666Y-119006952D01*
X151471238Y-119578380D01*
X152090285Y-119578380D01*
X139136380Y-73064666D02*
X138660190Y-73398000D01*
X139136380Y-73636095D02*
X138136380Y-73636095D01*
X138136380Y-73255142D01*
X138184000Y-73159904D01*
X138231619Y-73112285D01*
X138326857Y-73064666D01*
X138469714Y-73064666D01*
X138564952Y-73112285D01*
X138612571Y-73159904D01*
X138660190Y-73255142D01*
X138660190Y-73636095D01*
X138231619Y-72683714D02*
X138184000Y-72636095D01*
X138136380Y-72540857D01*
X138136380Y-72302761D01*
X138184000Y-72207523D01*
X138231619Y-72159904D01*
X138326857Y-72112285D01*
X138422095Y-72112285D01*
X138564952Y-72159904D01*
X139136380Y-72731333D01*
X139136380Y-72112285D01*
X143100047Y-82814380D02*
X143433380Y-83814380D01*
X143766714Y-82814380D01*
X144290523Y-82814380D02*
X144481000Y-82814380D01*
X144576238Y-82862000D01*
X144671476Y-82957238D01*
X144719095Y-83147714D01*
X144719095Y-83481047D01*
X144671476Y-83671523D01*
X144576238Y-83766761D01*
X144481000Y-83814380D01*
X144290523Y-83814380D01*
X144195285Y-83766761D01*
X144100047Y-83671523D01*
X144052428Y-83481047D01*
X144052428Y-83147714D01*
X144100047Y-82957238D01*
X144195285Y-82862000D01*
X144290523Y-82814380D01*
X145623857Y-83814380D02*
X145147666Y-83814380D01*
X145147666Y-82814380D01*
X145814333Y-82814380D02*
X146385761Y-82814380D01*
X146100047Y-83814380D02*
X146100047Y-82814380D01*
X146671476Y-83528666D02*
X147147666Y-83528666D01*
X146576238Y-83814380D02*
X146909571Y-82814380D01*
X147242904Y-83814380D01*
X148100047Y-82862000D02*
X148004809Y-82814380D01*
X147861952Y-82814380D01*
X147719095Y-82862000D01*
X147623857Y-82957238D01*
X147576238Y-83052476D01*
X147528619Y-83242952D01*
X147528619Y-83385809D01*
X147576238Y-83576285D01*
X147623857Y-83671523D01*
X147719095Y-83766761D01*
X147861952Y-83814380D01*
X147957190Y-83814380D01*
X148100047Y-83766761D01*
X148147666Y-83719142D01*
X148147666Y-83385809D01*
X147957190Y-83385809D01*
X148576238Y-83290571D02*
X148909571Y-83290571D01*
X149052428Y-83814380D02*
X148576238Y-83814380D01*
X148576238Y-82814380D01*
X149052428Y-82814380D01*
X150242904Y-83814380D02*
X150242904Y-82814380D01*
X150481000Y-82814380D01*
X150623857Y-82862000D01*
X150719095Y-82957238D01*
X150766714Y-83052476D01*
X150814333Y-83242952D01*
X150814333Y-83385809D01*
X150766714Y-83576285D01*
X150719095Y-83671523D01*
X150623857Y-83766761D01*
X150481000Y-83814380D01*
X150242904Y-83814380D01*
X151242904Y-83814380D02*
X151242904Y-82814380D01*
X151671476Y-83766761D02*
X151814333Y-83814380D01*
X152052428Y-83814380D01*
X152147666Y-83766761D01*
X152195285Y-83719142D01*
X152242904Y-83623904D01*
X152242904Y-83528666D01*
X152195285Y-83433428D01*
X152147666Y-83385809D01*
X152052428Y-83338190D01*
X151861952Y-83290571D01*
X151766714Y-83242952D01*
X151719095Y-83195333D01*
X151671476Y-83100095D01*
X151671476Y-83004857D01*
X151719095Y-82909619D01*
X151766714Y-82862000D01*
X151861952Y-82814380D01*
X152100047Y-82814380D01*
X152242904Y-82862000D01*
X152671476Y-83814380D02*
X152671476Y-82814380D01*
X153052428Y-82814380D01*
X153147666Y-82862000D01*
X153195285Y-82909619D01*
X153242904Y-83004857D01*
X153242904Y-83147714D01*
X153195285Y-83242952D01*
X153147666Y-83290571D01*
X153052428Y-83338190D01*
X152671476Y-83338190D01*
X154147666Y-83814380D02*
X153671476Y-83814380D01*
X153671476Y-82814380D01*
X154433380Y-83528666D02*
X154909571Y-83528666D01*
X154338142Y-83814380D02*
X154671476Y-82814380D01*
X155004809Y-83814380D01*
X155528619Y-83338190D02*
X155528619Y-83814380D01*
X155195285Y-82814380D02*
X155528619Y-83338190D01*
X155861952Y-82814380D01*
X133878571Y-97813714D02*
X133926190Y-97670857D01*
X133973809Y-97623238D01*
X134069047Y-97575619D01*
X134211904Y-97575619D01*
X134307142Y-97623238D01*
X134354761Y-97670857D01*
X134402380Y-97766095D01*
X134402380Y-98147047D01*
X133402380Y-98147047D01*
X133402380Y-97813714D01*
X133450000Y-97718476D01*
X133497619Y-97670857D01*
X133592857Y-97623238D01*
X133688095Y-97623238D01*
X133783333Y-97670857D01*
X133830952Y-97718476D01*
X133878571Y-97813714D01*
X133878571Y-98147047D01*
X133402380Y-97289904D02*
X133402380Y-96718476D01*
X134402380Y-97004190D02*
X133402380Y-97004190D01*
X134402380Y-95861333D02*
X134402380Y-96432761D01*
X134402380Y-96147047D02*
X133402380Y-96147047D01*
X133545238Y-96242285D01*
X133640476Y-96337523D01*
X133688095Y-96432761D01*
X136088380Y-73064666D02*
X135612190Y-73398000D01*
X136088380Y-73636095D02*
X135088380Y-73636095D01*
X135088380Y-73255142D01*
X135136000Y-73159904D01*
X135183619Y-73112285D01*
X135278857Y-73064666D01*
X135421714Y-73064666D01*
X135516952Y-73112285D01*
X135564571Y-73159904D01*
X135612190Y-73255142D01*
X135612190Y-73636095D01*
X136088380Y-72112285D02*
X136088380Y-72683714D01*
X136088380Y-72398000D02*
X135088380Y-72398000D01*
X135231238Y-72493238D01*
X135326476Y-72588476D01*
X135374095Y-72683714D01*
X127952666Y-88066761D02*
X128095523Y-88114380D01*
X128333619Y-88114380D01*
X128428857Y-88066761D01*
X128476476Y-88019142D01*
X128524095Y-87923904D01*
X128524095Y-87828666D01*
X128476476Y-87733428D01*
X128428857Y-87685809D01*
X128333619Y-87638190D01*
X128143142Y-87590571D01*
X128047904Y-87542952D01*
X128000285Y-87495333D01*
X127952666Y-87400095D01*
X127952666Y-87304857D01*
X128000285Y-87209619D01*
X128047904Y-87162000D01*
X128143142Y-87114380D01*
X128381238Y-87114380D01*
X128524095Y-87162000D01*
X128857428Y-87114380D02*
X129095523Y-88114380D01*
X129286000Y-87400095D01*
X129476476Y-88114380D01*
X129714571Y-87114380D01*
X130619333Y-88114380D02*
X130047904Y-88114380D01*
X130333619Y-88114380D02*
X130333619Y-87114380D01*
X130238380Y-87257238D01*
X130143142Y-87352476D01*
X130047904Y-87400095D01*
X147434269Y-110942380D02*
X147100936Y-110466190D01*
X146862840Y-110942380D02*
X146862840Y-109942380D01*
X147243793Y-109942380D01*
X147339031Y-109990000D01*
X147386650Y-110037619D01*
X147434269Y-110132857D01*
X147434269Y-110275714D01*
X147386650Y-110370952D01*
X147339031Y-110418571D01*
X147243793Y-110466190D01*
X146862840Y-110466190D01*
X148339031Y-109942380D02*
X147862840Y-109942380D01*
X147815221Y-110418571D01*
X147862840Y-110370952D01*
X147958078Y-110323333D01*
X148196174Y-110323333D01*
X148291412Y-110370952D01*
X148339031Y-110418571D01*
X148386650Y-110513809D01*
X148386650Y-110751904D01*
X148339031Y-110847142D01*
X148291412Y-110894761D01*
X148196174Y-110942380D01*
X147958078Y-110942380D01*
X147862840Y-110894761D01*
X147815221Y-110847142D01*
X139977904Y-78850380D02*
X139977904Y-77850380D01*
X140216000Y-77850380D01*
X140358857Y-77898000D01*
X140454095Y-77993238D01*
X140501714Y-78088476D01*
X140549333Y-78278952D01*
X140549333Y-78421809D01*
X140501714Y-78612285D01*
X140454095Y-78707523D01*
X140358857Y-78802761D01*
X140216000Y-78850380D01*
X139977904Y-78850380D01*
X141501714Y-78850380D02*
X140930285Y-78850380D01*
X141216000Y-78850380D02*
X141216000Y-77850380D01*
X141120761Y-77993238D01*
X141025523Y-78088476D01*
X140930285Y-78136095D01*
X136644095Y-79170380D02*
X136644095Y-78170380D01*
X137215523Y-79170380D02*
X136786952Y-78598952D01*
X137215523Y-78170380D02*
X136644095Y-78741809D01*
X144470380Y-107608666D02*
X143994190Y-107942000D01*
X144470380Y-108180095D02*
X143470380Y-108180095D01*
X143470380Y-107799142D01*
X143518000Y-107703904D01*
X143565619Y-107656285D01*
X143660857Y-107608666D01*
X143803714Y-107608666D01*
X143898952Y-107656285D01*
X143946571Y-107703904D01*
X143994190Y-107799142D01*
X143994190Y-108180095D01*
X143470380Y-106751523D02*
X143470380Y-106942000D01*
X143518000Y-107037238D01*
X143565619Y-107084857D01*
X143708476Y-107180095D01*
X143898952Y-107227714D01*
X144279904Y-107227714D01*
X144375142Y-107180095D01*
X144422761Y-107132476D01*
X144470380Y-107037238D01*
X144470380Y-106846761D01*
X144422761Y-106751523D01*
X144375142Y-106703904D01*
X144279904Y-106656285D01*
X144041809Y-106656285D01*
X143946571Y-106703904D01*
X143898952Y-106751523D01*
X143851333Y-106846761D01*
X143851333Y-107037238D01*
X143898952Y-107132476D01*
X143946571Y-107180095D01*
X144041809Y-107227714D01*
X139718904Y-97252380D02*
X139718904Y-96252380D01*
X139957000Y-96252380D01*
X140099857Y-96300000D01*
X140195095Y-96395238D01*
X140242714Y-96490476D01*
X140290333Y-96680952D01*
X140290333Y-96823809D01*
X140242714Y-97014285D01*
X140195095Y-97109523D01*
X140099857Y-97204761D01*
X139957000Y-97252380D01*
X139718904Y-97252380D01*
X140671285Y-96347619D02*
X140718904Y-96300000D01*
X140814142Y-96252380D01*
X141052238Y-96252380D01*
X141147476Y-96300000D01*
X141195095Y-96347619D01*
X141242714Y-96442857D01*
X141242714Y-96538095D01*
X141195095Y-96680952D01*
X140623666Y-97252380D01*
X141242714Y-97252380D01*
X129244761Y-82708380D02*
X128911428Y-82232190D01*
X128673333Y-82708380D02*
X128673333Y-81708380D01*
X129054285Y-81708380D01*
X129149523Y-81756000D01*
X129197142Y-81803619D01*
X129244761Y-81898857D01*
X129244761Y-82041714D01*
X129197142Y-82136952D01*
X129149523Y-82184571D01*
X129054285Y-82232190D01*
X128673333Y-82232190D01*
X129530476Y-81708380D02*
X129863809Y-82708380D01*
X130197142Y-81708380D01*
X131054285Y-82708380D02*
X130482857Y-82708380D01*
X130768571Y-82708380D02*
X130768571Y-81708380D01*
X130673333Y-81851238D01*
X130578095Y-81946476D01*
X130482857Y-81994095D01*
X154844761Y-77649619D02*
X154749523Y-77602000D01*
X154654285Y-77506761D01*
X154511428Y-77363904D01*
X154416190Y-77316285D01*
X154320952Y-77316285D01*
X154368571Y-77554380D02*
X154273333Y-77506761D01*
X154178095Y-77411523D01*
X154130476Y-77221047D01*
X154130476Y-76887714D01*
X154178095Y-76697238D01*
X154273333Y-76602000D01*
X154368571Y-76554380D01*
X154559047Y-76554380D01*
X154654285Y-76602000D01*
X154749523Y-76697238D01*
X154797142Y-76887714D01*
X154797142Y-77221047D01*
X154749523Y-77411523D01*
X154654285Y-77506761D01*
X154559047Y-77554380D01*
X154368571Y-77554380D01*
X155178095Y-76649619D02*
X155225714Y-76602000D01*
X155320952Y-76554380D01*
X155559047Y-76554380D01*
X155654285Y-76602000D01*
X155701904Y-76649619D01*
X155749523Y-76744857D01*
X155749523Y-76840095D01*
X155701904Y-76982952D01*
X155130476Y-77554380D01*
X155749523Y-77554380D01*
X143597333Y-73732380D02*
X143264000Y-73256190D01*
X143025904Y-73732380D02*
X143025904Y-72732380D01*
X143406857Y-72732380D01*
X143502095Y-72780000D01*
X143549714Y-72827619D01*
X143597333Y-72922857D01*
X143597333Y-73065714D01*
X143549714Y-73160952D01*
X143502095Y-73208571D01*
X143406857Y-73256190D01*
X143025904Y-73256190D01*
X143930666Y-72732380D02*
X144549714Y-72732380D01*
X144216380Y-73113333D01*
X144359238Y-73113333D01*
X144454476Y-73160952D01*
X144502095Y-73208571D01*
X144549714Y-73303809D01*
X144549714Y-73541904D01*
X144502095Y-73637142D01*
X144454476Y-73684761D01*
X144359238Y-73732380D01*
X144073523Y-73732380D01*
X143978285Y-73684761D01*
X143930666Y-73637142D01*
D13*
X136922000Y-106364000D02*
X136922000Y-104964000D01*
X138922000Y-104964000D02*
X138922000Y-106364000D01*
X137622000Y-104264000D02*
X138222000Y-104264000D01*
X138222000Y-107064000D02*
X137622000Y-107064000D01*
X137622000Y-104264000D02*
G75*
G03*
X136922000Y-104964000I0J-700000D01*
G01*
X136922000Y-106364000D02*
G75*
G03*
X137622000Y-107064000I699999J-1D01*
G01*
X138222000Y-107064000D02*
G75*
G03*
X138922000Y-106364000I1J699999D01*
G01*
X138922000Y-104964000D02*
G75*
G03*
X138222000Y-104264000I-700000J0D01*
G01*
X168954000Y-97524000D02*
X169454000Y-97524000D01*
X174264000Y-98134000D02*
X174264000Y-86414000D01*
X169504000Y-88324000D02*
X169204000Y-88924000D01*
X169454000Y-97524000D02*
X169454000Y-92024000D01*
X166644000Y-86414000D02*
X168064000Y-86414000D01*
X170454000Y-98134000D02*
X166644000Y-98134000D01*
X168904000Y-88324000D02*
X169504000Y-88324000D01*
X168954000Y-92024000D02*
X168954000Y-97524000D01*
X168064000Y-86414000D02*
X168064000Y-90914000D01*
X169204000Y-88924000D02*
X168904000Y-88324000D01*
X171454000Y-92024000D02*
X171454000Y-97524000D01*
X170454000Y-98134000D02*
X174264000Y-98134000D01*
X169454000Y-92024000D02*
X168954000Y-92024000D01*
X174264000Y-86414000D02*
X172844000Y-86414000D01*
X171454000Y-97524000D02*
X171954000Y-97524000D01*
X171954000Y-97524000D02*
X171954000Y-92024000D01*
X166644000Y-98134000D02*
X166644000Y-86414000D01*
X171954000Y-92024000D02*
X171454000Y-92024000D01*
X172844000Y-86414000D02*
X172844000Y-90914000D01*
X149098000Y-81062000D02*
X149748000Y-81062000D01*
X149098000Y-77942000D02*
X149748000Y-77942000D01*
X149098000Y-77942000D02*
X147423000Y-77942000D01*
X149098000Y-81062000D02*
X148448000Y-81062000D01*
X139968000Y-114300000D02*
G75*
G03*
X139968000Y-114300000I-6100000J0D01*
G01*
X164365000Y-101846748D02*
X164365000Y-102369252D01*
X165835000Y-101846748D02*
X165835000Y-102369252D01*
X143737064Y-113257000D02*
X143282936Y-113257000D01*
X143737064Y-111787000D02*
X143282936Y-111787000D01*
X140997000Y-107923064D02*
X140997000Y-107468936D01*
X142467000Y-107923064D02*
X142467000Y-107468936D01*
G36*
X159435397Y-121812870D02*
G01*
X159433246Y-121684886D01*
X159425630Y-121599060D01*
X159410807Y-121543925D01*
X159389490Y-121510648D01*
X159359468Y-121460026D01*
X159372194Y-121414458D01*
X159415807Y-121387934D01*
X159499781Y-121369330D01*
X159611287Y-121358774D01*
X159737498Y-121356394D01*
X159865586Y-121362318D01*
X159982721Y-121376674D01*
X160076077Y-121399590D01*
X160095480Y-121407235D01*
X160203779Y-121482404D01*
X160278202Y-121590939D01*
X160315932Y-121722333D01*
X160314157Y-121866077D01*
X160270062Y-122011665D01*
X160261905Y-122028537D01*
X160203018Y-122117746D01*
X160134890Y-122180701D01*
X160120794Y-122188783D01*
X160062010Y-122206092D01*
X159968298Y-122220441D01*
X159851714Y-122231412D01*
X159724311Y-122238589D01*
X159598147Y-122241555D01*
X159485276Y-122239891D01*
X159397755Y-122233182D01*
X159347637Y-122221010D01*
X159341378Y-122215750D01*
X159344330Y-122176592D01*
X159378097Y-122125363D01*
X159378824Y-122124584D01*
X159405999Y-122088981D01*
X159422887Y-122044067D01*
X159431819Y-121977008D01*
X159434528Y-121893395D01*
X159733727Y-121893395D01*
X159737727Y-121995823D01*
X159750477Y-122060423D01*
X159773864Y-122095046D01*
X159809770Y-122107541D01*
X159823725Y-122108148D01*
X159892228Y-122091534D01*
X159929670Y-122066966D01*
X159971257Y-121993657D01*
X159993222Y-121885465D01*
X159992819Y-121758549D01*
X159988325Y-121721862D01*
X159961775Y-121610515D01*
X159918758Y-121543653D01*
X159852879Y-121512957D01*
X159824932Y-121509339D01*
X159744498Y-121503386D01*
X159736593Y-121745291D01*
X159733727Y-121893395D01*
X159434528Y-121893395D01*
X159435125Y-121874966D01*
X159435397Y-121812870D01*
G37*
G36*
X165143661Y-121562344D02*
G01*
X165125055Y-121528266D01*
X165104668Y-121507866D01*
X165067669Y-121464827D01*
X165071813Y-121431600D01*
X165120132Y-121406732D01*
X165215658Y-121388770D01*
X165361422Y-121376261D01*
X165381679Y-121375099D01*
X165549719Y-121370592D01*
X165674056Y-121380032D01*
X165763527Y-121405989D01*
X165826968Y-121451029D01*
X165873215Y-121517721D01*
X165873345Y-121517973D01*
X165907524Y-121631737D01*
X165892882Y-121735404D01*
X165834270Y-121821827D01*
X165736543Y-121883858D01*
X165604555Y-121914348D01*
X165604175Y-121914380D01*
X165519499Y-121923240D01*
X165475362Y-121936793D01*
X165458628Y-121962696D01*
X165456138Y-122000672D01*
X165469992Y-122067894D01*
X165496455Y-122108148D01*
X165533021Y-122162917D01*
X165526112Y-122216910D01*
X165478269Y-122251928D01*
X165476297Y-122252477D01*
X165385523Y-122267256D01*
X165284677Y-122269631D01*
X165191751Y-122260761D01*
X165124737Y-122241810D01*
X165106301Y-122228596D01*
X165087364Y-122188893D01*
X165109727Y-122146756D01*
X165116449Y-122139125D01*
X165137969Y-122103011D01*
X165151492Y-122045058D01*
X165158500Y-121954623D01*
X165160476Y-121823063D01*
X165159299Y-121698036D01*
X165156727Y-121654588D01*
X165456138Y-121654588D01*
X165457821Y-121733986D01*
X165467929Y-121772574D01*
X165494046Y-121783294D01*
X165530053Y-121780674D01*
X165577674Y-121769005D01*
X165601102Y-121737822D01*
X165611287Y-121670989D01*
X165612149Y-121659664D01*
X165612107Y-121582034D01*
X165593235Y-121538230D01*
X165564557Y-121517310D01*
X165508766Y-121498909D01*
X165474822Y-121519830D01*
X165458800Y-121585039D01*
X165456138Y-121654588D01*
X165156727Y-121654588D01*
X165154385Y-121615032D01*
X165143661Y-121562344D01*
G37*
G36*
X158721970Y-121833579D02*
G01*
X158827968Y-121715218D01*
X158874764Y-121664859D01*
X158984844Y-121558498D01*
X159076892Y-121492890D01*
X159147722Y-121469712D01*
X159194147Y-121490641D01*
X159197251Y-121495108D01*
X159207740Y-121537219D01*
X159215692Y-121617624D01*
X159219724Y-121720872D01*
X159219959Y-121749134D01*
X159222542Y-121864674D01*
X159230876Y-121936244D01*
X159246637Y-121973479D01*
X159260688Y-121983476D01*
X159290791Y-122020004D01*
X159301005Y-122077135D01*
X159287892Y-122145598D01*
X159260688Y-122188783D01*
X159228544Y-122240906D01*
X159220371Y-122286148D01*
X159215549Y-122324058D01*
X159191984Y-122343017D01*
X159136027Y-122349482D01*
X159085307Y-122350052D01*
X159004742Y-122347777D01*
X158962359Y-122335497D01*
X158942613Y-122305034D01*
X158934357Y-122270619D01*
X158922442Y-122226764D01*
X158899787Y-122202135D01*
X158852615Y-122190075D01*
X158767147Y-122183925D01*
X158753600Y-122183265D01*
X158662774Y-122177438D01*
X158612489Y-122166826D01*
X158589556Y-122145083D01*
X158580783Y-122105865D01*
X158580068Y-122099793D01*
X158582499Y-122050644D01*
X158603870Y-121994452D01*
X158617334Y-121973460D01*
X158741720Y-121973460D01*
X158764591Y-121994481D01*
X158829987Y-121996112D01*
X158837355Y-121995537D01*
X158904222Y-121985365D01*
X158934735Y-121959381D01*
X158946297Y-121901831D01*
X158946826Y-121896423D01*
X158945966Y-121814140D01*
X158923164Y-121780902D01*
X158878709Y-121796812D01*
X158821192Y-121852359D01*
X158760783Y-121927826D01*
X158741720Y-121973460D01*
X158617334Y-121973460D01*
X158648816Y-121924378D01*
X158721970Y-121833579D01*
G37*
G36*
X161510801Y-121552697D02*
G01*
X161491588Y-121516825D01*
X161454586Y-121465070D01*
X161465664Y-121420687D01*
X161511746Y-121398058D01*
X161618146Y-121382808D01*
X161745665Y-121373867D01*
X161878599Y-121371262D01*
X162001244Y-121375025D01*
X162097896Y-121385182D01*
X162143591Y-121396892D01*
X162225191Y-121456777D01*
X162268902Y-121543039D01*
X162272168Y-121641542D01*
X162232435Y-121738150D01*
X162210338Y-121766227D01*
X162183218Y-121804432D01*
X162196249Y-121832659D01*
X162225083Y-121854554D01*
X162269695Y-121905905D01*
X162308429Y-121982963D01*
X162315681Y-122004405D01*
X162343784Y-122075432D01*
X162374530Y-122121073D01*
X162383664Y-122127260D01*
X162416121Y-122160314D01*
X162407150Y-122205768D01*
X162366899Y-122241594D01*
X162306275Y-122259852D01*
X162223617Y-122269126D01*
X162207580Y-122269418D01*
X162103509Y-122246715D01*
X162028335Y-122178770D01*
X161982310Y-122065831D01*
X161977721Y-122043887D01*
X161950788Y-121963461D01*
X161910577Y-121912303D01*
X161866457Y-121901008D01*
X161855622Y-121905833D01*
X161831285Y-121948467D01*
X161831066Y-122015504D01*
X161853028Y-122084329D01*
X161873473Y-122114324D01*
X161903498Y-122165016D01*
X161890826Y-122210515D01*
X161846086Y-122239768D01*
X161766811Y-122259032D01*
X161671446Y-122267417D01*
X161578437Y-122264032D01*
X161506230Y-122247990D01*
X161479199Y-122230366D01*
X161459814Y-122190852D01*
X161475273Y-122143861D01*
X161488408Y-122122667D01*
X161511056Y-122061037D01*
X161526240Y-121966411D01*
X161533884Y-121853528D01*
X161533911Y-121737123D01*
X161526784Y-121639364D01*
X161827566Y-121639364D01*
X161831422Y-121714776D01*
X161846787Y-121750109D01*
X161878447Y-121758730D01*
X161928957Y-121738968D01*
X161945643Y-121716214D01*
X161961547Y-121630663D01*
X161947955Y-121553744D01*
X161922818Y-121517802D01*
X161874816Y-121497069D01*
X161843034Y-121526644D01*
X161828446Y-121605285D01*
X161827566Y-121639364D01*
X161526784Y-121639364D01*
X161526242Y-121631933D01*
X161510801Y-121552697D01*
G37*
G36*
X163111862Y-121644772D02*
G01*
X163192431Y-121520683D01*
X163301856Y-121432441D01*
X163429829Y-121380814D01*
X163566043Y-121366570D01*
X163700191Y-121390477D01*
X163821965Y-121453303D01*
X163921056Y-121555818D01*
X163938430Y-121583160D01*
X163995122Y-121725655D01*
X164004741Y-121869765D01*
X163969622Y-122005112D01*
X163892097Y-122121319D01*
X163801167Y-122193497D01*
X163740831Y-122239008D01*
X163731639Y-122272206D01*
X163771978Y-122291105D01*
X163860237Y-122293715D01*
X163881284Y-122292286D01*
X163958025Y-122289487D01*
X163994820Y-122299750D01*
X164004689Y-122326946D01*
X164004709Y-122329010D01*
X163980121Y-122377651D01*
X163915513Y-122419287D01*
X163824615Y-122447544D01*
X163730541Y-122456259D01*
X163649683Y-122446022D01*
X163540378Y-122420109D01*
X163423730Y-122383688D01*
X163401447Y-122375624D01*
X163297305Y-122338985D01*
X163208114Y-122311307D01*
X163149095Y-122297195D01*
X163139384Y-122296296D01*
X163098366Y-122281392D01*
X163094409Y-122248187D01*
X163124262Y-122213940D01*
X163157542Y-122199946D01*
X163224236Y-122183206D01*
X163159544Y-122071762D01*
X163094086Y-121930996D01*
X163073650Y-121805226D01*
X163095143Y-121691446D01*
X163386508Y-121691446D01*
X163397064Y-121778253D01*
X163423876Y-121881524D01*
X163459661Y-121978068D01*
X163497134Y-122044697D01*
X163497672Y-122045351D01*
X163554870Y-122078084D01*
X163623118Y-122073486D01*
X163677677Y-122034337D01*
X163683815Y-122024439D01*
X163702325Y-121945780D01*
X163693991Y-121846289D01*
X163664359Y-121741329D01*
X163618975Y-121646263D01*
X163563386Y-121576454D01*
X163511944Y-121548389D01*
X163445790Y-121558533D01*
X163401379Y-121611616D01*
X163386508Y-121691446D01*
X163095143Y-121691446D01*
X163096876Y-121682270D01*
X163111862Y-121644772D01*
G37*
G36*
X157916294Y-121372646D02*
G01*
X157979648Y-121403109D01*
X158003718Y-121447851D01*
X157982015Y-121503464D01*
X157973789Y-121513223D01*
X157939990Y-121577178D01*
X157930212Y-121633174D01*
X157935419Y-121679328D01*
X157961209Y-121699847D01*
X158022832Y-121704915D01*
X158037725Y-121704973D01*
X158106715Y-121701624D01*
X158137218Y-121684565D01*
X158144409Y-121643280D01*
X158144383Y-121631058D01*
X158130081Y-121556196D01*
X158105912Y-121507493D01*
X158081578Y-121453875D01*
X158082269Y-121421428D01*
X158117853Y-121393725D01*
X158190306Y-121372671D01*
X158282891Y-121360897D01*
X158378872Y-121361036D01*
X158427281Y-121367187D01*
X158492121Y-121386267D01*
X158518222Y-121419008D01*
X158521535Y-121451691D01*
X158507054Y-121508445D01*
X158481217Y-121533983D01*
X158460574Y-121567479D01*
X158446432Y-121640214D01*
X158438790Y-121738065D01*
X158437648Y-121846909D01*
X158443006Y-121952622D01*
X158454864Y-122041083D01*
X158473223Y-122098167D01*
X158481217Y-122108148D01*
X158516169Y-122160971D01*
X158514995Y-122216695D01*
X158479019Y-122253103D01*
X158429758Y-122262079D01*
X158347647Y-122268004D01*
X158280723Y-122269418D01*
X158164912Y-122260521D01*
X158094699Y-122234933D01*
X158072360Y-122194305D01*
X158100168Y-122140286D01*
X158101211Y-122139125D01*
X158132422Y-122074702D01*
X158145201Y-121982105D01*
X158145238Y-121976737D01*
X158145238Y-121862998D01*
X158044445Y-121871340D01*
X157980958Y-121879923D01*
X157950462Y-121902414D01*
X157938578Y-121954975D01*
X157935386Y-121993915D01*
X157936074Y-122068063D01*
X157949399Y-122105813D01*
X157955545Y-122108148D01*
X157979223Y-122128782D01*
X157982936Y-122175310D01*
X157968925Y-122224671D01*
X157941453Y-122253103D01*
X157871753Y-122266642D01*
X157777524Y-122269385D01*
X157679995Y-122262491D01*
X157600398Y-122247119D01*
X157567718Y-122232689D01*
X157536383Y-122205306D01*
X157536055Y-122178045D01*
X157568180Y-122131549D01*
X157576020Y-122121551D01*
X157604802Y-122077601D01*
X157622408Y-122025985D01*
X157631423Y-121952692D01*
X157634432Y-121843707D01*
X157634550Y-121804258D01*
X157631981Y-121675801D01*
X157623189Y-121590038D01*
X157606546Y-121536107D01*
X157590973Y-121513223D01*
X157559796Y-121455340D01*
X157580113Y-121409545D01*
X157650676Y-121377534D01*
X157697702Y-121368196D01*
X157820149Y-121359872D01*
X157916294Y-121372646D01*
G37*
G36*
X164156682Y-121620978D02*
G01*
X164140546Y-121570652D01*
X164112737Y-121531022D01*
X164105503Y-121523111D01*
X164066146Y-121477693D01*
X164062494Y-121451163D01*
X164092941Y-121423707D01*
X164097201Y-121420585D01*
X164156728Y-121398826D01*
X164264451Y-121383100D01*
X164415099Y-121373862D01*
X164603401Y-121371569D01*
X164656838Y-121372151D01*
X164760872Y-121395448D01*
X164838665Y-121453823D01*
X164884581Y-121535242D01*
X164892983Y-121627667D01*
X164858235Y-121719065D01*
X164833702Y-121749798D01*
X164775711Y-121811527D01*
X164846142Y-121866928D01*
X164905567Y-121940107D01*
X164934405Y-122017384D01*
X164955733Y-122084339D01*
X164984736Y-122124310D01*
X164989161Y-122126608D01*
X165021207Y-122161779D01*
X165020776Y-122212064D01*
X164989053Y-122250668D01*
X164983569Y-122253103D01*
X164906632Y-122267480D01*
X164811559Y-122266749D01*
X164727513Y-122252052D01*
X164702726Y-122242101D01*
X164663945Y-122200344D01*
X164628367Y-122128724D01*
X164619221Y-122100990D01*
X164582517Y-122003291D01*
X164538233Y-121930425D01*
X164494400Y-121894770D01*
X164484353Y-121893121D01*
X164469006Y-121916149D01*
X164462419Y-121971393D01*
X164464216Y-122038097D01*
X164474016Y-122095504D01*
X164488519Y-122121587D01*
X164513589Y-122163129D01*
X164507276Y-122216615D01*
X164473030Y-122253046D01*
X164472881Y-122253103D01*
X164408292Y-122265194D01*
X164316478Y-122268474D01*
X164219334Y-122263732D01*
X164138759Y-122251757D01*
X164104487Y-122239818D01*
X164075488Y-122218262D01*
X164073773Y-122191140D01*
X164100353Y-122140916D01*
X164111207Y-122123230D01*
X164140607Y-122063126D01*
X164157612Y-121990445D01*
X164165003Y-121889339D01*
X164165979Y-121811046D01*
X164164235Y-121701232D01*
X164441889Y-121701232D01*
X164448511Y-121732353D01*
X164485627Y-121760861D01*
X164524199Y-121744937D01*
X164554089Y-121692641D01*
X164564294Y-121640290D01*
X164557441Y-121549685D01*
X164520220Y-121499510D01*
X164484162Y-121490358D01*
X164467818Y-121513455D01*
X164453322Y-121569897D01*
X164443677Y-121639289D01*
X164441889Y-121701232D01*
X164164235Y-121701232D01*
X164164157Y-121696332D01*
X164156682Y-121620978D01*
G37*
G36*
X160713679Y-121364956D02*
G01*
X160745714Y-121372496D01*
X160789596Y-121406071D01*
X160808186Y-121461244D01*
X160796316Y-121513752D01*
X160779312Y-121530264D01*
X160761414Y-121562053D01*
X160752784Y-121613781D01*
X160755274Y-121660624D01*
X160768284Y-121678095D01*
X160804492Y-121655648D01*
X160844137Y-121601504D01*
X160875213Y-121535452D01*
X160885931Y-121484173D01*
X160907210Y-121413723D01*
X160970693Y-121371441D01*
X161078974Y-121355731D01*
X161094948Y-121355555D01*
X161187785Y-121366098D01*
X161251096Y-121392650D01*
X161279820Y-121427598D01*
X161268899Y-121463326D01*
X161213271Y-121492222D01*
X161189561Y-121497939D01*
X161124067Y-121529309D01*
X161060664Y-121586837D01*
X161052593Y-121597125D01*
X161025257Y-121635569D01*
X161010910Y-121668219D01*
X161013292Y-121703268D01*
X161036145Y-121748910D01*
X161083207Y-121813335D01*
X161158221Y-121904739D01*
X161234191Y-121994877D01*
X161303796Y-122081736D01*
X161355378Y-122154669D01*
X161382066Y-122203471D01*
X161383480Y-122216623D01*
X161351956Y-122229255D01*
X161286613Y-122237766D01*
X161204211Y-122241889D01*
X161121515Y-122241357D01*
X161055285Y-122235905D01*
X161022284Y-122225266D01*
X161021144Y-122222381D01*
X161004758Y-122192811D01*
X160962342Y-122136730D01*
X160915936Y-122081269D01*
X160852655Y-122013670D01*
X160811176Y-121984558D01*
X160782652Y-121988259D01*
X160777622Y-121992535D01*
X160759908Y-122026643D01*
X160777502Y-122074402D01*
X160788756Y-122092383D01*
X160828106Y-122174599D01*
X160821594Y-122230488D01*
X160790553Y-122253103D01*
X160730270Y-122264493D01*
X160641635Y-122268757D01*
X160544655Y-122266434D01*
X160459335Y-122258065D01*
X160405683Y-122244189D01*
X160403016Y-122242640D01*
X160379254Y-122219120D01*
X160383494Y-122184582D01*
X160409736Y-122133360D01*
X160433957Y-122063527D01*
X160450349Y-121963211D01*
X160458754Y-121846939D01*
X160459013Y-121729238D01*
X160450969Y-121624638D01*
X160434463Y-121547666D01*
X160416455Y-121516825D01*
X160381602Y-121467772D01*
X160391931Y-121423207D01*
X160438872Y-121386886D01*
X160513857Y-121362567D01*
X160608316Y-121354005D01*
X160713679Y-121364956D01*
G37*
G36*
X156696461Y-121747496D02*
G01*
X156689353Y-121641312D01*
X156687306Y-121629893D01*
X156989846Y-121629893D01*
X156996043Y-121690023D01*
X157008319Y-121714862D01*
X157052338Y-121729819D01*
X157094991Y-121704296D01*
X157118466Y-121648989D01*
X157118502Y-121648686D01*
X157109856Y-121586308D01*
X157077612Y-121539340D01*
X157035013Y-121523407D01*
X157017527Y-121529536D01*
X156997464Y-121567204D01*
X156989846Y-121629893D01*
X156687306Y-121629893D01*
X156674615Y-121559080D01*
X156653492Y-121516825D01*
X156616221Y-121464278D01*
X156629627Y-121418846D01*
X156678700Y-121393890D01*
X156732359Y-121387871D01*
X156825086Y-121384695D01*
X156942254Y-121384663D01*
X157030540Y-121386658D01*
X157159472Y-121391735D01*
X157246009Y-121398688D01*
X157301512Y-121409962D01*
X157337340Y-121428002D01*
X157364852Y-121455253D01*
X157368189Y-121459326D01*
X157411957Y-121547574D01*
X157412313Y-121639069D01*
X157375647Y-121708906D01*
X157351423Y-121742357D01*
X157355802Y-121772334D01*
X157393986Y-121815243D01*
X157415964Y-121836039D01*
X157481399Y-121917867D01*
X157496660Y-122001540D01*
X157463979Y-122100105D01*
X157461857Y-122104250D01*
X157425273Y-122158178D01*
X157374365Y-122196498D01*
X157300385Y-122221622D01*
X157194582Y-122235964D01*
X157048208Y-122241936D01*
X156960485Y-122242539D01*
X156819784Y-122241403D01*
X156724147Y-122237289D01*
X156664915Y-122229139D01*
X156633428Y-122215893D01*
X156622511Y-122201221D01*
X156626486Y-122151000D01*
X156650232Y-122111750D01*
X156672824Y-122059758D01*
X156688115Y-121971719D01*
X156689788Y-121948628D01*
X156998630Y-121948628D01*
X157002186Y-122027157D01*
X157005100Y-122040106D01*
X157036542Y-122094465D01*
X157081593Y-122106772D01*
X157123719Y-122079485D01*
X157145964Y-122019168D01*
X157138252Y-121940301D01*
X157102028Y-121884128D01*
X157055187Y-121866243D01*
X157017862Y-121889556D01*
X156998630Y-121948628D01*
X156689788Y-121948628D01*
X156696021Y-121862631D01*
X156696461Y-121747496D01*
G37*
G36*
X162924793Y-121369111D02*
G01*
X162940918Y-121380692D01*
X162952094Y-121399782D01*
X162950898Y-121434241D01*
X162935041Y-121491182D01*
X162902233Y-121577718D01*
X162850183Y-121700960D01*
X162803660Y-121807032D01*
X162739006Y-121954280D01*
X162677565Y-122096140D01*
X162624726Y-122220034D01*
X162585877Y-122313385D01*
X162573905Y-122343333D01*
X162536618Y-122427480D01*
X162502958Y-122470708D01*
X162463603Y-122484272D01*
X162457063Y-122484444D01*
X162402512Y-122475212D01*
X162380473Y-122460642D01*
X162384661Y-122427370D01*
X162408077Y-122357802D01*
X162446392Y-122263961D01*
X162471403Y-122208183D01*
X162527305Y-122084625D01*
X162593903Y-121933575D01*
X162661463Y-121777265D01*
X162703232Y-121678724D01*
X162765394Y-121536119D01*
X162814427Y-121439127D01*
X162854535Y-121382476D01*
X162889922Y-121360895D01*
X162924793Y-121369111D01*
G37*
X151396000Y-114751100D02*
X152884000Y-114751100D01*
X151423000Y-114631100D02*
X152884000Y-114631100D01*
X154964000Y-114350100D02*
X156338000Y-114350100D01*
X154964000Y-114510100D02*
X156392000Y-114510100D01*
X154964000Y-114791100D02*
X156460000Y-114791100D01*
X151889000Y-113670100D02*
X152884000Y-113670100D01*
X152181000Y-113350100D02*
X152884000Y-113350100D01*
X154964000Y-113350100D02*
X155667000Y-113350100D01*
X154964000Y-114711100D02*
X156444000Y-114711100D01*
X151469000Y-114470100D02*
X152884000Y-114470100D01*
X154964000Y-114030100D02*
X156192000Y-114030100D01*
X151595000Y-114150100D02*
X152884000Y-114150100D01*
X151559000Y-114230100D02*
X152884000Y-114230100D01*
X154964000Y-113550100D02*
X155861000Y-113550100D01*
X151829000Y-113750100D02*
X152884000Y-113750100D01*
X151363000Y-114951100D02*
X152884000Y-114951100D01*
X154964000Y-114470100D02*
X156379000Y-114470100D01*
X151526000Y-114310100D02*
X152884000Y-114310100D01*
X151724000Y-113910100D02*
X152884000Y-113910100D01*
X151749000Y-113870100D02*
X152884000Y-113870100D01*
X154964000Y-114831100D02*
X156467000Y-114831100D01*
X154964000Y-113510100D02*
X155825000Y-113510100D01*
X154964000Y-114550100D02*
X156404000Y-114550100D01*
X151368000Y-114911100D02*
X152884000Y-114911100D01*
X154964000Y-113270100D02*
X155577000Y-113270100D01*
X151404000Y-114711100D02*
X152884000Y-114711100D01*
X151413000Y-114671100D02*
X152884000Y-114671100D01*
X154964000Y-114671100D02*
X156435000Y-114671100D01*
X154964000Y-113630100D02*
X155928000Y-113630100D01*
X154964000Y-113070100D02*
X155307000Y-113070100D01*
X154964000Y-114190100D02*
X156272000Y-114190100D01*
X151456000Y-114510100D02*
X152884000Y-114510100D01*
X151953000Y-113590100D02*
X152884000Y-113590100D01*
X151381000Y-114831100D02*
X152884000Y-114831100D01*
X151348000Y-115111100D02*
X156500000Y-115111100D01*
X152319000Y-113230100D02*
X152884000Y-113230100D01*
X154964000Y-114390100D02*
X156352000Y-114390100D01*
X152746000Y-112950100D02*
X155102000Y-112950100D01*
X154964000Y-113230100D02*
X155529000Y-113230100D01*
X154964000Y-113790100D02*
X156046000Y-113790100D01*
X152826000Y-112910100D02*
X155022000Y-112910100D01*
X154964000Y-114270100D02*
X156306000Y-114270100D01*
X152913000Y-112870100D02*
X154935000Y-112870100D01*
X151614000Y-114110100D02*
X152884000Y-114110100D01*
X151346000Y-115151100D02*
X156502000Y-115151100D01*
X151444000Y-114550100D02*
X152884000Y-114550100D01*
X154964000Y-114751100D02*
X156452000Y-114751100D01*
X152673000Y-112990100D02*
X152884000Y-112990100D01*
X151355000Y-115031100D02*
X152884000Y-115031100D01*
X152541000Y-113070100D02*
X152884000Y-113070100D01*
X151374000Y-114871100D02*
X152884000Y-114871100D01*
X154964000Y-113030100D02*
X155243000Y-113030100D01*
X151351000Y-115071100D02*
X156497000Y-115071100D01*
X151344000Y-115231100D02*
X156504000Y-115231100D01*
X154964000Y-114230100D02*
X156289000Y-114230100D01*
X151859000Y-113710100D02*
X152884000Y-113710100D01*
X151987000Y-113550100D02*
X152884000Y-113550100D01*
X153009000Y-112830100D02*
X154839000Y-112830100D01*
X151920000Y-113630100D02*
X152884000Y-113630100D01*
X151433000Y-114591100D02*
X152884000Y-114591100D01*
X154964000Y-114150100D02*
X156253000Y-114150100D01*
X154964000Y-113710100D02*
X155989000Y-113710100D01*
X151634000Y-114070100D02*
X152884000Y-114070100D01*
X154964000Y-113150100D02*
X155424000Y-113150100D01*
X154964000Y-113590100D02*
X155895000Y-113590100D01*
X151775000Y-113830100D02*
X152884000Y-113830100D01*
X151656000Y-114030100D02*
X152884000Y-114030100D01*
X151388000Y-114791100D02*
X152884000Y-114791100D01*
X154964000Y-114110100D02*
X156234000Y-114110100D01*
X152139000Y-113390100D02*
X152884000Y-113390100D01*
X154964000Y-113910100D02*
X156124000Y-113910100D01*
X151345000Y-115191100D02*
X156503000Y-115191100D01*
X151802000Y-113790100D02*
X152884000Y-113790100D01*
X152370000Y-113190100D02*
X152884000Y-113190100D01*
X154964000Y-114430100D02*
X156366000Y-114430100D01*
X154964000Y-112990100D02*
X155175000Y-112990100D01*
X151359000Y-114991100D02*
X152884000Y-114991100D01*
X154964000Y-113990100D02*
X156171000Y-113990100D01*
X152605000Y-113030100D02*
X152884000Y-113030100D01*
X154964000Y-114991100D02*
X156489000Y-114991100D01*
X154964000Y-114871100D02*
X156474000Y-114871100D01*
X151344000Y-115271100D02*
X156504000Y-115271100D01*
X154964000Y-113470100D02*
X155788000Y-113470100D01*
X153640000Y-112670100D02*
X154208000Y-112670100D01*
X154964000Y-113110100D02*
X155367000Y-113110100D01*
X154964000Y-114911100D02*
X156480000Y-114911100D01*
X152449000Y-118075875D02*
X152449000Y-117575875D01*
X154964000Y-115031100D02*
X156493000Y-115031100D01*
X151677000Y-113990100D02*
X152884000Y-113990100D01*
X151482000Y-114430100D02*
X152884000Y-114430100D01*
X152060000Y-113470100D02*
X152884000Y-113470100D01*
X152225000Y-113310100D02*
X152884000Y-113310100D01*
X154964000Y-113190100D02*
X155478000Y-113190100D01*
X154964000Y-113950100D02*
X156148000Y-113950100D01*
X154964000Y-114310100D02*
X156322000Y-114310100D01*
X154964000Y-113830100D02*
X156073000Y-113830100D01*
X153119000Y-112790100D02*
X154729000Y-112790100D01*
X154964000Y-113750100D02*
X156019000Y-113750100D01*
X151510000Y-114350100D02*
X152884000Y-114350100D01*
X151576000Y-114190100D02*
X152884000Y-114190100D01*
X154964000Y-114070100D02*
X156214000Y-114070100D01*
X151542000Y-114270100D02*
X152884000Y-114270100D01*
X154964000Y-113870100D02*
X156099000Y-113870100D01*
X152271000Y-113270100D02*
X152884000Y-113270100D01*
X153247000Y-112750100D02*
X154601000Y-112750100D01*
X154964000Y-113670100D02*
X155959000Y-113670100D01*
X154964000Y-114951100D02*
X156485000Y-114951100D01*
X154964000Y-113310100D02*
X155623000Y-113310100D01*
X154964000Y-113430100D02*
X155750000Y-113430100D01*
X154964000Y-114631100D02*
X156425000Y-114631100D01*
X153406000Y-112710100D02*
X154442000Y-112710100D01*
X151496000Y-114390100D02*
X152884000Y-114390100D01*
X152098000Y-113430100D02*
X152884000Y-113430100D01*
X151700000Y-113950100D02*
X152884000Y-113950100D01*
X154964000Y-114591100D02*
X156415000Y-114591100D01*
X152199000Y-117825875D02*
X152699000Y-117825875D01*
X152481000Y-113110100D02*
X152884000Y-113110100D01*
X154964000Y-113390100D02*
X155709000Y-113390100D01*
X152424000Y-113150100D02*
X152884000Y-113150100D01*
X152023000Y-113510100D02*
X152884000Y-113510100D01*
X156544000Y-115271100D02*
G75*
G03*
X156544000Y-115271100I-2620000J0D01*
G01*
X151334000Y-106146000D02*
X151334000Y-107796000D01*
X151334000Y-102496000D02*
X151334000Y-104146000D01*
X161614000Y-102496000D02*
X151334000Y-102496000D01*
X151334000Y-107796000D02*
X161614000Y-107796000D01*
X161614000Y-107796000D02*
X161614000Y-102496000D01*
X151334000Y-106146000D02*
G75*
G03*
X151334000Y-104146000I0J1000000D01*
G01*
X149106000Y-114914000D02*
X149106000Y-115604000D01*
X147796000Y-121934000D02*
X146306000Y-121934000D01*
X147586000Y-114714000D02*
X149006000Y-114714000D01*
X142486000Y-114914000D02*
X142486000Y-115164000D01*
X149006000Y-114914000D02*
X149106000Y-114914000D01*
X142586000Y-114714000D02*
X144006000Y-114714000D01*
X142586000Y-114914000D02*
X142486000Y-114914000D01*
X149106000Y-116644000D02*
X149106000Y-120624000D01*
X147586000Y-114914000D02*
X147586000Y-114714000D01*
X142586000Y-114714000D02*
X142586000Y-114914000D01*
X149006000Y-114714000D02*
X149006000Y-114914000D01*
X142486000Y-120624000D02*
X142486000Y-117084000D01*
X144006000Y-114914000D02*
X144006000Y-114714000D01*
X145286000Y-121934000D02*
X143796000Y-121934000D01*
X144006000Y-114914000D02*
X147586000Y-114914000D01*
X142486000Y-120624000D02*
G75*
G03*
X143796000Y-121934000I1310000J0D01*
G01*
X147796000Y-121934000D02*
G75*
G03*
X149106000Y-120624000I0J1310000D01*
G01*
X139419000Y-76173064D02*
X139419000Y-75718936D01*
X137949000Y-76173064D02*
X137949000Y-75718936D01*
D14*
X161106000Y-94662000D02*
X138106000Y-94662000D01*
X138106000Y-84662000D02*
X161106000Y-84662000D01*
D13*
X154556000Y-89662000D02*
X158556000Y-89662000D01*
X140881000Y-89662000D02*
X144881000Y-89662000D01*
D14*
X161106000Y-84662000D02*
X161106000Y-87662000D01*
X134606000Y-91662000D02*
X134606000Y-87662000D01*
X161106000Y-87662000D02*
X164606000Y-87662000D01*
D13*
X147656000Y-89662000D02*
X151656000Y-89662000D01*
D14*
X138106000Y-84662000D02*
X138106000Y-87662000D01*
X138106000Y-91662000D02*
X134606000Y-91662000D01*
X161106000Y-91662000D02*
X161106000Y-94662000D01*
X138106000Y-91662000D02*
X138106000Y-94662000D01*
X164606000Y-87662000D02*
X164606000Y-91662000D01*
X134606000Y-87662000D02*
X138106000Y-87662000D01*
X164606000Y-91662000D02*
X161106000Y-91662000D01*
D13*
X154606000Y-89662000D02*
X158606000Y-89662000D01*
X147606000Y-89662000D02*
X151606000Y-89662000D01*
X151381000Y-93162000D02*
X147381000Y-93162000D01*
X147906000Y-86162000D01*
X152006000Y-86162000D01*
X151381000Y-93162000D01*
X158281000Y-93162000D02*
X154281000Y-93162000D01*
X154806000Y-86162000D01*
X158906000Y-86162000D01*
X158281000Y-93162000D01*
X144606000Y-93162000D02*
X140606000Y-93162000D01*
X141131000Y-86162000D01*
X145231000Y-86162000D01*
X144606000Y-93162000D01*
X121750000Y-95528000D02*
X121750000Y-96028000D01*
X132860000Y-94638000D02*
X128360000Y-94638000D01*
X127250000Y-95528000D02*
X121750000Y-95528000D01*
X121140000Y-97028000D02*
X121140000Y-93218000D01*
X121140000Y-97028000D02*
X121140000Y-100838000D01*
X132860000Y-99418000D02*
X128360000Y-99418000D01*
X127250000Y-98528000D02*
X127250000Y-98028000D01*
X127250000Y-96028000D02*
X127250000Y-95528000D01*
X127250000Y-98028000D02*
X121750000Y-98028000D01*
X121750000Y-98528000D02*
X127250000Y-98528000D01*
X121750000Y-98028000D02*
X121750000Y-98528000D01*
X132860000Y-93218000D02*
X132860000Y-94638000D01*
X132860000Y-100838000D02*
X132860000Y-99418000D01*
X130350000Y-95778000D02*
X130950000Y-95478000D01*
X130950000Y-96078000D02*
X130350000Y-95778000D01*
X121140000Y-100838000D02*
X132860000Y-100838000D01*
X121140000Y-93218000D02*
X132860000Y-93218000D01*
X130950000Y-95478000D02*
X130950000Y-96078000D01*
X121750000Y-96028000D02*
X127250000Y-96028000D01*
X134901000Y-76173064D02*
X134901000Y-75718936D01*
X136371000Y-76173064D02*
X136371000Y-75718936D01*
D15*
X132588000Y-71120000D02*
X132588000Y-71628000D01*
X88646000Y-97282000D02*
X88646000Y-97790000D01*
X132334000Y-123698000D02*
X132842000Y-123698000D01*
X132588000Y-123444000D02*
X132588000Y-123952000D01*
X88392000Y-97536000D02*
X88900000Y-97536000D01*
X176530000Y-97282000D02*
X176530000Y-97790000D01*
X176276000Y-97536000D02*
X176784000Y-97536000D01*
X132588000Y-97282000D02*
X132588000Y-97790000D01*
X132334000Y-71374000D02*
X132842000Y-71374000D01*
X132334000Y-97536000D02*
X132842000Y-97536000D01*
D13*
X148055064Y-113257000D02*
X147600936Y-113257000D01*
X148055064Y-111787000D02*
X147600936Y-111787000D01*
X142836000Y-79398000D02*
X138596000Y-79398000D01*
X137946000Y-80518000D02*
X138596000Y-80518000D01*
X138596000Y-79398000D02*
X138596000Y-81638000D01*
X139436000Y-79398000D02*
X139436000Y-81638000D01*
X139316000Y-79398000D02*
X139316000Y-81638000D01*
X138596000Y-81638000D02*
X142836000Y-81638000D01*
X143486000Y-80518000D02*
X142836000Y-80518000D01*
X142836000Y-81638000D02*
X142836000Y-79398000D01*
X139196000Y-79398000D02*
X139196000Y-81638000D01*
X142467000Y-103150936D02*
X142467000Y-103605064D01*
X140997000Y-103150936D02*
X140997000Y-103605064D01*
X138867000Y-97800000D02*
X138867000Y-97980000D01*
X138747000Y-97800000D02*
X142167000Y-97800000D01*
X142167000Y-100155000D02*
X142167000Y-100320000D01*
X138747000Y-97800000D02*
X138747000Y-97980000D01*
X138987000Y-100140000D02*
X138987000Y-100320000D01*
X138747000Y-100320000D02*
X142167000Y-100320000D01*
X138747000Y-100140000D02*
X138747000Y-100320000D01*
X142167000Y-97800000D02*
X142167000Y-97965000D01*
X138987000Y-97800000D02*
X138987000Y-97980000D01*
X138867000Y-100140000D02*
X138867000Y-100320000D01*
X133036000Y-76148000D02*
X133036000Y-79728000D01*
X131306000Y-81248000D02*
X127326000Y-81248000D01*
X133036000Y-81248000D02*
X132346000Y-81248000D01*
X133236000Y-79728000D02*
X133236000Y-81148000D01*
X126016000Y-77428000D02*
X126016000Y-75938000D01*
X127326000Y-74628000D02*
X130866000Y-74628000D01*
X133236000Y-74728000D02*
X133236000Y-76148000D01*
X133036000Y-79728000D02*
X133236000Y-79728000D01*
X133036000Y-74628000D02*
X132786000Y-74628000D01*
X133036000Y-81148000D02*
X133036000Y-81248000D01*
X133236000Y-81148000D02*
X133036000Y-81148000D01*
X133036000Y-76148000D02*
X133236000Y-76148000D01*
X133036000Y-74728000D02*
X133036000Y-74628000D01*
X133236000Y-74728000D02*
X133036000Y-74728000D01*
X126016000Y-79938000D02*
X126016000Y-78448000D01*
X127326000Y-74628000D02*
G75*
G03*
X126016000Y-75938000I0J-1310000D01*
G01*
X126016000Y-79938000D02*
G75*
G03*
X127326000Y-81248000I1310000J0D01*
G01*
X154940000Y-81062000D02*
X154290000Y-81062000D01*
X154940000Y-77942000D02*
X153265000Y-77942000D01*
X154940000Y-81062000D02*
X155590000Y-81062000D01*
X154940000Y-77942000D02*
X155590000Y-77942000D01*
X143536936Y-74195000D02*
X143991064Y-74195000D01*
X143536936Y-75665000D02*
X143991064Y-75665000D01*
%LPC*%
D16*
X137922000Y-106314000D03*
D17*
X137922000Y-105014000D03*
D18*
X169204000Y-90424000D03*
D19*
X171704000Y-90424000D03*
D20*
X148160500Y-78552000D03*
X148160500Y-80452000D03*
X150035500Y-79502000D03*
D21*
X137668000Y-114300000D03*
D22*
X130068000Y-114300000D03*
D23*
X165100000Y-101070500D03*
X165100000Y-103145500D03*
D24*
X144510000Y-112522000D03*
X142510000Y-112522000D03*
D25*
X141732000Y-108696000D03*
X141732000Y-106696000D03*
D26*
X153924000Y-116521100D03*
D27*
X153924000Y-114021100D03*
D26*
X152664000Y-108956000D03*
D28*
X155204000Y-108956000D03*
X157744000Y-108956000D03*
X160284000Y-108956000D03*
X160284000Y-101336000D03*
X157744000Y-101336000D03*
X155204000Y-101336000D03*
X152664000Y-101336000D03*
D29*
X143296000Y-116124000D03*
D30*
X145796000Y-121124000D03*
X148296000Y-116124000D03*
D25*
X138684000Y-76946000D03*
X138684000Y-74946000D03*
D31*
X136606000Y-89662000D03*
X162606000Y-89662000D03*
D32*
X128850000Y-95778000D03*
D33*
X128850000Y-98278000D03*
D25*
X135636000Y-76946000D03*
X135636000Y-74946000D03*
D34*
X98806000Y-85598000D03*
D35*
X94488000Y-117856000D03*
X170688000Y-117856000D03*
X94488000Y-77216000D03*
X170688000Y-77216000D03*
D36*
X127486000Y-89662000D03*
D27*
X131086000Y-89662000D03*
D34*
X98806000Y-110236000D03*
X118110000Y-85598000D03*
X118110000Y-110236000D03*
D24*
X148828000Y-112522000D03*
X146828000Y-112522000D03*
D26*
X136906000Y-80518000D03*
D28*
X144526000Y-80518000D03*
D37*
X141732000Y-102378000D03*
X141732000Y-104378000D03*
D38*
X139187000Y-99060000D03*
D39*
X141727000Y-99060000D03*
D29*
X131826000Y-75438000D03*
D30*
X126826000Y-77938000D03*
X131826000Y-80438000D03*
D20*
X154002500Y-78552000D03*
X154002500Y-80452000D03*
X155877500Y-79502000D03*
D40*
X142764000Y-74930000D03*
X144764000Y-74930000D03*
M02*
